<?xml version="1.0" standalone="no"?>
<!DOCTYPE svg PUBLIC "-//W3C//DTD SVG 1.1//EN" "http://www.w3.org/Graphics/SVG/1.1/DTD/svg11.dtd" >
<svg>
<metadata>
Created by FontForge 20090622 at Tue Dec 24 07:31:35 2019
 By deploy user
Copyright 2017 The Barlow Project Authors (https://github.com/jpt/barlow)
</metadata>
<defs>
<font id="Barlow-Light" horiz-adv-x="0" >
  <font-face 
    font-family="Barlow Light"
    font-weight="300"
    font-stretch="normal"
    units-per-em="1000"
    panose-1="0 0 4 0 0 0 0 0 0 0"
    ascent="800"
    descent="-200"
    x-height="504"
    cap-height="700"
    bbox="-581 -209 1102 980"
    underline-thickness="50"
    underline-position="-50"
    unicode-range="U+000D-U+25CA"
  />
<missing-glyph horiz-adv-x="404" 
d="M0 4q0 -4 4 -4h396q4 0 4 4v692q0 4 -4 4h-396q-4 0 -4 -4v-692zM187 228q-12 0 -12 12v42q0 30 19 54t41.5 38.5t41.5 40.5t19 59q0 39 -24.5 62.5t-63.5 23.5q-40 0 -65 -24t-25 -63v-19q0 -12 -12 -12l-14 1q-12 0 -12 12v18q0 55 35.5 88.5t92.5 33.5t91.5 -33
t34.5 -89q0 -33 -12.5 -58.5t-30 -41t-34.5 -29t-29.5 -29.5t-12.5 -35v-40q0 -12 -12 -12h-16zM198 91q-16 0 -27 11t-11 26t11 25.5t27 10.5q15 0 26 -10.5t11 -25.5t-11 -26t-26 -11z" />
    <glyph glyph-name="I_J.liga" unicode="IJ" horiz-adv-x="835" 
d="M114 0q-12 0 -12 12v676q0 12 12 12h29q12 0 12 -12v-676q0 -12 -12 -12h-29zM511 -8q-100 0 -160.5 56t-60.5 148v48q0 12 12 12h29q12 0 12 -12v-48q0 -71 46 -114t122 -43t122.5 43t46.5 114v492q0 12 12 12h29q12 0 12 -12v-492q0 -92 -61 -148t-161 -56z" />
    <glyph glyph-name="f_f_i.liga" unicode="ffi" horiz-adv-x="923" 
d="M166 540v-32q0 -4 4 -4h124q12 0 12 -12v-21q0 -12 -12 -12h-124q-4 0 -4 -4v-443q0 -12 -12 -12h-28q-12 0 -12 12v443q0 4 -4 4h-62q-12 0 -12 12v21q0 12 12 12h62q4 0 4 4v35q0 81 33.5 119.5t118.5 37.5h23q12 0 12 -12v-16q0 -12 -12 -12h-23q-59 -1 -79.5 -30
t-20.5 -90zM449 543q0 81 33.5 119.5t118.5 37.5h24q12 0 12 -12v-16q0 -12 -12 -12h-24q-58 -1 -79 -30t-21 -90v-32q0 -4 4 -4h118q12 0 12 -12v-21q0 -12 -12 -12h-118q-4 0 -4 -4v-443q0 -12 -12 -12h-28q-12 0 -12 12v443q0 4 -4 4h-80q-12 0 -12 12v21q0 12 12 12h80
q4 0 4 4v35zM803 692q20 0 32.5 -12.5t12.5 -31.5t-12.5 -31.5t-32.5 -12.5t-33 12.5t-13 31.5t13 31.5t33 12.5zM788 0q-12 0 -12 12v480q0 12 12 12h29q12 0 12 -12v-480q0 -12 -12 -12h-29z" />
    <glyph glyph-name="f_f_l.liga" unicode="ffl" horiz-adv-x="909" 
d="M166 540v-32q0 -4 4 -4h137q12 0 12 -12v-21q0 -12 -12 -12h-137q-4 0 -4 -4v-443q0 -12 -12 -12h-28q-12 0 -12 12v443q0 4 -4 4h-62q-12 0 -12 12v21q0 12 12 12h62q4 0 4 4v35q0 81 33.5 119.5t118.5 37.5h23q12 0 12 -12v-16q0 -12 -12 -12h-23q-59 -1 -79.5 -30
t-20.5 -90zM449 543q0 81 33.5 119.5t118.5 37.5h24q12 0 12 -12v-16q0 -12 -12 -12h-24q-58 -1 -79 -30t-21 -90v-32q0 -4 4 -4h118q12 0 12 -12v-21q0 -12 -12 -12h-118q-4 0 -4 -4v-443q0 -12 -12 -12h-28q-12 0 -12 12v443q0 4 -4 4h-80q-12 0 -12 12v21q0 12 12 12h80
q4 0 4 4v35zM768 688q0 12 12 12h29q12 0 12 -12v-676q0 -12 -12 -12h-29q-12 0 -12 12v676z" />
    <glyph glyph-name="f_i.liga" unicode="fi" horiz-adv-x="591" 
d="M116 536q0 88 32.5 126t118.5 38h24q12 0 12 -12v-23q0 -12 -12 -12h-20q-59 0 -80.5 -28t-21.5 -91v-26q0 -4 4 -4h115q12 0 12 -12v-25q0 -12 -12 -12h-115q-4 0 -4 -4v-439q0 -12 -12 -12h-29q-12 0 -12 12v439q0 4 -4 4h-64q-12 0 -12 12v25q0 12 12 12h64q4 0 4 4
v28zM470 692q20 0 33 -12t13 -31t-13 -31.5t-33 -12.5t-33 12.5t-13 31.5t13 31t33 12zM456 0q-12 0 -12 12v480q0 12 12 12h29q12 0 12 -12v-480q0 -12 -12 -12h-29z" />
    <glyph glyph-name="f_l.liga" unicode="fl" horiz-adv-x="576" 
d="M116 536q0 88 32.5 126t118.5 38h24q12 0 12 -12v-23q0 -12 -12 -12h-20q-59 0 -80.5 -28t-21.5 -91v-26q0 -4 4 -4h115q12 0 12 -12v-25q0 -12 -12 -12h-115q-4 0 -4 -4v-439q0 -12 -12 -12h-29q-12 0 -12 12v439q0 4 -4 4h-64q-12 0 -12 12v25q0 12 12 12h64q4 0 4 4
v28zM436 688q0 12 12 12h29q12 0 12 -12v-676q0 -12 -12 -12h-29q-12 0 -12 12v676z" />
    <glyph glyph-name="g_j.liga" unicode="gj" horiz-adv-x="761" 
d="M648 691q21 0 34 -11.5t13 -31.5q0 -19 -13 -31t-34 -12q-20 0 -33 12t-13 31q0 20 13.5 31.5t32.5 11.5zM394 444q3 -2 5 2v46q0 12 12 12h29q12 0 12 -12v-481q0 -220 -258 -210q-12 1 -12 13l1 25q0 13 12 11q106 -3 155 36.5t49 125.5v50q0 3 -1.5 3.5t-3.5 -1.5
q-45 -69 -137 -69q-65 0 -114 35.5t-65 97.5q-11 41 -11 123q0 88 12 129q16 59 63 95.5t113 36.5q92 0 139 -68zM621 -55v547q0 12 12 12h29q12 0 12 -12v-547q0 -151 -157 -154q-12 0 -12 12v22q0 12 12 12q48 3 76 31t28 77zM394 147q5 24 5 105t-5 107q-8 46 -42.5 76
t-86.5 30t-87.5 -30t-48.5 -76q-9 -30 -9 -106q0 -75 9 -106q11 -46 47.5 -76t88.5 -30q54 0 87.5 30t41.5 76z" />
    <glyph glyph-name="i_j.liga" unicode="ij" horiz-adv-x="466" 
d="M121 605q-20 0 -33 12.5t-13 31.5t13 31t33 12t33 -12t13 -31t-13 -31.5t-33 -12.5zM353 604q-20 0 -32.5 12t-12.5 32t13 32t32 12q21 0 34 -12t13 -32t-12.5 -32t-34.5 -12zM107 0q-12 0 -12 12v480q0 12 12 12h29q12 0 12 -12v-480q0 -12 -12 -12h-29zM221 -209
q-12 0 -12 12v22q0 12 12 12q106 5 106 108v547q0 12 12 12h29q12 0 12 -12v-547q0 -151 -159 -154z" />
    <glyph glyph-name="hyphen_hyphen.liga" unicode="&#x2d;&#x2d;" horiz-adv-x="692" 
d="M54 283q-12 0 -12 12v23q0 12 12 12h585q12 0 12 -12v-23q0 -12 -12 -12h-585z" />
    <glyph glyph-name=".notdef" horiz-adv-x="404" 
d="M0 4q0 -4 4 -4h396q4 0 4 4v692q0 4 -4 4h-396q-4 0 -4 -4v-692zM187 228q-12 0 -12 12v42q0 30 19 54t41.5 38.5t41.5 40.5t19 59q0 39 -24.5 62.5t-63.5 23.5q-40 0 -65 -24t-25 -63v-19q0 -12 -12 -12l-14 1q-12 0 -12 12v18q0 55 35.5 88.5t92.5 33.5t91.5 -33
t34.5 -89q0 -33 -12.5 -58.5t-30 -41t-34.5 -29t-29.5 -29.5t-12.5 -35v-40q0 -12 -12 -12h-16zM198 91q-16 0 -27 11t-11 26t11 25.5t27 10.5q15 0 26 -10.5t11 -25.5t-11 -26t-26 -11z" />
    <glyph glyph-name=".null" 
 />
    <glyph glyph-name="nonmarkingreturn" horiz-adv-x="333" 
 />
    <glyph glyph-name="CR" unicode="&#xd;" horiz-adv-x="200" 
 />
    <glyph glyph-name="space" unicode=" " horiz-adv-x="200" 
 />
    <glyph glyph-name="exclam" unicode="!" horiz-adv-x="316" 
d="M147 225q-12 0 -12 12l-3 451q0 12 12 12h29q12 0 12 -12l-4 -451q0 -12 -12 -12h-22zM155 4q-23 0 -38.5 15.5t-15.5 37.5q0 21 16.5 36.5t37.5 15.5q22 0 38.5 -15.5t16.5 -36.5q0 -22 -16 -37.5t-39 -15.5z" />
    <glyph glyph-name="quotedbl" unicode="&#x22;" horiz-adv-x="238" 
d="M51 493q-12 0 -12 12l-6 176q0 12 12 12h31q12 0 12 -12l-6 -176q0 -12 -12 -12h-19zM169 493q-12 0 -12 12l-6 176q0 12 12 12h31q12 0 12 -12l-6 -176q0 -12 -12 -12h-19z" />
    <glyph glyph-name="numbersign" unicode="#" horiz-adv-x="652" 
d="M573 448q0 -12 -12 -12h-74q-5 0 -5 -4l-27 -175q0 -4 3 -4h67q12 0 12 -12l-1 -23q0 -12 -12 -12h-73q-5 0 -5 -4l-27 -177q-1 -11 -13 -11l-29 1q-13 0 -11 13l27 174q0 4 -3 4h-174q-5 0 -5 -4l-27 -177q-1 -11 -13 -11l-29 1q-13 0 -11 13l27 174q0 4 -3 4h-64
q-12 0 -12 12l1 23q0 12 12 12h70q5 0 5 4l27 175q0 4 -3 4h-64q-12 0 -12 12l1 23q0 12 12 12h70q5 0 5 4l27 178q1 11 13 11l29 -1q13 0 11 -14l-27 -174q0 -4 3 -4h174q5 0 5 4l27 178q1 11 13 11l29 -1q13 0 11 -14l-27 -174q0 -4 3 -4h67q12 0 12 -12v-23zM397 253
q5 0 5 4l27 175q0 4 -3 4h-174q-5 0 -5 -4l-27 -175q0 -4 3 -4h174z" />
    <glyph glyph-name="dollar" unicode="$" horiz-adv-x="544" 
d="M485 172q0 -78 -50.5 -127t-143.5 -53q-4 0 -4 -4v-60q0 -12 -12 -12h-16q-12 0 -12 12l1 61q0 4 -4 4q-85 7 -133 53.5t-48 120.5v38q0 12 12 12h27q12 0 12 -12v-28q0 -62 44 -100t121 -38q74 0 113.5 35t39.5 95t-64 106q-31 21 -136 76q-60 30 -89.5 50t-50 54
t-20.5 81q0 76 43.5 120t123.5 51q4 0 4 4l-1 66q0 12 12 12h16q12 0 12 -12l-1 -65q0 -4 4 -4q93 -4 144 -51.5t51 -126.5v-27q0 -12 -12 -12h-29q-12 0 -12 12v18q0 63 -42 101.5t-119 38.5q-68 0 -105 -31.5t-37 -90.5q0 -61 56 -98q23 -15 122 -60q96 -44 139.5 -91.5
t43.5 -117.5z" />
    <glyph glyph-name="percent" unicode="%" horiz-adv-x="854" 
d="M242 433q-58 0 -99 40.5t-41 98.5q0 57 41 97.5t99 40.5t98.5 -40.5t40.5 -97.5q0 -58 -40.5 -98.5t-98.5 -40.5zM226 0q-15 0 -8 14l377 678q5 8 15 8h16q15 0 8 -14l-376 -678q-5 -8 -15 -8h-17zM242 467q43 0 73 30.5t30 74.5q0 43 -30 73t-73 30t-73.5 -30t-30.5 -73
q0 -44 30 -74.5t74 -30.5zM614 -10q-58 0 -99 40.5t-41 98.5t40.5 98t99.5 40q58 0 98.5 -40.5t40.5 -97.5q0 -58 -40.5 -98.5t-98.5 -40.5zM614 25q43 0 73 30.5t30 73.5t-30 73.5t-73 30.5q-44 0 -74 -30.5t-30 -73.5t30 -73.5t74 -30.5z" />
    <glyph glyph-name="ampersand" unicode="&#x26;" horiz-adv-x="651" 
d="M580 14q5 -5 2.5 -9.5t-9.5 -4.5h-33q-9 0 -15 7l-63 76q-2 4 -6 0q-49 -49 -96 -70t-107 -21q-87 0 -139 41t-52 117q0 69 39.5 118.5t112.5 102.5q3 2 0 5q-60 74 -79.5 110.5t-19.5 71.5q0 67 44 108.5t115 41.5q73 0 118.5 -40t45.5 -105q0 -61 -37.5 -104.5
t-108.5 -93.5q-3 -2 0 -5l110 -131q35 -42 54 -67q3 -3 6 0l66 86q8 9 17 3l20 -12q11 -6 4 -16q-37 -54 -76 -99q-1 -3 4 -11zM276 658q-49 0 -78.5 -26.5t-29.5 -73.5q0 -26 16.5 -56t70.5 -98q3 -3 6 -1q61 42 92.5 78.5t31.5 81.5q0 43 -30.5 69t-78.5 26zM260 39
q87 3 164 81q3 3 0 6l-80 95l-94 111q-1 3 -5 1q-63 -46 -96 -86t-34 -93q-1 -56 38.5 -86.5t106.5 -28.5z" />
    <glyph glyph-name="quotesingle" unicode="'" horiz-adv-x="122" 
d="M51 498q-12 0 -12 12l-6 176q0 12 12 12h33q12 0 12 -12l-6 -176q0 -12 -12 -12h-21z" />
    <glyph glyph-name="parenleft" unicode="(" horiz-adv-x="238" 
d="M110 -107q-10 0 -14 8q-46 74 -74 187.5t-28 234.5q0 125 29 241.5t76 191.5q4 8 14 8h27q7 0 9.5 -4t-1.5 -10q-41 -77 -67 -190.5t-26 -234.5q0 -119 26 -230.5t67 -187.5q7 -14 -8 -14h-30z" />
    <glyph glyph-name="parenright" unicode=")" horiz-adv-x="238" 
d="M142 -99q-4 -8 -14 -8h-30q-15 0 -8 14q41 76 67 187.5t26 230.5q0 121 -26 234.5t-67 190.5q-4 6 -1.5 10t9.5 4h27q10 0 14 -8q47 -75 76 -191.5t29 -241.5q0 -121 -28 -234.5t-74 -187.5z" />
    <glyph glyph-name="asterisk" unicode="*" horiz-adv-x="397" 
d="M192 393q-12 0 -12 12v128q0 5 -5 3l-115 -66q-10 -7 -17 5l-6 11q-5 10 5 16l115 65q1 1 1 3t-1 3l-115 65q-9 6 -4 16l5 11q5 12 17 5l115 -66q5 -2 5 3v128q0 12 12 12h13q12 0 12 -12v-128q0 -5 5 -3l115 66q9 6 16 -5l6 -11q6 -9 -4 -16l-115 -65q-2 -1 -2 -3t2 -3
l115 -65q10 -7 4 -16l-6 -11q-7 -12 -17 -5l-114 66q-5 2 -5 -3v-128q0 -12 -12 -12h-13z" />
    <glyph glyph-name="plus" unicode="+" horiz-adv-x="504" 
d="M450 339q12 0 12 -12v-22q0 -12 -12 -12h-171q-4 0 -4 -4v-167q0 -12 -12 -12h-22q-12 0 -12 12v167q0 4 -4 4h-171q-12 0 -12 12v22q0 12 12 12h171q4 0 4 4v176q0 12 12 12h22q12 0 12 -12v-176q0 -4 4 -4h171z" />
    <glyph glyph-name="comma" unicode="," horiz-adv-x="264" 
d="M86 -74q-14 0 -11 13l46 204q2 11 13 11h24q14 0 11 -13l-53 -205q-3 -10 -14 -10h-16z" />
    <glyph glyph-name="hyphen" unicode="-" horiz-adv-x="391" 
d="M54 291q-12 0 -12 12v23q0 12 12 12h283q12 0 12 -12v-23q0 -12 -12 -12h-283z" />
    <glyph glyph-name="period" unicode="." horiz-adv-x="275" 
d="M135 4q-23 0 -38.5 15.5t-15.5 37.5q0 21 16.5 36.5t37.5 15.5q22 0 38.5 -15.5t16.5 -36.5q0 -22 -16 -37.5t-39 -15.5z" />
    <glyph glyph-name="slash" unicode="/" horiz-adv-x="335" 
d="M46 0q-14 0 -10 14l211 676q3 10 13 10h29q13 0 10 -14l-211 -676q-3 -10 -13 -10h-29z" />
    <glyph glyph-name="zero" unicode="0" horiz-adv-x="563" 
d="M280 -10q-92 0 -147.5 53.5t-55.5 142.5v328q0 89 55.5 142t147.5 53q93 0 149.5 -53.5t56.5 -141.5v-328q0 -89 -56.5 -142.5t-149.5 -53.5zM280 38q70 0 111.5 39.5t41.5 104.5v335q0 65 -41.5 105t-111.5 40q-68 0 -109 -40t-41 -105v-335q0 -65 41 -104.5t109 -39.5z
" />
    <glyph glyph-name="one" unicode="1" horiz-adv-x="346" 
d="M183 696q7 4 15 4h33q12 0 12 -12v-676q0 -12 -12 -12h-29q-12 0 -12 12v626q0 6 -5 3l-111 -51q-14 -7 -14 9v19q0 10 8 15z" />
    <glyph glyph-name="two" unicode="2" horiz-adv-x="530" 
d="M75 0q-12 0 -12 12v25q0 9 5 15l228 289q94 122 94 193q0 57 -38.5 92t-100.5 35t-99.5 -35t-36.5 -92v-30q0 -12 -12 -12h-29q-12 0 -12 12v36q1 75 53.5 121.5t135.5 46.5q87 0 140 -48.5t53 -124.5q0 -86 -96 -211l-214 -272q-3 -5 2 -5h320q12 0 12 -12v-23
q0 -12 -12 -12h-381z" />
    <glyph glyph-name="three" unicode="3" horiz-adv-x="509" 
d="M418 330q20 -51 20 -119q0 -54 -14 -96q-38 -123 -178 -123q-69 0 -117 36.5t-65 97.5q-8 26 -10 71q0 12 12 12h30q12 0 12 -12q2 -29 5 -53q11 -48 46 -76.5t87 -28.5q97 0 126 87q13 39 13 86q0 62 -18 104q-32 78 -122 78q-13 0 -28 -5q-11 -3 -17 5l-13 16
q-7 8 0 17l178 221q2 2 1 3.5t-3 1.5h-293q-12 0 -12 12v23q0 12 12 12h353q12 0 12 -12v-27q0 -8 -5 -15l-167 -211q-5 -5 3 -5q113 -4 152 -100z" />
    <glyph glyph-name="four" unicode="4" horiz-adv-x="537" 
d="M461 244q12 0 12 -12v-24q0 -12 -12 -12h-40q-4 0 -4 -4v-180q0 -12 -12 -12h-29q-12 0 -12 12v180q0 4 -4 4h-295q-12 0 -12 12v22q0 8 3 15l210 446q4 9 14 9h29q15 0 9 -14l-205 -437q-3 -5 3 -5h244q4 0 4 4v168q0 12 12 12h29q12 0 12 -12v-168q0 -4 4 -4h40z" />
    <glyph glyph-name="five" unicode="5" horiz-adv-x="508" 
d="M446 303q7 -41 7 -89q0 -50 -7 -81q-16 -65 -65.5 -103t-119.5 -38q-68 0 -116.5 36t-65.5 96q-5 17 -7 39q-2 12 11 12h30q11 0 12 -10v-4q2 -12 4 -17q11 -47 45.5 -75.5t86.5 -28.5q53 0 88.5 30t45.5 82q5 20 5 61q0 35 -5 70q-7 50 -43 77t-91 27q-48 0 -83.5 -20
t-48.5 -57q-3 -10 -13 -10h-33q-12 0 -12 12v376q0 12 12 12h329q12 0 12 -12v-23q0 -12 -12 -12h-284q-4 0 -4 -4l-1 -268q0 -6 5 -1q49 54 139 54q69 0 118 -34t61 -97z" />
    <glyph glyph-name="six" unicode="6" horiz-adv-x="509" 
d="M439 317q15 -35 15 -104q0 -64 -12 -95q-19 -59 -64 -92.5t-113 -33.5q-70 0 -118.5 35t-65.5 96q-10 34 -10 92v315q0 81 52 129.5t135 48.5q81 0 131 -46.5t50 -122.5v-8q0 -12 -12 -12h-29q-12 0 -12 9v8q0 56 -35.5 90.5t-92.5 34.5q-58 0 -96 -36.5t-38 -96.5v-162
q1 -4 5 -1q43 68 139 68q129 0 171 -116zM393 138q8 24 8 75q0 53 -10 78q-11 43 -44.5 69t-84.5 26q-50 0 -84 -26.5t-45 -69.5q-9 -30 -9 -79q0 -48 8 -73q10 -44 44.5 -71t86.5 -27q48 0 83 25t47 73z" />
    <glyph glyph-name="seven" unicode="7" horiz-adv-x="467" 
d="M162 0q-15 0 -10 14l233 634q3 5 -3 5h-291q-4 0 -4 -4v-43q0 -12 -12 -12h-22q-12 0 -12 12v82q0 12 12 12h378q12 0 12 -12v-27q0 -6 -3 -15l-232 -636q-3 -10 -13 -10h-33z" />
    <glyph glyph-name="eight" unicode="8" horiz-adv-x="514" 
d="M353 378q-5 -3 0 -6q52 -25 76 -81q17 -38 17 -97q0 -74 -29 -121q-49 -81 -162 -81q-116 0 -164 87q-28 47 -28 116q0 54 20 99q25 53 75 79q4 3 0 6q-36 17 -62 52q-32 43 -32 100q0 54 26 94q51 84 165 84q120 0 168 -89q23 -39 23 -89q0 -57 -31 -99q-25 -34 -62 -54
zM140 450q38 -54 112 -56h4q77 0 116 59q22 33 22 75q0 36 -17 68q-39 67 -123 67t-121 -67q-17 -31 -17 -69q0 -43 24 -77zM368 94q25 41 25 104q0 42 -12 74q-30 81 -126 81q-90 0 -124 -77q-14 -32 -14 -80q0 -59 23 -99q36 -59 115 -59q77 0 113 56z" />
    <glyph glyph-name="nine" unicode="9" horiz-adv-x="519" 
d="M438 577q10 -34 10 -92v-315q0 -81 -52 -129.5t-135 -48.5q-81 0 -131 46.5t-50 122.5v8q0 12 12 12h29q12 0 12 -8v-9q0 -56 35.5 -90.5t92.5 -34.5q58 0 96 36.5t38 96.5v162q-1 4 -5 1q-43 -68 -139 -68q-129 0 -171 116q-15 35 -15 104q0 64 12 95q19 59 64 92.5
t113 33.5q70 0 118.5 -35t65.5 -96zM257 314q50 0 84 26.5t45 69.5q9 30 9 79q0 48 -8 73q-10 44 -44.5 71t-86.5 27q-48 0 -83 -25t-47 -73q-8 -24 -8 -75q0 -53 10 -78q11 -43 44.5 -69t84.5 -26z" />
    <glyph glyph-name="colon" unicode=":" horiz-adv-x="332" 
d="M166 355q-23 0 -38.5 15.5t-15.5 37.5q0 21 16.5 36.5t37.5 15.5q22 0 38.5 -15.5t16.5 -36.5q0 -22 -16 -37.5t-39 -15.5zM166 16q-23 0 -38.5 15.5t-15.5 37.5q0 21 16.5 36.5t37.5 15.5q22 0 38.5 -15.5t16.5 -36.5q0 -22 -16 -37.5t-39 -15.5z" />
    <glyph glyph-name="semicolon" unicode=";" horiz-adv-x="309" 
d="M158 355q-23 0 -39 15.5t-16 37.5q0 21 16.5 36.5t38.5 15.5q21 0 38 -15.5t17 -36.5q0 -22 -16 -37.5t-39 -15.5zM118 -70q-12 0 -11 13l27 195q1 11 13 11h27q12 0 10 -13l-37 -195q-1 -11 -13 -11h-16z" />
    <glyph glyph-name="less" unicode="&#x3c;" horiz-adv-x="504" 
d="M462 62q0 -16 -14 -9l-397 187q-9 4 -9 14v30q0 10 9 14l397 187q14 7 14 -9v-28q0 -10 -9 -14l-353 -162q-6 -3 0 -6l353 -162q9 -4 9 -14v-28z" />
    <glyph glyph-name="equal" unicode="=" horiz-adv-x="504" 
d="M54 404q-12 0 -12 12v22q0 12 12 12h396q12 0 12 -12v-22q0 -12 -12 -12h-396zM54 192q-12 0 -12 12v22q0 12 12 12h396q12 0 12 -12v-22q0 -12 -12 -12h-396z" />
    <glyph glyph-name="greater" unicode="&#x3e;" horiz-adv-x="504" 
d="M56 53q-14 -7 -14 9v28q0 10 9 14l353 162q6 3 0 6l-353 162q-9 4 -9 14v28q0 16 14 9l397 -187q9 -4 9 -14v-30q0 -10 -9 -14z" />
    <glyph glyph-name="question" unicode="?" horiz-adv-x="445" 
d="M189 195q-12 0 -12 12v63q0 35 17.5 62.5t42.5 47.5l49.5 40t42 50t17.5 69q0 55 -34 88t-90 33t-91 -33.5t-35 -88.5v-32q0 -12 -12 -12l-29 1q-12 0 -12 13v30q0 76 50 123.5t130 47.5t128 -46.5t48 -124.5q0 -39 -12.5 -71t-31 -51.5t-40 -38.5t-40 -33t-31 -34
t-12.5 -43v-60q0 -12 -12 -12h-31zM208 3q-22 0 -37.5 15t-15.5 36t15.5 36t37.5 15q21 0 37 -15t16 -36t-16 -36t-37 -15z" />
    <glyph glyph-name="at" unicode="@" horiz-adv-x="830" 
d="M455 606q151 0 236 -97t65 -245q-12 -89 -56.5 -139.5t-109.5 -50.5q-72 0 -100 56q-2 5 -5 0q-36 -56 -109 -56q-52 0 -84.5 26.5t-37.5 68.5q-3 30 5 87q8 59 18 88q15 43 52 68.5t83 25.5q58 0 89 -41q3 -3 5 1l3 24q1 11 12 11h16q13 0 11 -13l-26 -212
q-5 -42 15.5 -69.5t57.5 -27.5q44 0 76.5 40t42.5 111q20 137 -56 221.5t-207 84.5q-61 0 -119 -20.5t-107.5 -59.5t-80.5 -104.5t-33 -147.5q-3 -128 66 -209.5t195 -81.5q49 0 95.5 11.5t72.5 28.5q10 7 17 -2l8 -10q8 -9 -2 -16q-32 -23 -86.5 -37t-109.5 -14
q-143 0 -222 94t-74 244q2 87 37 157.5t90 114t121.5 67t135.5 23.5zM378 111q35 0 60 20.5t35 51.5q8 21 14 74q6 55 5 74q0 31 -21.5 51t-56.5 20t-61.5 -20t-38.5 -50q-8 -21 -14 -76q-8 -55 -5 -73q2 -32 24.5 -52t58.5 -20z" />
    <glyph glyph-name="A" unicode="A" horiz-adv-x="590" 
d="M511 0q-10 0 -13 10l-43 131q-1 3 -4 3h-312q-3 0 -4 -3l-42 -131q-3 -10 -13 -10h-32q-15 0 -10 14l222 676q3 10 13 10h43q10 0 13 -10l223 -676q5 -14 -10 -14h-31zM151 193q-3 -5 4 -5h280q7 0 4 5l-142 438q-1 2 -3 2t-3 -2z" />
    <glyph glyph-name="B" unicode="B" horiz-adv-x="629" 
d="M438 365q-6 -2 0 -4q113 -47 113 -172q0 -88 -55.5 -138.5t-146.5 -50.5h-235q-12 0 -12 12v676q0 12 12 12h228q93 0 147 -48t54 -133q0 -113 -105 -154zM159 653q-4 0 -4 -4v-262q0 -4 4 -4h183q68 0 108.5 36.5t40.5 96.5q0 62 -40.5 99.5t-108.5 37.5h-183zM349 48
q68 0 108.5 39.5t40.5 104.5q0 67 -42 106.5t-112 39.5h-185q-4 0 -4 -4v-282q0 -4 4 -4h190z" />
    <glyph glyph-name="C" unicode="C" horiz-adv-x="607" 
d="M308 -9q-103 0 -166 59.5t-63 157.5v285q0 97 63 156t166 59q102 0 165 -58.5t63 -153.5q0 -12 -12 -12l-29 -1q-12 0 -12 6v6q0 75 -48 120.5t-127 45.5q-80 0 -128 -45.5t-48 -120.5v-290q0 -75 48.5 -121t127.5 -46t127 46t48 121q0 11 12 11l29 -1q12 0 12 -5v-5
q0 -96 -63 -155t-165 -59z" />
    <glyph glyph-name="D" unicode="D" horiz-adv-x="618" 
d="M114 0q-12 0 -12 12v676q0 12 12 12h230q96 0 152 -50.5t56 -137.5v-324q0 -87 -56 -137.5t-152 -50.5h-230zM155 51q0 -4 4 -4h188q70 0 110.5 39.5t41.5 107.5v312q0 68 -40.5 107.5t-111.5 39.5h-188q-4 0 -4 -4v-598z" />
    <glyph glyph-name="E" unicode="E" horiz-adv-x="611" 
d="M548 665q0 -12 -12 -12h-377q-4 0 -4 -4v-270q0 -4 4 -4h267q12 0 12 -12v-23q0 -12 -12 -12h-267q-4 0 -4 -4v-273q0 -4 4 -4h377q12 0 12 -12v-23q0 -12 -12 -12h-422q-12 0 -12 12v676q0 12 12 12h422q12 0 12 -12v-23z" />
    <glyph glyph-name="F" unicode="F" horiz-adv-x="570" 
d="M547 665q0 -12 -12 -12h-376q-4 0 -4 -4v-270q0 -4 4 -4h266q12 0 12 -12v-23q0 -12 -12 -12h-266q-4 0 -4 -4v-312q0 -12 -12 -12h-29q-12 0 -12 12v676q0 12 12 12h421q12 0 12 -12v-23z" />
    <glyph glyph-name="G" unicode="G" horiz-adv-x="605" 
d="M308 -8q-103 0 -166 59t-63 155v288q0 97 62.5 155.5t166.5 58.5q101 0 164 -58t63 -150v-12q0 -12 -12 -12h-29q-12 0 -12 12v11q0 72 -48 117t-126 45q-79 0 -127.5 -45.5t-48.5 -119.5v-292q0 -74 48.5 -119.5t128.5 -45.5q78 0 125.5 43.5t47.5 115.5v101q0 4 -4 4
h-154q-12 0 -12 12v23q0 12 12 12h199q12 0 12 -12v-128q0 -101 -62 -159.5t-165 -58.5z" />
    <glyph glyph-name="H" unicode="H" horiz-adv-x="661" 
d="M507 688q0 12 12 12h29q12 0 12 -12v-676q0 -12 -12 -12h-29q-12 0 -12 12v312q0 4 -4 4h-344q-4 0 -4 -4v-312q0 -12 -12 -12h-29q-12 0 -12 12v676q0 12 12 12h29q12 0 12 -12v-309q0 -4 4 -4h344q4 0 4 4v309z" />
    <glyph glyph-name="I" unicode="I" horiz-adv-x="258" 
d="M114 0q-12 0 -12 12v676q0 12 12 12h29q12 0 12 -12v-676q0 -12 -12 -12h-29z" />
    <glyph glyph-name="J" unicode="J" horiz-adv-x="577" 
d="M253 -8q-100 0 -160.5 56t-60.5 148v48q0 12 12 12h29q12 0 12 -12v-48q0 -71 46 -114t122 -43t122.5 43t46.5 114v492q0 12 12 12h29q12 0 12 -12v-492q0 -92 -61 -148t-161 -56z" />
    <glyph glyph-name="K" unicode="K" horiz-adv-x="607" 
d="M114 0q-12 0 -12 12v676q0 12 12 12h29q12 0 12 -12v-351q0 -2 1.5 -3t3.5 1l337 359q5 6 15 6h32q8 0 10 -4.5t-3 -10.5l-248 -272q-2 -2 0 -6l271 -392q9 -15 -8 -15h-35q-9 0 -14 8l-250 361q-2 5 -6 1l-104 -107q-2 -2 -2 -5v-246q0 -12 -12 -12h-29z" />
    <glyph glyph-name="L" unicode="L" horiz-adv-x="567" 
d="M114 0q-12 0 -12 12v676q0 12 12 12h29q12 0 12 -12v-637q0 -4 4 -4h357q12 0 12 -12v-23q0 -12 -12 -12h-402z" />
    <glyph glyph-name="M" unicode="M" horiz-adv-x="713" 
d="M115 0q-12 0 -12 12v676q0 12 12 12h31q9 0 14 -8l193 -305q1 -1 3 -1t3 1l194 305q5 8 14 8h31q12 0 12 -12v-676q0 -12 -12 -12h-29q-12 0 -12 12v585q0 3 -1.5 3.5t-3.5 -2.5l-173 -274q-4 -8 -14 -8h-16q-9 0 -14 8l-174 274q-1 3 -3 2.5t-2 -3.5v-585q0 -12 -12 -12
h-29z" />
    <glyph glyph-name="N" unicode="N" horiz-adv-x="677" 
d="M114 0q-12 0 -12 12v676q0 12 12 12h30q10 0 14 -8l359 -582q1 -3 3 -2.5t2 3.5v577q0 12 12 12h29q12 0 12 -12v-676q0 -12 -12 -12h-30q-10 0 -14 8l-359 583q-2 3 -3.5 2.5t-1.5 -3.5v-578q0 -12 -12 -12h-29z" />
    <glyph glyph-name="O" unicode="O" horiz-adv-x="622" 
d="M310 -8q-104 0 -167.5 62.5t-63.5 164.5v262q0 102 63.5 164.5t167.5 62.5q105 0 169 -62.5t64 -164.5v-262q0 -102 -64 -164.5t-169 -62.5zM310 38q81 0 130.5 49t49.5 130v265q0 80 -49.5 129.5t-130.5 49.5q-80 0 -129 -49.5t-49 -129.5v-265q0 -81 49 -130t129 -49z
" />
    <glyph glyph-name="P" unicode="P" horiz-adv-x="590" 
d="M362 702q85 0 137 -52.5t52 -138.5q0 -85 -52.5 -137t-138.5 -52h-208q-4 0 -4 -4v-306q0 -12 -12 -12h-29q-12 0 -12 12v678q0 12 12 12h255zM358 367q63 0 101.5 39.5t38.5 103.5q0 65 -38.5 104.5t-101.5 39.5h-206q-4 0 -4 -4v-279q0 -4 4 -4h206z" />
    <glyph glyph-name="Q" unicode="Q" horiz-adv-x="572" 
d="M286 708q100 0 161.5 -60.5t61.5 -159.5v-279q0 -90 -52.5 -148t-140.5 -68q-4 0 -4 -4v-97q0 -12 -12 -12h-29q-12 0 -12 12v97q0 4 -4 4q-88 10 -140 68t-52 148v279q0 99 61.5 159.5t161.5 60.5zM456 209v282q0 77 -47 123.5t-123 46.5t-123 -46.5t-47 -123.5v-282
q0 -77 47 -123.5t123 -46.5t123 46.5t47 123.5z" />
    <glyph glyph-name="R" unicode="R" horiz-adv-x="612" 
d="M519 0q-9 0 -14 9l-154 318q-1 3 -4 3h-188q-4 0 -4 -4v-314q0 -12 -12 -12h-29q-12 0 -12 12v678q0 12 12 12h250q84 0 135.5 -52t51.5 -136q0 -72 -39.5 -120.5t-105.5 -59.5q-5 -2 -3 -5l153 -315q6 -14 -9 -14h-28zM159 654q-4 0 -4 -4v-272q0 -4 4 -4h200
q62 0 100.5 38.5t38.5 100.5q0 64 -38.5 102.5t-100.5 38.5h-200z" />
    <glyph glyph-name="S" unicode="S" horiz-adv-x="584" 
d="M297 -8q-108 0 -171.5 49.5t-63.5 132.5v31q0 12 12 12h27q12 0 12 -12v-28q0 -62 51 -100t138 -38q83 0 126.5 34.5t43.5 95.5q0 54 -42.5 89.5t-150.5 81.5q-41 17 -59.5 25.5t-48 23.5t-43 27.5t-29 31t-21 40.5t-5.5 49q0 82 56.5 126.5t156.5 44.5q110 0 171.5 -50
t61.5 -134v-21q0 -12 -12 -12h-29q-12 0 -12 12v18q0 63 -48 101.5t-135 38.5q-76 0 -117 -31.5t-41 -90.5q0 -57 38 -85.5t145 -71.5q111 -45 164 -90.5t53 -120.5q0 -81 -60 -130t-168 -49z" />
    <glyph glyph-name="T" unicode="T" horiz-adv-x="565" 
d="M506 700q12 0 12 -12v-23q0 -12 -12 -12h-198q-4 0 -4 -4v-637q0 -12 -12 -12h-29q-12 0 -12 12v637q0 4 -4 4h-188q-12 0 -12 12v23q0 12 12 12h447z" />
    <glyph glyph-name="U" unicode="U" horiz-adv-x="653" 
d="M326 -8q-104 0 -168 60.5t-64 159.5v476q0 12 12 12h29q12 0 12 -12v-478q0 -77 49.5 -124t129.5 -47q81 0 130 47t49 124v478q0 12 12 12h29q12 0 12 -12v-476q0 -99 -63.5 -159.5t-168.5 -60.5z" />
    <glyph glyph-name="V" unicode="V" horiz-adv-x="580" 
d="M272 0q-10 0 -13 10l-221 676q-5 14 10 14h32q10 0 13 -10l194 -608q1 -2 3 -2t3 2l196 608q3 10 13 10h30q15 0 10 -14l-222 -676q-3 -10 -13 -10h-35z" />
    <glyph glyph-name="W" unicode="W" horiz-adv-x="875" 
d="M236 0q-11 0 -14 10l-194 677q-3 13 10 13h31q11 0 14 -10l165 -581q1 -2 2.5 -2t2.5 2l152 581q3 10 14 10h32q11 0 14 -10l158 -581q1 -2 2.5 -2t2.5 2l166 581q3 10 14 10h29q13 0 10 -13l-194 -677q-3 -10 -14 -10h-31q-11 0 -14 10l-156 592q-2 6 -4 0l-155 -592
q-3 -10 -14 -10h-29z" />
    <glyph glyph-name="X" unicode="X" horiz-adv-x="578" 
d="M51 0q-16 0 -8 14l213 333q2 3 0 6l-213 333q-8 14 8 14h33q9 0 14 -8l188 -297q1 -1 3 -1t3 1l188 297q5 8 14 8h32q16 0 8 -14l-212 -334q-2 -3 0 -6l212 -332q8 -14 -8 -14h-32q-9 0 -14 8l-188 296q-1 2 -3 2t-3 -2l-188 -296q-5 -8 -14 -8h-33z" />
    <glyph glyph-name="Y" unicode="Y" horiz-adv-x="554" 
d="M263 0q-12 0 -12 12v306q0 4 -1 5l-208 363q-8 14 9 14h29q10 0 15 -8l179 -313q1 -1 3 -1t3 1l179 313q5 8 15 8h29q17 0 9 -14l-208 -363q-1 -1 -1 -5v-306q0 -12 -12 -12h-28z" />
    <glyph glyph-name="Z" unicode="Z" horiz-adv-x="547" 
d="M60 0q-12 0 -12 12v29q0 8 4 15l377 592q1 3 -3 5h-366q-12 0 -12 12v23q0 12 12 12h418q12 0 12 -12v-29q0 -8 -4 -15l-376 -592q-1 -3 3 -5h365q12 0 12 -12v-23q0 -12 -12 -12h-418z" />
    <glyph glyph-name="bracketleft" unicode="[" horiz-adv-x="370" 
d="M44 -114q-12 0 -12 12v858q0 12 12 12h176q12 0 12 -12v-24q0 -12 -12 -12h-131q-4 0 -4 -4v-779q0 -4 4 -4h132q12 0 12 -12v-23q0 -12 -12 -12h-177z" />
    <glyph glyph-name="backslash" unicode="\" horiz-adv-x="335" 
d="M299 14q3 -14 -10 -14h-29q-10 0 -13 10l-211 676q-4 14 10 14h29q10 0 13 -10z" />
    <glyph glyph-name="bracketright" unicode="]" horiz-adv-x="370" 
d="M338 -102q0 -12 -12 -12h-177q-12 0 -12 12v23q0 12 12 12h132q4 0 4 4v779q0 4 -4 4h-131q-12 0 -12 12v24q0 12 12 12h176q12 0 12 -12v-858z" />
    <glyph glyph-name="asciicircum" unicode="^" horiz-adv-x="444" 
d="M57 310q-14 0 -9 14l146 367q3 9 14 9h28q11 0 14 -9l147 -367q5 -14 -9 -14h-23q-11 0 -14 9l-126 322q-1 3 -3 3t-3 -3l-126 -322q-3 -9 -14 -9h-22z" />
    <glyph glyph-name="underscore" unicode="_" horiz-adv-x="474" 
d="M44 0q-12 0 -12 12v20q0 12 12 12h387q12 0 12 -12v-20q0 -12 -12 -12h-387z" />
    <glyph glyph-name="grave" unicode="`" horiz-adv-x="189" 
d="M150 592q7 -14 -8 -14h-23q-10 0 -14 8l-64 107q-8 14 8 14h27q10 0 15 -8z" />
    <glyph glyph-name="a" unicode="a" horiz-adv-x="506" 
d="M254 512q88 0 134 -45.5t46 -122.5v-332q0 -12 -12 -12h-29q-12 0 -12 12v43q0 7 -5 2q-54 -65 -161 -65q-70 0 -117 34.5t-47 107.5q0 74 55 117t151 43h120q4 0 4 4v45q0 57 -31 89.5t-97 32.5q-51 0 -84 -20.5t-41 -55.5q-3 -12 -14 -10l-31 4q-13 2 -11 11
q10 53 59 85.5t123 32.5zM225 38q63 0 109.5 31t46.5 86v91q0 4 -4 4h-114q-72 0 -115.5 -30t-43.5 -83q0 -49 34 -74t87 -25z" />
    <glyph glyph-name="b" unicode="b" horiz-adv-x="538" 
d="M460 377q10 -38 10 -126q0 -84 -11 -126q-17 -61 -64 -97t-115 -36q-90 0 -135 69q-3 2 -5 -2v-47q0 -12 -12 -12h-29q-12 0 -12 12v676q0 12 12 12h29q12 0 12 -12v-242q0 -2 2 -3t3 1q46 68 135 68q69 0 116.5 -36.5t63.5 -98.5zM404 133q13 41 13 119q0 84 -16 122
q-12 40 -46 65.5t-81 25.5q-46 0 -78 -25.5t-42 -66.5q-13 -36 -13 -122q0 -83 12 -118q11 -42 42.5 -68t78.5 -26q49 0 84 26t46 68z" />
    <glyph glyph-name="c" unicode="c" horiz-adv-x="516" 
d="M270 -8q-71 0 -120.5 37t-66.5 99q-13 48 -13 125q0 74 13 124q16 61 66 98t121 37t122.5 -36t65.5 -90q4 -12 6 -26q1 -11 -11 -13l-28 -4q-11 -2 -14 11q0 4 -2 12q-9 42 -47 70.5t-92 28.5q-55 0 -91.5 -29t-46.5 -77q-9 -38 -9 -107q0 -70 9 -106q10 -49 46.5 -78
t91.5 -29q54 0 92.5 28.5t46.5 71.5l1 4q2 11 14 9l27 -3q13 -2 11 -14q0 -1 -1 -4t-1.5 -6t-1.5 -6q-14 -56 -65.5 -91.5t-122.5 -35.5z" />
    <glyph glyph-name="d" unicode="d" horiz-adv-x="538" 
d="M398 688q0 12 12 12h29q12 0 12 -12v-676q0 -12 -12 -12h-29q-12 0 -12 12v47q0 3 -2 3.5t-3 -1.5q-45 -69 -135 -69q-68 0 -115 36t-64 97q-11 42 -11 126q0 88 10 126q16 62 63.5 98.5t116.5 36.5q89 0 135 -68q3 -2 5 2v242zM385 133q12 34 12 118q0 86 -13 122
q-10 41 -42 66.5t-78 25.5q-47 0 -81 -25.5t-46 -65.5q-16 -38 -16 -122q0 -78 13 -119q11 -42 46 -68t84 -26q47 0 78.5 26t42.5 68z" />
    <glyph glyph-name="e" unicode="e" horiz-adv-x="531" 
d="M272 38q100 2 136 82q6 10 16 6l18 -7q12 -5 7 -16q-22 -51 -69 -81t-112 -30q-69 0 -116.5 34t-66.5 93q-14 46 -14 134q0 89 8 120q16 63 65.5 101t121.5 38q80 0 129 -42t62 -115q7 -31 7 -107q0 -13 -12 -13h-325q-4 0 -4 -4q0 -63 5 -86q11 -48 49 -77.5t95 -29.5z
M130 361q-5 -19 -7 -79q0 -4 4 -4h279q4 0 4 4q0 51 -5 76q-11 48 -48 77.5t-91 29.5t-90 -28.5t-46 -75.5z" />
    <glyph glyph-name="f" unicode="f" horiz-adv-x="349" 
d="M271 653q-59 0 -80.5 -28t-21.5 -91v-26q0 -4 4 -4h115q12 0 12 -12v-25q0 -12 -12 -12h-115q-4 0 -4 -4v-439q0 -12 -12 -12h-29q-12 0 -12 12v439q0 4 -4 4h-64q-12 0 -12 12v25q0 12 12 12h64q4 0 4 4v28q0 88 32.5 126t118.5 38h24q12 0 12 -12v-23q0 -12 -12 -12
h-20z" />
    <glyph glyph-name="g" unicode="g" horiz-adv-x="530" 
d="M399 492q0 12 12 12h29q12 0 12 -12v-481q0 -220 -258 -210q-12 1 -12 13l1 25q0 13 12 11q106 -3 155 36.5t49 125.5v50q0 3 -1.5 3.5t-3.5 -1.5q-45 -69 -137 -69q-65 0 -114 35.5t-65 97.5q-11 41 -11 123q0 88 12 129q16 59 63 95.5t113 36.5q92 0 139 -68q3 -2 5 2
v46zM394 147q5 24 5 105t-5 107q-8 46 -42.5 76t-86.5 30t-87.5 -30t-48.5 -76q-9 -30 -9 -106q0 -75 9 -106q11 -46 47.5 -76t88.5 -30q54 0 87.5 30t41.5 76z" />
    <glyph glyph-name="h" unicode="h" horiz-adv-x="537" 
d="M286 511q77 0 124 -47t47 -124v-328q0 -12 -12 -12h-29q-12 0 -12 12v318q0 59 -36 96.5t-93 37.5q-61 0 -98 -36.5t-37 -95.5v-320q0 -12 -12 -12h-29q-12 0 -12 12v676q0 12 12 12h29q12 0 12 -12v-243q0 -8 4 -2q45 68 142 68z" />
    <glyph glyph-name="i" unicode="i" horiz-adv-x="242" 
d="M121 605q-20 0 -33 12.5t-13 31.5t13 31t33 12t33 -12t13 -31t-13 -31.5t-33 -12.5zM107 0q-12 0 -12 12v480q0 12 12 12h29q12 0 12 -12v-480q0 -12 -12 -12h-29z" />
    <glyph glyph-name="j" unicode="j" horiz-adv-x="228" 
d="M115 604q-20 0 -32.5 12t-12.5 32t13 32t32 12q21 0 34 -12t13 -32t-12.5 -32t-34.5 -12zM-17 -209q-12 0 -12 12v22q0 12 12 12q106 5 106 108v547q0 12 12 12h29q12 0 12 -12v-547q0 -151 -159 -154z" />
    <glyph glyph-name="k" unicode="k" horiz-adv-x="492" 
d="M99 0q-12 0 -12 12v676q0 12 12 12h29q12 0 12 -12v-425q0 -2 2 -3t3 1l230 237q6 6 15 6h35q8 0 9.5 -4.5t-3.5 -10.5l-125 -133q-2 -2 -1 -5l153 -337q6 -14 -9 -14h-31q-10 0 -14 9l-135 306q-2 4 -5 1l-122 -126q-2 -2 -2 -5v-173q0 -12 -12 -12h-29z" />
    <glyph glyph-name="l" unicode="l" horiz-adv-x="227" 
d="M99 0q-12 0 -12 12v676q0 12 12 12h29q12 0 12 -12v-676q0 -12 -12 -12h-29z" />
    <glyph glyph-name="m" unicode="m" horiz-adv-x="827" 
d="M587 511q73 0 117 -44t44 -121v-334q0 -12 -12 -12h-28q-12 0 -12 12v324q0 59 -34.5 93.5t-89.5 34.5q-58 0 -93.5 -34t-35.5 -92v-326q0 -12 -12 -12h-28q-12 0 -12 12v324q0 59 -34 93.5t-89 34.5q-59 0 -93.5 -34t-34.5 -92v-326q0 -12 -12 -12h-29q-12 0 -12 12v480
q0 12 12 12h29q12 0 12 -12v-43q0 -2 2 -3t3 1q43 64 137 64q107 0 146 -86q2 -5 5 -1q41 87 154 87z" />
    <glyph glyph-name="n" unicode="n" horiz-adv-x="537" 
d="M286 511q77 0 124 -47t47 -124v-328q0 -12 -12 -12h-29q-12 0 -12 12v318q0 59 -36 96.5t-93 37.5q-61 0 -98 -36.5t-37 -95.5v-320q0 -12 -12 -12h-29q-12 0 -12 12v480q0 12 12 12h29q12 0 12 -12v-47q0 -8 4 -2q45 68 142 68z" />
    <glyph glyph-name="o" unicode="o" horiz-adv-x="539" 
d="M270 -8q-71 0 -120.5 37t-67.5 99q-12 40 -12 125q0 80 11 124q18 62 68 98.5t121 36.5q70 0 120.5 -37t67.5 -98q11 -40 11 -124q0 -85 -11 -125q-17 -62 -67.5 -99t-120.5 -37zM270 39q53 0 90.5 29t48.5 78q6 28 6 106q0 80 -6 106q-11 49 -48.5 78t-91.5 29t-91 -29
t-48 -78q-6 -26 -6 -106t6 -106q11 -49 48 -78t92 -29z" />
    <glyph glyph-name="p" unicode="p" horiz-adv-x="545" 
d="M466 379q11 -42 11 -126q0 -88 -10 -126q-16 -62 -63.5 -98.5t-116.5 -36.5q-89 0 -135 68q-3 2 -5 -2v-242q0 -12 -12 -12h-29q-12 0 -12 12v676q0 12 12 12h29q12 0 12 -12v-47q0 -3 1.5 -3.5t3.5 1.5q45 69 135 69q68 0 115 -36t64 -97zM408 130q16 38 16 122
q0 78 -13 119q-11 42 -46 68t-84 26q-47 0 -78.5 -26t-42.5 -68q-12 -34 -12 -118q0 -86 13 -122q10 -41 42 -66.5t78 -25.5q47 0 81 25.5t46 65.5z" />
    <glyph glyph-name="q" unicode="q" horiz-adv-x="545" 
d="M398 492q0 12 12 12h29q12 0 12 -12v-676q0 -12 -12 -12h-29q-12 0 -12 12v242q0 2 -2 3t-3 -1q-46 -68 -135 -68q-69 0 -116.5 36.5t-63.5 98.5q-10 38 -10 126q0 84 11 126q17 61 64 97t115 36q90 0 135 -69q3 -2 5 2v47zM384 131q13 36 13 122q0 84 -12 118
q-11 42 -42.5 68t-78.5 26q-49 0 -84 -26t-46 -68q-13 -41 -13 -119q0 -84 16 -122q12 -40 46 -65.5t81 -25.5q46 0 78 25.5t42 66.5z" />
    <glyph glyph-name="r" unicode="r" horiz-adv-x="359" 
d="M277 508q31 0 57 -11q9 -5 6 -15l-8 -29q-3 -12 -15 -7q-22 7 -48 6q-56 -1 -92.5 -42.5t-36.5 -101.5v-296q0 -12 -12 -12h-29q-12 0 -12 12v480q0 12 12 12h29q12 0 12 -12v-66q0 -3 2 -4l2 3q45 83 133 83z" />
    <glyph glyph-name="s" unicode="s" horiz-adv-x="478" 
d="M244 -5q-81 0 -132 38t-51 93v11q0 12 12 12h28q12 0 12 -10v-11q0 -36 36.5 -63t93.5 -27q56 0 91.5 27t35.5 67q0 21 -9.5 36.5t-34 27.5t-39 17.5t-52.5 16.5q-42 13 -64.5 21.5t-51.5 25.5t-42 41t-13 56q0 61 48.5 97.5t127.5 36.5q80 0 129.5 -37.5t49.5 -95.5v-1
q0 -12 -12 -12h-27q-12 0 -12 7v6q0 38 -35.5 63.5t-93.5 25.5q-56 0 -90 -23.5t-34 -63.5q0 -20 9 -35t30.5 -26.5t39.5 -18t51 -16.5q36 -10 52.5 -15.5t45.5 -19t43 -26.5t25.5 -35.5t11.5 -49.5q0 -63 -49 -101.5t-130 -38.5z" />
    <glyph glyph-name="t" unicode="t" horiz-adv-x="359" 
d="M297 471q0 -12 -12 -12h-115q-4 0 -4 -4v-315q0 -51 23 -71.5t74 -20.5h21q12 0 12 -12v-23q0 -12 -12 -12q-5 0 -14.5 -0.5t-13.5 -0.5q-69 0 -105 27t-37 99v329q0 4 -4 4h-58q-12 0 -12 12v21q0 12 12 12h58q4 0 4 4v112q0 12 12 12h28q12 0 12 -12v-112q0 -4 4 -4
h115q12 0 12 -12v-21z" />
    <glyph glyph-name="u" unicode="u" horiz-adv-x="535" 
d="M396 492q0 12 12 12h28q12 0 12 -12v-480q0 -12 -12 -12h-28q-12 0 -12 12v47q0 3 -2 3.5t-3 -2.5q-44 -67 -140 -67q-74 0 -123 44t-49 121v334q0 12 12 12h28q12 0 12 -12v-320q0 -60 35.5 -96t94.5 -36q61 0 98 36.5t37 95.5v320z" />
    <glyph glyph-name="v" unicode="v" horiz-adv-x="464" 
d="M214 0q-10 0 -13 10l-164 480q-5 14 9 14h34q10 0 13 -10l136 -413q1 -2 3 -2t3 2l136 413q3 10 13 10l34 -1q14 0 9 -14l-164 -479q-3 -10 -13 -10h-36z" />
    <glyph glyph-name="w" unicode="w" horiz-adv-x="705" 
d="M189 0q-11 0 -14 10l-139 480q-4 14 10 14h29q11 0 14 -10l114 -416q1 -2 2.5 -2t2.5 2l115 416q3 10 14 10h28q11 0 14 -10l116 -415q1 -2 3 -2t3 2l115 415q3 10 14 10l29 -1q13 0 10 -13l-141 -480q-3 -10 -13 -10h-31q-11 0 -14 10l-116 398q-1 2 -3 2t-3 -2
l-114 -398q-3 -10 -14 -10h-31z" />
    <glyph glyph-name="x" unicode="x" horiz-adv-x="462" 
d="M42 0q-8 0 -10 4.5t2 10.5l166 234q2 3 0 6l-166 234q-4 6 -2 10.5t10 4.5h31q9 0 14 -8l140 -200q1 -2 3 -2t3 2l139 200q5 8 14 8h34q8 0 10 -4.5t-2 -10.5l-166 -234q-2 -3 0 -6l166 -234q4 -6 2 -10.5t-10 -4.5h-32q-9 0 -14 8l-139 199q-1 1 -3 1t-3 -1l-140 -199
q-5 -8 -14 -8h-33z" />
    <glyph glyph-name="y" unicode="y" horiz-adv-x="449" 
d="M59 -200q-7 0 -7 12v22q0 12 7 12h7q55 1 78.5 28.5t54.5 122.5q2 4 0 6l-170 487q-5 14 10 14h30q10 0 13 -10l142 -417q1 -2 3 -2t3 2l137 417q3 10 13 10h31q15 0 10 -14l-188 -541q-33 -94 -64.5 -121.5t-102.5 -27.5h-7z" />
    <glyph glyph-name="z" unicode="z" horiz-adv-x="442" 
d="M48 0q-12 0 -12 12v29q0 8 5 15l297 394q2 2 1 3.5t-3 1.5h-284q-12 0 -12 12v25q0 12 12 12h340q12 0 12 -12v-29q0 -8 -5 -15l-300 -394q-2 -2 -1 -3.5t3 -1.5h290q12 0 12 -12v-25q0 -12 -12 -12h-343z" />
    <glyph glyph-name="braceleft" unicode="{" horiz-adv-x="283" 
d="M186 -114q-50 0 -72.5 26t-22.5 85v219q0 80 -48 90q-11 3 -11 13v22q0 10 11 13q48 10 48 89v213q0 59 22.5 85.5t72.5 26.5h54q12 0 12 -12v-24q0 -12 -12 -12h-39q-57 0 -57 -77v-201q0 -86 -47 -109q-5 -2 0 -5q47 -25 47 -110v-208q0 -77 57 -77h39q12 0 12 -12v-23
q0 -12 -12 -12h-54z" />
    <glyph glyph-name="bar" unicode="|" horiz-adv-x="156" 
d="M64 -80q-12 0 -12 12v816q0 12 12 12h29q12 0 12 -12v-816q0 -12 -12 -12h-29z" />
    <glyph glyph-name="braceright" unicode="}" horiz-adv-x="283" 
d="M97 -114h-54q-12 0 -12 12v23q0 12 12 12h39q57 0 57 77v208q0 85 47 110q5 3 0 5q-47 23 -47 109v201q0 77 -57 77h-39q-12 0 -12 12v24q0 12 12 12h54q50 0 72.5 -26.5t22.5 -85.5v-213q0 -79 48 -89q11 -3 11 -13v-22q0 -10 -11 -13q-48 -10 -48 -90v-219
q0 -59 -22.5 -85t-72.5 -26z" />
    <glyph glyph-name="asciitilde" unicode="~" horiz-adv-x="492" 
d="M342 239q-13 0 -27 2.5t-20.5 4.5t-22.5 9.5t-17 8.5t-19 11q-44 24 -78 24q-49 0 -76 -40q-8 -9 -17 -3l-14 9q-10 6 -4 16q33 66 110 66q41 0 87 -26q1 -1 10 -6t11 -6l10.5 -5.5t12 -5.5t11.5 -4t13.5 -4t13 -2t15.5 -1q35 0 67 39q8 9 17 3l15 -11q9 -6 5 -16
q-39 -63 -103 -63z" />
    <glyph glyph-name="uni00A0" unicode="&#xa0;" horiz-adv-x="200" 
 />
    <glyph glyph-name="exclamdown" unicode="&#xa1;" horiz-adv-x="316" 
d="M155 708q23 0 39 -15.5t16 -37.5q0 -21 -16.5 -36.5t-38.5 -15.5q-21 0 -37.5 15.5t-16.5 36.5q0 22 15.5 37.5t38.5 15.5zM135 475q0 12 12 12h22q12 0 12 -12l4 -451q0 -12 -12 -12h-29q-12 0 -12 12z" />
    <glyph glyph-name="cent" unicode="&#xa2;" horiz-adv-x="516" 
d="M409 229l1 4q2 11 14 9l27 -3q13 -2 11 -14l-4 -16q-13 -53 -60.5 -88t-113.5 -39q-4 0 -4 -4l1 -66q0 -12 -12 -12h-23q-12 0 -12 12l1 69q0 4 -4 5q-56 9 -95 44t-53 88q-13 48 -13 125q0 74 13 124q14 52 53 87t95 44q4 1 4 5l-1 68q0 12 12 12h23q12 0 12 -12l-1 -65
q0 -4 4 -4q66 -4 113.5 -39.5t60.5 -86.5q4 -12 6 -26q1 -11 -11 -13l-28 -4q-11 -2 -14 11q0 4 -2 12q-9 42 -47 70.5t-92 28.5q-55 0 -91.5 -29t-46.5 -77q-9 -38 -9 -107q0 -70 9 -106q10 -49 46.5 -78t91.5 -29q54 0 92.5 28.5t46.5 71.5z" />
    <glyph glyph-name="sterling" unicode="&#xa3;" horiz-adv-x="605" 
d="M201 51q-3 -5 2 -5h354q12 0 12 -12v-22q0 -12 -12 -12h-413q-12 0 -12 12v24q0 9 8 15q54 33 54 127v132q0 4 -4 4h-76q-12 0 -12 12v20q0 12 12 12h76q4 0 4 4v155q0 87 49 137t137 54q133 6 178 -124q5 -12 -9 -14l-27 -6q-10 -3 -15 9q-32 92 -125 89
q-65 -3 -100 -39.5t-35 -104.5v-156q0 -4 4 -4h192q12 0 12 -12v-20q0 -12 -12 -12h-192q-4 0 -4 -4v-130q0 -83 -46 -129z" />
    <glyph glyph-name="currency" unicode="&#xa4;" horiz-adv-x="508" 
d="M443 301q0 -64 -39 -114q-2 -3 1 -6l63 -63q8 -8 0 -17l-17 -15q-9 -8 -17 0l-62 61q-3 3 -6 1q-50 -39 -116 -39q-62 0 -112 36q-3 2 -6 -1l-58 -58q-8 -8 -17 0l-17 15q-10 8 -1 17l59 58q3 2 1 6q-43 53 -43 119q0 65 40 116q2 3 -1 6l-62 62q-9 9 0 17l17 15
q8 9 17 0l61 -62q3 -3 6 -1q50 39 116 39q67 0 120 -42q3 -2 6 1l64 65q8 9 17 0l17 -15q10 -8 1 -17l-67 -66q-3 -3 -1 -6q36 -49 36 -112zM104 301q0 -60 43 -102.5t103 -42.5t103 42.5t43 102.5t-43 103t-103 43t-103 -43t-43 -103z" />
    <glyph glyph-name="yen" unicode="&#xa5;" horiz-adv-x="689" 
d="M571 700q17 0 9 -14l-195 -340q-3 -5 3 -5h122q12 0 12 -12v-11q0 -12 -12 -12h-135q-4 0 -4 -4v-89q0 -4 4 -4h135q12 0 12 -12v-11q0 -12 -12 -12h-135q-4 0 -4 -4v-158q0 -12 -12 -12h-28q-12 0 -12 12v158q0 4 -4 4h-139q-12 0 -12 12v11q0 12 12 12h139q4 0 4 4v89
q0 4 -4 4h-139q-12 0 -12 12v11q0 12 12 12h126q6 0 3 5l-195 340q-8 14 9 14h29q10 0 15 -8l179 -313q1 -1 3 -1t3 1l179 313q5 8 15 8h29z" />
    <glyph glyph-name="brokenbar" unicode="&#xa6;" horiz-adv-x="156" 
d="M64 397q-12 0 -12 12v339q0 12 12 12h29q12 0 12 -12v-339q0 -12 -12 -12h-29zM64 -80q-12 0 -12 12v339q0 12 12 12h29q12 0 12 -12v-339q0 -12 -12 -12h-29z" />
    <glyph glyph-name="section" unicode="&#xa7;" horiz-adv-x="447" 
d="M225 -207q-69 0 -110 43.5t-42 118.5v16q0 12 12 12h29q12 0 12 -11v-11q1 -56 28.5 -89t72.5 -33t74 33t29 81q0 29 -11 51t-34 36t-39 21t-45 16q-44 15 -72 32t-46 48q-21 36 -21 87q0 55 26 97q30 45 84 59q8 2 0 4q-44 17 -73 57.5t-29 90.5q0 64 44 109.5t113 45.5
q67 0 109.5 -43.5t43.5 -111.5v-12q0 -12 -12 -12h-29q-12 0 -12 10v10q0 49 -28 81t-72 32q-46 0 -75 -34t-29 -81t32.5 -76t93.5 -49q75 -22 107 -64q33 -40 33 -103q0 -55 -25 -99q-29 -50 -79 -59q-6 -1 -1 -3q100 -41 100 -145q0 -67 -45 -111t-114 -44zM224 127
q66 0 95 49q17 29 17 72q0 52 -24 80q-34 42 -86 42q-62 0 -94 -58q-17 -27 -17 -68q0 -43 16 -68q33 -49 93 -49z" />
    <glyph glyph-name="dieresis" unicode="&#xa8;" horiz-adv-x="308" 
d="M74 607q-18 0 -30 11.5t-12 29.5q0 17 12 28.5t30 11.5t29.5 -11.5t11.5 -28.5q0 -18 -11.5 -29.5t-29.5 -11.5zM237 607q-19 0 -31 11.5t-12 29.5q0 17 12 28.5t31 11.5q17 0 28.5 -11.5t11.5 -28.5q0 -18 -11.5 -29.5t-28.5 -11.5z" />
    <glyph glyph-name="copyright" unicode="&#xa9;" horiz-adv-x="882" 
d="M440 -8q-156 0 -258.5 102t-102.5 255q0 155 102.5 257t258.5 102q158 0 260.5 -102t102.5 -257q0 -153 -103 -255t-260 -102zM440 28q141 0 233 91.5t92 229.5q0 139 -92 231t-233 92t-232.5 -92t-91.5 -231q0 -138 92 -229.5t232 -91.5zM442 170q-49 0 -78 27.5
t-29 72.5v160q0 45 29 72t78 27q48 0 77 -26.5t29 -70.5q0 -11 -12 -11h-11q-12 0 -12 7v6q0 28 -20 45.5t-51 17.5q-33 0 -52 -17t-19 -46v-169q0 -29 19.5 -46t51.5 -17q31 0 51 17.5t20 45.5q0 13 12 13h11q12 0 12 -4v-6q0 -44 -29.5 -71t-76.5 -27z" />
    <glyph glyph-name="ordfeminine" unicode="&#xaa;" horiz-adv-x="323" 
d="M162 563h76q4 0 4 4v27q0 37 -21.5 59.5t-63.5 22.5q-67 0 -80 -47q-3 -11 -13 -10l-14 2q-13 2 -10 13q8 33 39.5 53.5t78.5 20.5q58 0 89.5 -30t31.5 -81v-215q0 -12 -12 -12h-13q-12 0 -12 12v21q0 7 -5 2q-33 -40 -101 -40q-48 0 -79 22.5t-31 69.5q0 49 36.5 77.5
t99.5 28.5zM140 395q42 0 72 21t30 58v54q0 4 -4 4h-73q-47 0 -75 -18.5t-28 -53.5q0 -32 21.5 -48.5t56.5 -16.5zM26 283q0 12 12 12h237q12 0 12 -12v-18q0 -12 -12 -12h-237q-12 0 -12 12v18z" />
    <glyph glyph-name="guillemotleft" unicode="&#xab;" horiz-adv-x="548" 
d="M281 122q5 -6 2.5 -10.5t-9.5 -4.5h-27q-9 0 -15 7l-130 159q-6 8 0 16l130 159q6 7 15 7h27q7 0 9.5 -4.5t-2.5 -10.5l-130 -156q-1 -3 0 -6zM436 122q5 -6 2.5 -10.5t-9.5 -4.5h-27q-9 0 -15 7l-130 159q-6 8 0 16l130 159q6 7 15 7h27q7 0 9.5 -4.5t-2.5 -10.5
l-130 -156q-2 -3 0 -6z" />
    <glyph glyph-name="logicalnot" unicode="&#xac;" horiz-adv-x="504" 
d="M42 327q0 12 12 12h396q12 0 12 -12v-144q0 -12 -12 -12h-24q-12 0 -12 12v106q0 4 -4 4h-356q-12 0 -12 12v22z" />
    <glyph glyph-name="uni00AD" unicode="&#xad;" horiz-adv-x="391" 
d="M54 291q-12 0 -12 12v23q0 12 12 12h283q12 0 12 -12v-23q0 -12 -12 -12h-283z" />
    <glyph glyph-name="registered" unicode="&#xae;" horiz-adv-x="453" 
d="M227 715q81 0 137.5 -56.5t56.5 -136.5q0 -81 -56.5 -137t-137.5 -56q-82 0 -138.5 56t-56.5 137q0 80 56.5 136.5t138.5 56.5zM227 358q68 0 116 48t48 116t-48 115.5t-116 47.5q-69 0 -117 -47.5t-48 -115.5t48 -116t117 -48zM288 557q0 -34 -27 -45q-3 -1 -2 -5
l26 -61q5 -14 -9 -14h-5q-11 0 -14 9l-26 64q-1 3 -4 3h-19q-4 0 -4 -4v-60q0 -12 -12 -12h-3q-12 0 -12 12v154q0 12 12 12h48q23 0 37 -15t14 -38zM208 586q-4 0 -4 -4v-49q0 -4 4 -4h26q12 0 19.5 7.5t7.5 20.5q0 29 -27 29h-26z" />
    <glyph glyph-name="macron" unicode="&#xaf;" horiz-adv-x="262" 
d="M12 598q-12 0 -12 12v16q0 12 12 12h238q12 0 12 -12v-16q0 -12 -12 -12h-238z" />
    <glyph glyph-name="degree" unicode="&#xb0;" horiz-adv-x="382" 
d="M191 491q-67 0 -113 46t-46 113t46 112.5t113 45.5t113 -45.5t46 -112.5t-46 -113t-113 -46zM191 531q50 0 84.5 34.5t34.5 84.5t-34.5 84.5t-84.5 34.5t-84.5 -34.5t-34.5 -84.5t34.5 -84.5t84.5 -34.5z" />
    <glyph glyph-name="plusminus" unicode="&#xb1;" horiz-adv-x="504" 
d="M275 368q0 -4 4 -4h171q12 0 12 -12v-22q0 -12 -12 -12h-171q-4 0 -4 -4v-167q0 -12 -12 -12h-22q-12 0 -12 12v167q0 4 -4 4h-171q-12 0 -12 12v22q0 12 12 12h171q4 0 4 4v176q0 12 12 12h22q12 0 12 -12v-176zM54 0q-12 0 -12 12v22q0 12 12 12h396q12 0 12 -12v-22
q0 -12 -12 -12h-396z" />
    <glyph glyph-name="uni00B2" unicode="&#xb2;" horiz-adv-x="322" 
d="M49 449q-12 0 -12 12v15q0 7 5 14l134 165q57 73 57 112q0 32 -22 51.5t-57 19.5t-56.5 -19.5t-20.5 -52.5v-13q0 -12 -12 -12h-17q-12 0 -12 12v18q1 46 34 74.5t84 28.5q54 0 86.5 -30t32.5 -76q0 -51 -56 -124l-124 -155q-3 -5 2 -5h180q12 0 12 -12v-11
q0 -12 -12 -12h-226z" />
    <glyph glyph-name="uni00B3" unicode="&#xb3;" horiz-adv-x="322" 
d="M264 654q15 -33 15 -79q0 -42 -14 -73q-29 -60 -105 -60q-42 0 -71 22t-41 59q-5 17 -7 39q0 12 12 12h17q12 0 12 -12q2 -20 4 -27q5 -26 25 -41.5t49 -15.5q46 0 66 38q13 26 13 59q0 40 -14 66q-20 38 -65 38q-5 0 -15 -2q-11 -3 -17 4l-7 8q-7 9 0 17l102 120
q2 2 1 3.5t-3 1.5h-164q-12 0 -12 12v12q0 12 12 12h208q12 0 12 -12v-16q0 -9 -5 -14l-93 -113q-5 -5 3 -5q56 -5 82 -53z" />
    <glyph glyph-name="acute" unicode="&#xb4;" horiz-adv-x="189" 
d="M47 578q-15 0 -8 14l59 107q5 8 15 8h27q16 0 8 -14l-64 -107q-4 -8 -14 -8h-23z" />
    <glyph glyph-name="uni00B5" unicode="&#xb5;" horiz-adv-x="544" 
d="M404 492q0 12 12 12h28q12 0 12 -12v-480q0 -12 -12 -12h-28q-12 0 -12 12v47q0 3 -2 3.5t-3 -2.5q-44 -67 -140 -67q-67 0 -114 36q-5 3 -5 -2v-215q0 -12 -12 -12h-29q-12 0 -12 12v680q0 12 12 12h29q12 0 12 -12v-339q5 -52 39.5 -82.5t89.5 -30.5q61 0 98 36.5
t37 95.5v320z" />
    <glyph glyph-name="paragraph" unicode="&#xb6;" horiz-adv-x="564" 
d="M249 700h203q12 0 12 -12v-876q0 -12 -12 -12h-18q-12 0 -12 12v842q0 4 -4 4h-135q-4 0 -4 -4v-842q0 -12 -12 -12h-20q-12 0 -12 12v434q0 4 -4 4q-82 5 -137 69t-55 156q0 95 60 160t150 65z" />
    <glyph glyph-name="periodcentered" unicode="&#xb7;" horiz-adv-x="109" 
d="M34 4q-23 0 -38.5 15.5t-15.5 37.5q0 21 16.5 36.5t37.5 15.5q22 0 38.5 -15.5t16.5 -36.5q0 -22 -16 -37.5t-39 -15.5z" />
    <glyph glyph-name="cedilla" unicode="&#xb8;" horiz-adv-x="133" 
d="M11 -181q-11 3 -9 14l2 11q3 12 15 9q62 -13 72 36q9 46 -47 97q-7 5 -6 9.5t9 4.5h13q9 0 15 -5q71 -58 56 -120q-10 -41 -44.5 -52.5t-75.5 -3.5z" />
    <glyph glyph-name="uni00B9" unicode="&#xb9;" horiz-adv-x="182" 
d="M85 866q7 3 15 3h21q12 0 12 -12v-396q0 -12 -12 -12h-17q-12 0 -12 12v363q0 2 -1.5 3.5t-2.5 0.5l-35 -9q-13 -3 -13 10v7q0 10 9 14z" />
    <glyph glyph-name="ordmasculine" unicode="&#xba;" horiz-adv-x="342" 
d="M172 367q-45 0 -76.5 24t-44.5 65q-9 30 -9 82q0 53 8 81q11 41 43.5 65t78.5 24q45 0 77.5 -24t43.5 -65q7 -26 7 -81q0 -56 -7 -82q-11 -41 -43.5 -65t-77.5 -24zM172 401q32 0 54.5 19t29.5 49q5 20 5 69q0 48 -4 68q-8 31 -31 49.5t-55 18.5t-54 -18.5t-30 -49.5
q-5 -19 -5 -68q0 -44 5 -69q8 -31 30 -49.5t55 -18.5zM47 253q-12 0 -12 12v18q0 12 12 12h248q12 0 12 -12v-18q0 -12 -12 -12h-248z" />
    <glyph glyph-name="guillemotright" unicode="&#xbb;" horiz-adv-x="548" 
d="M121 107q-7 0 -9.5 4.5t2.5 10.5l130 156q2 3 0 6l-130 156q-5 6 -2.5 10.5t9.5 4.5h27q9 0 15 -7l130 -159q6 -8 0 -16l-130 -159q-6 -7 -15 -7h-27zM276 107q-7 0 -9.5 4.5t2.5 10.5l130 156q1 3 0 6l-130 156q-5 6 -2.5 10.5t9.5 4.5h27q9 0 15 -7l130 -159
q6 -8 0 -16l-130 -159q-6 -7 -15 -7h-27z" />
    <glyph glyph-name="onequarter" unicode="&#xbc;" horiz-adv-x="788" 
d="M133 292q0 -12 -12 -12h-17q-12 0 -12 12v363q0 2 -1.5 3.5t-2.5 0.5l-35 -9q-13 -3 -13 10v7q0 9 9 14l36 16q7 3 15 3h21q12 0 12 -12v-396zM539 692q5 8 14 8h18q16 0 8 -14l-431 -678q-5 -8 -14 -8h-18q-16 0 -8 14zM739 152q12 0 12 -12v-13q0 -12 -12 -12h-17
q-4 0 -4 -4v-99q0 -12 -12 -12h-17q-12 0 -12 12v99q0 4 -4 4h-172q-12 0 -12 12v12q0 7 3 15l120 257q4 9 14 9h16q15 0 9 -14l-115 -249q-2 -5 3 -5h134q4 0 4 4v91q0 12 12 12h17q12 0 12 -12v-91q0 -4 4 -4h17z" />
    <glyph glyph-name="onehalf" unicode="&#xbd;" horiz-adv-x="781" 
d="M133 292q0 -12 -12 -12h-17q-12 0 -12 12v363q0 2 -1.5 3.5t-2.5 0.5l-35 -9q-13 -3 -13 10v7q0 9 9 14l36 16q7 3 15 3h21q12 0 12 -12v-396zM539 692q5 8 14 8h18q16 0 8 -14l-431 -678q-5 -8 -14 -8h-18q-16 0 -8 14zM552 40q-3 -5 2 -5h180q12 0 12 -12v-11
q0 -12 -12 -12h-226q-12 0 -12 12v15q0 7 5 14l134 165q57 73 57 112q0 32 -22 51.5t-57 19.5t-56.5 -19.5t-20.5 -52.5v-13q0 -12 -12 -12h-17q-12 0 -12 12v18q1 46 34 74.5t84 28.5q54 0 86.5 -30t32.5 -76q0 -51 -56 -124z" />
    <glyph glyph-name="threequarters" unicode="&#xbe;" horiz-adv-x="890" 
d="M265 343q-29 -60 -105 -60q-42 0 -71 22t-41 59q-5 17 -7 39q0 12 12 12h17q12 0 12 -12q2 -20 4 -27q5 -26 25 -41.5t49 -15.5q46 0 66 38q13 26 13 59q0 40 -14 66q-20 38 -65 38q-5 0 -15 -2q-11 -3 -17 4l-7 8q-7 8 0 17l102 120q2 1 1 3t-3 2h-164q-12 0 -12 12v12
q0 12 12 12h208q12 0 12 -12v-16q0 -9 -5 -14l-93 -113q-2 -1 -1 -3t3 -2q57 -5 83 -53q15 -33 15 -79q0 -42 -14 -73zM641 692q5 8 14 8h18q16 0 8 -14l-431 -678q-5 -8 -14 -8h-18q-16 0 -8 14zM841 152q12 0 12 -12v-13q0 -12 -12 -12h-17q-4 0 -4 -4v-99q0 -12 -12 -12
h-17q-12 0 -12 12v99q0 4 -4 4h-172q-12 0 -12 12v12q0 7 3 15l120 257q4 9 14 9h16q15 0 9 -14l-115 -249q-2 -5 3 -5h134q4 0 4 4v91q0 12 12 12h17q12 0 12 -12v-91q0 -4 4 -4h17z" />
    <glyph glyph-name="questiondown" unicode="&#xbf;" horiz-adv-x="445" 
d="M237 497q22 0 37.5 -15t15.5 -36t-15.5 -36t-37.5 -15q-21 0 -37 15t-16 36t16 36t37 15zM256 305q12 0 12 -12v-63q0 -35 -17.5 -62.5t-42 -47.5l-49.5 -40t-42.5 -50t-17.5 -69q0 -55 34 -88t90 -33t91 33.5t35 88.5v32q0 12 12 12l29 -1q12 0 12 -13v-30
q0 -76 -50 -123.5t-130 -47.5t-128 46.5t-48 124.5q0 46 17 82t42 58t49.5 40.5t41.5 41t17 49.5v60q0 12 12 12h31z" />
    <glyph glyph-name="Agrave" unicode="&#xc0;" horiz-adv-x="590" 
d="M308 788q7 -14 -8 -14h-23q-10 0 -14 8l-64 107q-8 14 8 14h27q10 0 15 -8zM511 0q-10 0 -13 10l-43 131q-1 3 -4 3h-312q-3 0 -4 -3l-42 -131q-3 -10 -13 -10h-32q-15 0 -10 14l222 676q3 10 13 10h43q10 0 13 -10l223 -676q5 -14 -10 -14h-31zM151 193q-3 -5 4 -5h280
q7 0 4 5l-142 438q-1 2 -3 2t-3 -2z" />
    <glyph glyph-name="Aacute" unicode="&#xc1;" horiz-adv-x="590" 
d="M362 903q16 0 8 -14l-64 -107q-4 -8 -14 -8h-23q-15 0 -8 14l59 107q5 8 15 8h27zM511 0q-10 0 -13 10l-43 131q-1 3 -4 3h-312q-3 0 -4 -3l-42 -131q-3 -10 -13 -10h-32q-15 0 -10 14l222 676q3 10 13 10h43q10 0 13 -10l223 -676q5 -14 -10 -14h-31zM151 193
q-3 -5 4 -5h280q7 0 4 5l-142 438q-1 2 -3 2t-3 -2z" />
    <glyph glyph-name="Acircumflex" unicode="&#xc2;" horiz-adv-x="590" 
d="M297 859q-1 1 -3 1t-3 -1l-65 -86q-6 -7 -15 -7h-22q-7 0 -9.5 4.5t2.5 10.5l80 104q6 7 15 7h31q9 0 15 -7l81 -104q4 -6 2 -10.5t-10 -4.5h-21q-8 0 -14 7zM511 0q-10 0 -13 10l-43 131q-1 3 -4 3h-312q-3 0 -4 -3l-42 -131q-3 -10 -13 -10h-32q-15 0 -10 14l222 676
q3 10 13 10h43q10 0 13 -10l223 -676q5 -14 -10 -14h-31zM151 193q-3 -5 4 -5h280q7 0 4 5l-142 438q-1 2 -3 2t-3 -2z" />
    <glyph glyph-name="Atilde" unicode="&#xc3;" horiz-adv-x="590" 
d="M251 837q-29 0 -50 -26q-8 -9 -17 -3l-9 6q-10 7 -4 17q29 46 77 46q22 0 60 -23q35 -22 50 -22q30 0 49 29q8 10 17 4l9 -6q10 -7 5 -16q-30 -51 -81 -51q-25 0 -60 24q-28 21 -46 21zM511 0q-10 0 -13 10l-43 131q-1 3 -4 3h-312q-3 0 -4 -3l-42 -131q-3 -10 -13 -10
h-32q-15 0 -10 14l222 676q3 10 13 10h43q10 0 13 -10l223 -676q5 -14 -10 -14h-31zM151 193q-3 -5 4 -5h280q7 0 4 5l-142 438q-1 2 -3 2t-3 -2z" />
    <glyph glyph-name="Adieresis" unicode="&#xc4;" horiz-adv-x="590" 
d="M213 803q-18 0 -30 11.5t-12 29.5q0 17 12 28.5t30 11.5t29.5 -11.5t11.5 -28.5q0 -18 -11.5 -29.5t-29.5 -11.5zM376 803q-19 0 -31 11.5t-12 29.5q0 17 12 28.5t31 11.5q17 0 28.5 -11.5t11.5 -28.5q0 -18 -11.5 -29.5t-28.5 -11.5zM511 0q-10 0 -13 10l-43 131
q-1 3 -4 3h-312q-3 0 -4 -3l-42 -131q-3 -10 -13 -10h-32q-15 0 -10 14l222 676q3 10 13 10h43q10 0 13 -10l223 -676q5 -14 -10 -14h-31zM151 193q-3 -5 4 -5h280q7 0 4 5l-142 438q-1 2 -3 2t-3 -2z" />
    <glyph glyph-name="Aring" unicode="&#xc5;" horiz-adv-x="590" 
d="M294 767q-43 0 -72.5 29.5t-29.5 71.5t29.5 71t72.5 29t73 -29t30 -71t-30 -71.5t-73 -29.5zM294 937q-29 0 -49 -20t-20 -49t20 -49t49 -20t49.5 20t20.5 49t-20.5 49t-49.5 20zM511 0q-10 0 -13 10l-43 131q-1 3 -4 3h-312q-3 0 -4 -3l-42 -131q-3 -10 -13 -10h-32
q-15 0 -10 14l222 676q3 10 13 10h43q10 0 13 -10l223 -676q5 -14 -10 -14h-31zM151 193q-3 -5 4 -5h280q7 0 4 5l-142 438q-1 2 -3 2t-3 -2z" />
    <glyph glyph-name="AE" unicode="&#xc6;" horiz-adv-x="911" 
d="M848 665q0 -12 -12 -12h-344q-4 0 -4 -4v-270q0 -4 4 -4h234q12 0 12 -12v-23q0 -12 -12 -12h-234q-4 0 -4 -4v-273q0 -4 4 -4h344q12 0 12 -12v-23q0 -12 -12 -12h-389q-12 0 -12 12v128q0 4 -4 4h-259q-4 0 -5 -3l-69 -132q-4 -9 -15 -9h-33q-15 0 -8 14l360 677
q4 9 15 9h419q12 0 12 -12v-23zM196 193q-2 -5 2 -5h233q4 0 4 4v444q-1 4 -5 1z" />
    <glyph glyph-name="Ccedilla" unicode="&#xc7;" horiz-adv-x="607" 
d="M536 491q0 -7 -12 -7l-29 -1q-12 0 -12 6v6q0 75 -48 120.5t-127 45.5q-80 0 -128 -45.5t-48 -120.5v-290q0 -75 48.5 -121t127.5 -46t127 46t48 121q0 11 12 11l29 -1q12 0 12 -5v-5q0 -96 -63 -155t-165 -59h-5q-2 0 -3 -1.5t1 -3.5q65 -55 50 -114
q-10 -41 -44.5 -52.5t-75.5 -3.5q-11 3 -9 14l2 11q3 12 15 9q62 -13 72 36q9 46 -47 97l-17 14h1q-78 17 -123.5 73t-45.5 138v285q0 97 63 156t166 59q102 0 165 -58.5t63 -153.5v-5z" />
    <glyph glyph-name="Egrave" unicode="&#xc8;" horiz-adv-x="611" 
d="M334 799q7 -14 -8 -14h-23q-10 0 -14 8l-64 107q-8 14 8 14h27q10 0 15 -8zM548 665q0 -12 -12 -12h-377q-4 0 -4 -4v-270q0 -4 4 -4h267q12 0 12 -12v-23q0 -12 -12 -12h-267q-4 0 -4 -4v-273q0 -4 4 -4h377q12 0 12 -12v-23q0 -12 -12 -12h-422q-12 0 -12 12v676
q0 12 12 12h422q12 0 12 -12v-23z" />
    <glyph glyph-name="Eacute" unicode="&#xc9;" horiz-adv-x="611" 
d="M388 914q16 0 8 -14l-64 -107q-4 -8 -14 -8h-23q-15 0 -8 14l59 107q5 8 15 8h27zM548 665q0 -12 -12 -12h-377q-4 0 -4 -4v-270q0 -4 4 -4h267q12 0 12 -12v-23q0 -12 -12 -12h-267q-4 0 -4 -4v-273q0 -4 4 -4h377q12 0 12 -12v-23q0 -12 -12 -12h-422q-12 0 -12 12v676
q0 12 12 12h422q12 0 12 -12v-23z" />
    <glyph glyph-name="Ecircumflex" unicode="&#xca;" horiz-adv-x="611" 
d="M323 870q-1 2 -3 2t-3 -2l-65 -86q-6 -7 -15 -7h-22q-7 0 -9.5 4.5t2.5 10.5l80 104q6 7 15 7h31q9 0 15 -7l81 -104q4 -6 2 -10.5t-10 -4.5h-21q-8 0 -14 7zM548 665q0 -12 -12 -12h-377q-4 0 -4 -4v-270q0 -4 4 -4h267q12 0 12 -12v-23q0 -12 -12 -12h-267q-4 0 -4 -4
v-273q0 -4 4 -4h377q12 0 12 -12v-23q0 -12 -12 -12h-422q-12 0 -12 12v676q0 12 12 12h422q12 0 12 -12v-23z" />
    <glyph glyph-name="Edieresis" unicode="&#xcb;" horiz-adv-x="611" 
d="M239 814q-18 0 -30 11.5t-12 29.5q0 17 12 28.5t30 11.5t29.5 -11.5t11.5 -28.5q0 -18 -11.5 -29.5t-29.5 -11.5zM402 814q-19 0 -31 11.5t-12 29.5q0 17 12 28.5t31 11.5q17 0 28.5 -11.5t11.5 -28.5q0 -18 -11.5 -29.5t-28.5 -11.5zM548 665q0 -12 -12 -12h-377
q-4 0 -4 -4v-270q0 -4 4 -4h267q12 0 12 -12v-23q0 -12 -12 -12h-267q-4 0 -4 -4v-273q0 -4 4 -4h377q12 0 12 -12v-23q0 -12 -12 -12h-422q-12 0 -12 12v676q0 12 12 12h422q12 0 12 -12v-23z" />
    <glyph glyph-name="Igrave" unicode="&#xcc;" horiz-adv-x="258" 
d="M143 799q7 -14 -8 -14h-23q-10 0 -14 8l-64 107q-8 14 8 14h27q10 0 15 -8zM114 0q-12 0 -12 12v676q0 12 12 12h29q12 0 12 -12v-676q0 -12 -12 -12h-29z" />
    <glyph glyph-name="Iacute" unicode="&#xcd;" horiz-adv-x="258" 
d="M104 785q-15 0 -8 14l59 107q5 8 15 8h27q16 0 8 -14l-64 -107q-4 -8 -14 -8h-23zM114 0q-12 0 -12 12v676q0 12 12 12h29q12 0 12 -12v-676q0 -12 -12 -12h-29z" />
    <glyph glyph-name="Icircumflex" unicode="&#xce;" horiz-adv-x="258" 
d="M24 777q-7 0 -9.5 4.5t2.5 10.5l80 104q6 7 15 7h31q9 0 15 -7l81 -104q4 -6 2 -10.5t-10 -4.5h-21q-8 0 -14 7l-64 86q-1 2 -3 2t-3 -2l-65 -86q-6 -7 -15 -7h-22zM114 0q-12 0 -12 12v676q0 12 12 12h29q12 0 12 -12v-676q0 -12 -12 -12h-29z" />
    <glyph glyph-name="Idieresis" unicode="&#xcf;" horiz-adv-x="258" 
d="M48 814q-18 0 -30 11.5t-12 29.5q0 17 12 28.5t30 11.5t29.5 -11.5t11.5 -28.5q0 -18 -11.5 -29.5t-29.5 -11.5zM211 814q-19 0 -31 11.5t-12 29.5q0 17 12 28.5t31 11.5q17 0 28.5 -11.5t11.5 -28.5q0 -18 -11.5 -29.5t-28.5 -11.5zM114 0q-12 0 -12 12v676q0 12 12 12
h29q12 0 12 -12v-676q0 -12 -12 -12h-29z" />
    <glyph glyph-name="Eth" unicode="&#xd0;" horiz-adv-x="687" 
d="M413 700q96 0 152 -50.5t56 -137.5v-324q0 -87 -56 -137.5t-152 -50.5h-230q-12 0 -12 12v329q0 4 -4 4h-53q-12 0 -12 12v16q0 12 12 12h53q4 0 4 4v299q0 12 12 12h230zM568 194v312q0 68 -40.5 107.5t-111.5 39.5h-188q-4 0 -4 -4v-260q0 -4 4 -4h126q12 0 12 -12v-16
q0 -12 -12 -12h-126q-4 0 -4 -4v-290q0 -4 4 -4h188q70 0 110.5 39.5t41.5 107.5z" />
    <glyph glyph-name="Ntilde" unicode="&#xd1;" horiz-adv-x="677" 
d="M401 803q-25 0 -60 24q-28 21 -46 21q-29 0 -50 -26q-8 -9 -17 -3l-9 6q-10 7 -4 17q29 46 77 46q22 0 60 -23q35 -22 50 -22q30 0 49 29q8 10 17 4l9 -6q11 -7 1 -22q-30 -45 -77 -45zM114 0q-12 0 -12 12v676q0 12 12 12h30q10 0 14 -8l359 -582q1 -3 3 -2.5t2 3.5v577
q0 12 12 12h29q12 0 12 -12v-676q0 -12 -12 -12h-30q-10 0 -14 8l-359 583q-2 3 -3.5 2.5t-1.5 -3.5v-578q0 -12 -12 -12h-29z" />
    <glyph glyph-name="Ograve" unicode="&#xd2;" horiz-adv-x="622" 
d="M324 796q7 -14 -8 -14h-23q-10 0 -14 8l-64 107q-8 14 8 14h27q10 0 15 -8zM310 -8q-104 0 -167.5 62.5t-63.5 164.5v262q0 102 63.5 164.5t167.5 62.5q105 0 169 -62.5t64 -164.5v-262q0 -102 -64 -164.5t-169 -62.5zM310 38q81 0 130.5 49t49.5 130v265
q0 80 -49.5 129.5t-130.5 49.5q-80 0 -129 -49.5t-49 -129.5v-265q0 -81 49 -130t129 -49z" />
    <glyph glyph-name="Oacute" unicode="&#xd3;" horiz-adv-x="622" 
d="M285 782q-15 0 -8 14l59 107q5 8 15 8h27q16 0 8 -14l-64 -107q-4 -8 -14 -8h-23zM310 -8q-104 0 -167.5 62.5t-63.5 164.5v262q0 102 63.5 164.5t167.5 62.5q105 0 169 -62.5t64 -164.5v-262q0 -102 -64 -164.5t-169 -62.5zM310 38q81 0 130.5 49t49.5 130v265
q0 80 -49.5 129.5t-130.5 49.5q-80 0 -129 -49.5t-49 -129.5v-265q0 -81 49 -130t129 -49z" />
    <glyph glyph-name="Ocircumflex" unicode="&#xd4;" horiz-adv-x="622" 
d="M205 774q-7 0 -9.5 4.5t2.5 10.5l80 104q6 7 15 7h31q9 0 15 -7l81 -104q4 -6 2 -10.5t-10 -4.5h-21q-8 0 -14 7l-64 86q-1 1 -3 1t-3 -1l-65 -86q-6 -7 -15 -7h-22zM310 -8q-104 0 -167.5 62.5t-63.5 164.5v262q0 102 63.5 164.5t167.5 62.5q105 0 169 -62.5t64 -164.5
v-262q0 -102 -64 -164.5t-169 -62.5zM310 38q81 0 130.5 49t49.5 130v265q0 80 -49.5 129.5t-130.5 49.5q-80 0 -129 -49.5t-49 -129.5v-265q0 -81 49 -130t129 -49z" />
    <glyph glyph-name="Otilde" unicode="&#xd5;" horiz-adv-x="622" 
d="M373 800q-25 0 -60 24q-28 21 -46 21q-29 0 -50 -26q-8 -9 -17 -3l-9 6q-10 7 -4 17q29 46 77 46q22 0 60 -23q35 -22 50 -22q30 0 49 29q8 10 17 4l9 -6q11 -7 1 -22q-30 -45 -77 -45zM310 -8q-104 0 -167.5 62.5t-63.5 164.5v262q0 102 63.5 164.5t167.5 62.5
q105 0 169 -62.5t64 -164.5v-262q0 -102 -64 -164.5t-169 -62.5zM310 38q81 0 130.5 49t49.5 130v265q0 80 -49.5 129.5t-130.5 49.5q-80 0 -129 -49.5t-49 -129.5v-265q0 -81 49 -130t129 -49z" />
    <glyph glyph-name="Odieresis" unicode="&#xd6;" horiz-adv-x="622" 
d="M229 811q-18 0 -30 11.5t-12 29.5q0 17 12 28.5t30 11.5t29.5 -11.5t11.5 -28.5q0 -18 -11.5 -29.5t-29.5 -11.5zM392 811q-19 0 -31 11.5t-12 29.5q0 17 12 28.5t31 11.5q17 0 28.5 -11.5t11.5 -28.5q0 -18 -11.5 -29.5t-28.5 -11.5zM310 -8q-104 0 -167.5 62.5
t-63.5 164.5v262q0 102 63.5 164.5t167.5 62.5q105 0 169 -62.5t64 -164.5v-262q0 -102 -64 -164.5t-169 -62.5zM310 38q81 0 130.5 49t49.5 130v265q0 80 -49.5 129.5t-130.5 49.5q-80 0 -129 -49.5t-49 -129.5v-265q0 -81 49 -130t129 -49z" />
    <glyph glyph-name="multiply" unicode="&#xd7;" horiz-adv-x="416" 
d="M366 460q8 -8 0 -16l-121 -121q-3 -3 0 -6l118 -118q9 -9 0 -17l-16 -16q-8 -8 -16 0l-118 118q-3 3 -6 0l-121 -121q-8 -9 -17 0l-16 16q-8 8 0 16l121 121q3 3 0 6l-125 125q-8 8 0 16l17 17q8 8 16 0l125 -125q3 -3 6 0l121 121q8 8 16 0z" />
    <glyph glyph-name="Oslash" unicode="&#xd8;" horiz-adv-x="625" 
d="M460 668q-1 -3 2 -5q84 -63 84 -182v-262q0 -102 -64 -164.5t-169 -62.5q-82 0 -139 40q-4 1 -6 -2l-26 -57q-4 -9 -14 -9h-19q-16 0 -10 14l38 81q1 3 -1 5q-54 60 -54 155v262q0 102 63.5 164.5t167.5 62.5q61 0 107 -21q5 -2 6 2l20 45q4 9 14 9h19q15 0 9 -14z
M135 217q0 -54 24 -97q3 -5 5 0l237 517q2 5 -2 6q-37 18 -86 18q-80 0 -129 -49.5t-49 -129.5v-265zM493 217v265q0 83 -52 132q-4 3 -6 -1l-243 -530q-1 -3 2 -5q46 -40 119 -40q81 0 130.5 49t49.5 130z" />
    <glyph glyph-name="Ugrave" unicode="&#xd9;" horiz-adv-x="653" 
d="M340 800q7 -14 -8 -14h-23q-10 0 -14 8l-64 107q-8 14 8 14h27q10 0 15 -8zM326 -8q-104 0 -168 60.5t-64 159.5v476q0 12 12 12h29q12 0 12 -12v-478q0 -77 49.5 -124t129.5 -47q81 0 130 47t49 124v478q0 12 12 12h29q12 0 12 -12v-476q0 -99 -63.5 -159.5
t-168.5 -60.5z" />
    <glyph glyph-name="Uacute" unicode="&#xda;" horiz-adv-x="653" 
d="M301 786q-15 0 -8 14l59 107q5 8 15 8h27q16 0 8 -14l-64 -107q-4 -8 -14 -8h-23zM326 -8q-104 0 -168 60.5t-64 159.5v476q0 12 12 12h29q12 0 12 -12v-478q0 -77 49.5 -124t129.5 -47q81 0 130 47t49 124v478q0 12 12 12h29q12 0 12 -12v-476q0 -99 -63.5 -159.5
t-168.5 -60.5z" />
    <glyph glyph-name="Ucircumflex" unicode="&#xdb;" horiz-adv-x="653" 
d="M221 778q-7 0 -9.5 4.5t2.5 10.5l80 104q6 7 15 7h31q9 0 15 -7l81 -104q4 -6 2 -10.5t-10 -4.5h-21q-8 0 -14 7l-64 86q-1 1 -3 1t-3 -1l-65 -86q-6 -7 -15 -7h-22zM326 -8q-104 0 -168 60.5t-64 159.5v476q0 12 12 12h29q12 0 12 -12v-478q0 -77 49.5 -124t129.5 -47
q81 0 130 47t49 124v478q0 12 12 12h29q12 0 12 -12v-476q0 -99 -63.5 -159.5t-168.5 -60.5z" />
    <glyph glyph-name="Udieresis" unicode="&#xdc;" horiz-adv-x="653" 
d="M245 815q-18 0 -30 11.5t-12 29.5q0 17 12 28.5t30 11.5t29.5 -11.5t11.5 -28.5q0 -18 -11.5 -29.5t-29.5 -11.5zM408 815q-19 0 -31 11.5t-12 29.5q0 17 12 28.5t31 11.5q17 0 28.5 -11.5t11.5 -28.5q0 -18 -11.5 -29.5t-28.5 -11.5zM326 -8q-104 0 -168 60.5t-64 159.5
v476q0 12 12 12h29q12 0 12 -12v-478q0 -77 49.5 -124t129.5 -47q81 0 130 47t49 124v478q0 12 12 12h29q12 0 12 -12v-476q0 -99 -63.5 -159.5t-168.5 -60.5z" />
    <glyph glyph-name="Yacute" unicode="&#xdd;" horiz-adv-x="554" 
d="M252 773q-15 0 -8 14l59 107q5 8 15 8h27q16 0 8 -14l-64 -107q-4 -8 -14 -8h-23zM263 0q-12 0 -12 12v306q0 4 -1 5l-208 363q-8 14 9 14h29q10 0 15 -8l179 -313q1 -1 3 -1t3 1l179 313q5 8 15 8h29q17 0 9 -14l-208 -363q-1 -1 -1 -5v-306q0 -12 -12 -12h-28z" />
    <glyph glyph-name="Thorn" unicode="&#xde;" horiz-adv-x="564" 
d="M336 539q85 0 137 -52.5t52 -137.5t-53 -136.5t-138 -51.5h-182q-4 0 -4 -4v-145q0 -12 -12 -12h-29q-12 0 -12 12v676q0 12 12 12h29q12 0 12 -12v-145q0 -4 4 -4h184zM331 206q63 0 102 39t39 103q0 66 -39 105t-102 39h-179q-4 0 -4 -4v-278q0 -4 4 -4h179z" />
    <glyph glyph-name="germandbls" unicode="&#xdf;" horiz-adv-x="584" 
d="M99 0q-12 0 -12 12v505q1 89 57.5 140.5t146.5 51.5q102 0 158 -47.5t58 -134.5q1 -56 -23.5 -96t-68.5 -57q-6 -2 0 -4q46 -19 72 -65.5t26 -112.5q0 -91 -58.5 -141.5t-173.5 -50.5h-76q-12 0 -12 12v22q0 12 12 12h81q87 0 130.5 39t43.5 111q0 150 -151 154h-76
q-12 0 -12 12v19q0 12 12 12h77q73 0 109.5 35t34.5 98q-5 137 -160 137q-66 0 -109.5 -38t-44.5 -105v-508q0 -12 -12 -12h-29z" />
    <glyph glyph-name="agrave" unicode="&#xe0;" horiz-adv-x="506" 
d="M270 600q7 -14 -8 -14h-23q-10 0 -14 8l-64 107q-8 14 8 14h27q10 0 15 -8zM254 512q88 0 134 -45.5t46 -122.5v-332q0 -12 -12 -12h-29q-12 0 -12 12v43q0 7 -5 2q-54 -65 -161 -65q-70 0 -117 34.5t-47 107.5q0 74 55 117t151 43h120q4 0 4 4v45q0 57 -31 89.5
t-97 32.5q-51 0 -84 -20.5t-41 -55.5q-3 -12 -14 -10l-31 4q-13 2 -11 11q10 53 59 85.5t123 32.5zM225 38q63 0 109.5 31t46.5 86v91q0 4 -4 4h-114q-72 0 -115.5 -30t-43.5 -83q0 -49 34 -74t87 -25z" />
    <glyph glyph-name="aacute" unicode="&#xe1;" horiz-adv-x="506" 
d="M324 715q16 0 8 -14l-64 -107q-4 -8 -14 -8h-23q-15 0 -8 14l59 107q5 8 15 8h27zM254 512q88 0 134 -45.5t46 -122.5v-332q0 -12 -12 -12h-29q-12 0 -12 12v43q0 7 -5 2q-54 -65 -161 -65q-70 0 -117 34.5t-47 107.5q0 74 55 117t151 43h120q4 0 4 4v45q0 57 -31 89.5
t-97 32.5q-51 0 -84 -20.5t-41 -55.5q-3 -12 -14 -10l-31 4q-13 2 -11 11q10 53 59 85.5t123 32.5zM225 38q63 0 109.5 31t46.5 86v91q0 4 -4 4h-114q-72 0 -115.5 -30t-43.5 -83q0 -49 34 -74t87 -25z" />
    <glyph glyph-name="acircumflex" unicode="&#xe2;" horiz-adv-x="506" 
d="M259 671q-1 1 -3 1t-3 -1l-65 -86q-6 -7 -15 -7h-22q-7 0 -9.5 4.5t2.5 10.5l80 104q6 7 15 7h31q9 0 15 -7l81 -104q4 -6 2 -10.5t-10 -4.5h-21q-8 0 -14 7zM254 512q88 0 134 -45.5t46 -122.5v-332q0 -12 -12 -12h-29q-12 0 -12 12v43q0 7 -5 2q-54 -65 -161 -65
q-70 0 -117 34.5t-47 107.5q0 74 55 117t151 43h120q4 0 4 4v45q0 57 -31 89.5t-97 32.5q-51 0 -84 -20.5t-41 -55.5q-3 -12 -14 -10l-31 4q-13 2 -11 11q10 53 59 85.5t123 32.5zM225 38q63 0 109.5 31t46.5 86v91q0 4 -4 4h-114q-72 0 -115.5 -30t-43.5 -83q0 -49 34 -74
t87 -25z" />
    <glyph glyph-name="atilde" unicode="&#xe3;" horiz-adv-x="506" 
d="M213 649q-29 0 -50 -26q-8 -9 -17 -3l-9 6q-10 7 -4 17q29 46 77 46q22 0 60 -23q35 -22 50 -22q30 0 49 29q8 10 17 4l9 -6q10 -7 5 -16q-30 -51 -81 -51q-25 0 -60 24q-28 21 -46 21zM254 512q88 0 134 -45.5t46 -122.5v-332q0 -12 -12 -12h-29q-12 0 -12 12v43
q0 7 -5 2q-54 -65 -161 -65q-70 0 -117 34.5t-47 107.5q0 74 55 117t151 43h120q4 0 4 4v45q0 57 -31 89.5t-97 32.5q-51 0 -84 -20.5t-41 -55.5q-3 -12 -14 -10l-31 4q-13 2 -11 11q10 53 59 85.5t123 32.5zM225 38q63 0 109.5 31t46.5 86v91q0 4 -4 4h-114
q-72 0 -115.5 -30t-43.5 -83q0 -49 34 -74t87 -25z" />
    <glyph glyph-name="adieresis" unicode="&#xe4;" horiz-adv-x="506" 
d="M175 615q-18 0 -30 11.5t-12 29.5q0 17 12 28.5t30 11.5t29.5 -11.5t11.5 -28.5q0 -18 -11.5 -29.5t-29.5 -11.5zM338 615q-19 0 -31 11.5t-12 29.5q0 17 12 28.5t31 11.5q17 0 28.5 -11.5t11.5 -28.5q0 -18 -11.5 -29.5t-28.5 -11.5zM254 512q88 0 134 -45.5t46 -122.5
v-332q0 -12 -12 -12h-29q-12 0 -12 12v43q0 7 -5 2q-54 -65 -161 -65q-70 0 -117 34.5t-47 107.5q0 74 55 117t151 43h120q4 0 4 4v45q0 57 -31 89.5t-97 32.5q-51 0 -84 -20.5t-41 -55.5q-3 -12 -14 -10l-31 4q-13 2 -11 11q10 53 59 85.5t123 32.5zM225 38q63 0 109.5 31
t46.5 86v91q0 4 -4 4h-114q-72 0 -115.5 -30t-43.5 -83q0 -49 34 -74t87 -25z" />
    <glyph glyph-name="aring" unicode="&#xe5;" horiz-adv-x="506" 
d="M256 579q-43 0 -72.5 29.5t-29.5 71.5t29.5 71t72.5 29t73 -29t30 -71t-30 -71.5t-73 -29.5zM256 749q-29 0 -49 -20t-20 -49t20 -49t49 -20t49.5 20t20.5 49t-20.5 49t-49.5 20zM254 512q88 0 134 -45.5t46 -122.5v-332q0 -12 -12 -12h-29q-12 0 -12 12v43q0 7 -5 2
q-54 -65 -161 -65q-70 0 -117 34.5t-47 107.5q0 74 55 117t151 43h120q4 0 4 4v45q0 57 -31 89.5t-97 32.5q-51 0 -84 -20.5t-41 -55.5q-3 -12 -14 -10l-31 4q-13 2 -11 11q10 53 59 85.5t123 32.5zM225 38q63 0 109.5 31t46.5 86v91q0 4 -4 4h-114q-72 0 -115.5 -30
t-43.5 -83q0 -49 34 -74t87 -25z" />
    <glyph glyph-name="ae" unicode="&#xe6;" horiz-adv-x="831" 
d="M222 -8q-73 0 -122 33.5t-49 105.5q0 73 54.5 113.5t151.5 40.5h120q4 0 4 4v51q0 57 -32 91t-98 34q-49 0 -82.5 -20.5t-42.5 -55.5q-3 -11 -14 -9l-29 4q-13 2 -10 13q11 51 59.5 83t119.5 32q61 0 101.5 -25t57.5 -67q2 -5 5 0q19 40 61 66t96 26q68 0 118 -37.5
t65 -98.5q9 -33 9 -124q0 -13 -12 -13h-314q-4 0 -4 -4q0 -50 1 -79q1 -55 42 -84.5t102 -29.5q96 0 132 80q4 10 15 6l19 -8q12 -5 7 -16q-19 -50 -66.5 -81t-112.5 -31q-58 0 -101.5 23.5t-61.5 65.5q-2 7 -4 1q-20 -43 -70.5 -66.5t-114.5 -23.5zM434 289q0 -4 4 -4h270
q4 0 4 4q0 50 -4 69q-10 48 -46.5 77.5t-89.5 29.5q-52 0 -88.5 -30t-44.5 -77q-3 -16 -5 -69zM227 36q62 0 108 30t46 87v82q0 4 -4 4h-115q-72 0 -115 -26.5t-43 -77.5q0 -48 34 -73.5t89 -25.5z" />
    <glyph glyph-name="ccedilla" unicode="&#xe7;" horiz-adv-x="516" 
d="M409 139l1 4q2 11 14 9l27 -3q13 -2 11 -14q0 -1 -1 -4t-1.5 -6t-1.5 -6q-13 -53 -59 -87.5t-112 -39.5q-6 0 -2 -4q64 -56 50 -115q-10 -41 -44.5 -52.5t-75.5 -3.5q-11 3 -9 14l2 11q3 12 15 9q62 -13 72 36q11 51 -59 106q-1 2 -5 2q-56 10 -95 45t-53 88
q-13 48 -13 125q0 74 13 124q16 61 66 98t121 37t122.5 -36t65.5 -90q4 -12 6 -26q1 -11 -11 -13l-28 -4q-11 -2 -14 11q0 4 -2 12q-9 42 -47 70.5t-92 28.5q-55 0 -91.5 -29t-46.5 -77q-9 -38 -9 -107q0 -70 9 -106q10 -49 46.5 -78t91.5 -29q54 0 92.5 28.5t46.5 71.5z
" />
    <glyph glyph-name="egrave" unicode="&#xe8;" horiz-adv-x="531" 
d="M279 600q7 -14 -8 -14h-23q-10 0 -14 8l-64 107q-8 14 8 14h27q10 0 15 -8zM272 38q100 2 136 82q6 10 16 6l18 -7q12 -5 7 -16q-22 -51 -69 -81t-112 -30q-69 0 -116.5 34t-66.5 93q-14 46 -14 134q0 89 8 120q16 63 65.5 101t121.5 38q80 0 129 -42t62 -115
q7 -31 7 -107q0 -13 -12 -13h-325q-4 0 -4 -4q0 -63 5 -86q11 -48 49 -77.5t95 -29.5zM130 361q-5 -19 -7 -79q0 -4 4 -4h279q4 0 4 4q0 51 -5 76q-11 48 -48 77.5t-91 29.5t-90 -28.5t-46 -75.5z" />
    <glyph glyph-name="eacute" unicode="&#xe9;" horiz-adv-x="531" 
d="M333 715q16 0 8 -14l-64 -107q-4 -8 -14 -8h-23q-15 0 -8 14l59 107q5 8 15 8h27zM272 38q100 2 136 82q6 10 16 6l18 -7q12 -5 7 -16q-22 -51 -69 -81t-112 -30q-69 0 -116.5 34t-66.5 93q-14 46 -14 134q0 89 8 120q16 63 65.5 101t121.5 38q80 0 129 -42t62 -115
q7 -31 7 -107q0 -13 -12 -13h-325q-4 0 -4 -4q0 -63 5 -86q11 -48 49 -77.5t95 -29.5zM130 361q-5 -19 -7 -79q0 -4 4 -4h279q4 0 4 4q0 51 -5 76q-11 48 -48 77.5t-91 29.5t-90 -28.5t-46 -75.5z" />
    <glyph glyph-name="ecircumflex" unicode="&#xea;" horiz-adv-x="531" 
d="M268 671q-1 1 -3 1t-3 -1l-65 -86q-6 -7 -15 -7h-22q-7 0 -9.5 4.5t2.5 10.5l80 104q6 7 15 7h31q9 0 15 -7l81 -104q4 -6 2 -10.5t-10 -4.5h-21q-8 0 -14 7zM272 38q100 2 136 82q6 10 16 6l18 -7q12 -5 7 -16q-22 -51 -69 -81t-112 -30q-69 0 -116.5 34t-66.5 93
q-14 46 -14 134q0 89 8 120q16 63 65.5 101t121.5 38q80 0 129 -42t62 -115q7 -31 7 -107q0 -13 -12 -13h-325q-4 0 -4 -4q0 -63 5 -86q11 -48 49 -77.5t95 -29.5zM130 361q-5 -19 -7 -79q0 -4 4 -4h279q4 0 4 4q0 51 -5 76q-11 48 -48 77.5t-91 29.5t-90 -28.5t-46 -75.5z
" />
    <glyph glyph-name="edieresis" unicode="&#xeb;" horiz-adv-x="531" 
d="M184 615q-18 0 -30 11.5t-12 29.5q0 17 12 28.5t30 11.5t29.5 -11.5t11.5 -28.5q0 -18 -11.5 -29.5t-29.5 -11.5zM347 615q-19 0 -31 11.5t-12 29.5q0 17 12 28.5t31 11.5q17 0 28.5 -11.5t11.5 -28.5q0 -18 -11.5 -29.5t-28.5 -11.5zM272 38q100 2 136 82q6 10 16 6
l18 -7q12 -5 7 -16q-22 -51 -69 -81t-112 -30q-69 0 -116.5 34t-66.5 93q-14 46 -14 134q0 89 8 120q16 63 65.5 101t121.5 38q80 0 129 -42t62 -115q7 -31 7 -107q0 -13 -12 -13h-325q-4 0 -4 -4q0 -63 5 -86q11 -48 49 -77.5t95 -29.5zM130 361q-5 -19 -7 -79q0 -4 4 -4
h279q4 0 4 4q0 51 -5 76q-11 48 -48 77.5t-91 29.5t-90 -28.5t-46 -75.5z" />
    <glyph glyph-name="igrave" unicode="&#xec;" horiz-adv-x="216" 
d="M120 601q7 -14 -8 -14h-23q-10 0 -14 8l-64 107q-8 14 8 14h27q10 0 15 -8zM92 0q-12 0 -12 12v480q0 12 12 12h29q12 0 12 -12v-480q0 -12 -12 -12h-29z" />
    <glyph glyph-name="iacute" unicode="&#xed;" horiz-adv-x="216" 
d="M81 587q-15 0 -8 14l59 107q5 8 15 8h27q16 0 8 -14l-64 -107q-4 -8 -14 -8h-23zM92 0q-12 0 -12 12v480q0 12 12 12h29q12 0 12 -12v-480q0 -12 -12 -12h-29z" />
    <glyph glyph-name="icircumflex" unicode="&#xee;" horiz-adv-x="216" 
d="M1 579q-7 0 -9.5 4.5t2.5 10.5l80 104q6 7 15 7h31q9 0 15 -7l81 -104q4 -6 2 -10.5t-10 -4.5h-21q-8 0 -14 7l-64 86q-1 2 -3 2t-3 -2l-65 -86q-6 -7 -15 -7h-22zM92 0q-12 0 -12 12v480q0 12 12 12h29q12 0 12 -12v-480q0 -12 -12 -12h-29z" />
    <glyph glyph-name="idieresis" unicode="&#xef;" horiz-adv-x="292" 
d="M64 617q-18 0 -30 11.5t-12 29.5q0 17 12 28.5t30 11.5t29.5 -11.5t11.5 -28.5q0 -18 -11.5 -29.5t-29.5 -11.5zM227 617q-19 0 -31 11.5t-12 29.5q0 17 12 28.5t31 11.5q17 0 28.5 -11.5t11.5 -28.5q0 -18 -11.5 -29.5t-28.5 -11.5zM133 0q-12 0 -12 12v480q0 12 12 12
h29q12 0 12 -12v-480q0 -12 -12 -12h-29z" />
    <glyph glyph-name="eth" unicode="&#xf0;" horiz-adv-x="523" 
d="M446 353q5 -39 5 -107q0 -91 -8 -122q-16 -59 -66 -95.5t-119 -36.5q-68 0 -116.5 36t-65.5 96q-9 33 -9 123q0 89 9 120q13 53 54 87t99 37q94 7 144 -40q2 -2 3 -1t0 3q-20 62 -74 128q-2 4 -5 2l-86 -27q-11 -4 -15 8l-3 11q-3 11 8 14l68 21q5 2 1 6q-43 43 -74 69
q-7 6 -5 10.5t10 4.5h32q9 0 15 -6q55 -50 70 -65q2 -2 5 -1l72 22q12 3 15 -8l3 -11q3 -12 -8 -15l-54 -17q-4 -1 -3 -4q86 -99 98 -242zM392 141q5 21 5 104t-5 103q-10 47 -46 76t-88 29t-87.5 -29t-44.5 -76q-6 -25 -6 -103q0 -80 6 -104q10 -48 45 -77t87 -29t88 29.5
t46 76.5z" />
    <glyph glyph-name="ntilde" unicode="&#xf1;" horiz-adv-x="537" 
d="M226 641q-29 0 -50 -26q-8 -9 -17 -3l-9 6q-10 7 -4 17q29 46 77 46q22 0 60 -23q35 -22 50 -22q30 0 49 29q8 10 17 4l9 -6q10 -7 5 -16q-30 -51 -81 -51q-25 0 -60 24q-28 21 -46 21zM286 511q77 0 124 -47t47 -124v-328q0 -12 -12 -12h-29q-12 0 -12 12v318
q0 59 -36 96.5t-93 37.5q-61 0 -98 -36.5t-37 -95.5v-320q0 -12 -12 -12h-29q-12 0 -12 12v480q0 12 12 12h29q12 0 12 -12v-47q0 -8 4 -2q45 68 142 68z" />
    <glyph glyph-name="ograve" unicode="&#xf2;" horiz-adv-x="539" 
d="M283 600q7 -14 -8 -14h-23q-10 0 -14 8l-64 107q-8 14 8 14h27q10 0 15 -8zM270 -8q-71 0 -120.5 37t-67.5 99q-12 40 -12 125q0 80 11 124q18 62 68 98.5t121 36.5q70 0 120.5 -37t67.5 -98q11 -40 11 -124q0 -85 -11 -125q-17 -62 -67.5 -99t-120.5 -37zM270 39
q53 0 90.5 29t48.5 78q6 28 6 106q0 80 -6 106q-11 49 -48.5 78t-91.5 29t-91 -29t-48 -78q-6 -26 -6 -106t6 -106q11 -49 48 -78t92 -29z" />
    <glyph glyph-name="oacute" unicode="&#xf3;" horiz-adv-x="539" 
d="M244 586q-15 0 -8 14l59 107q5 8 15 8h27q16 0 8 -14l-64 -107q-4 -8 -14 -8h-23zM270 -8q-71 0 -120.5 37t-67.5 99q-12 40 -12 125q0 80 11 124q18 62 68 98.5t121 36.5q70 0 120.5 -37t67.5 -98q11 -40 11 -124q0 -85 -11 -125q-17 -62 -67.5 -99t-120.5 -37zM270 39
q53 0 90.5 29t48.5 78q6 28 6 106q0 80 -6 106q-11 49 -48.5 78t-91.5 29t-91 -29t-48 -78q-6 -26 -6 -106t6 -106q11 -49 48 -78t92 -29z" />
    <glyph glyph-name="ocircumflex" unicode="&#xf4;" horiz-adv-x="539" 
d="M164 578q-7 0 -9.5 4.5t2.5 10.5l80 104q6 7 15 7h31q9 0 15 -7l81 -104q4 -6 2 -10.5t-10 -4.5h-21q-8 0 -14 7l-64 86q-1 1 -3 1t-3 -1l-65 -86q-6 -7 -15 -7h-22zM270 -8q-71 0 -120.5 37t-67.5 99q-12 40 -12 125q0 80 11 124q18 62 68 98.5t121 36.5q70 0 120.5 -37
t67.5 -98q11 -40 11 -124q0 -85 -11 -125q-17 -62 -67.5 -99t-120.5 -37zM270 39q53 0 90.5 29t48.5 78q6 28 6 106q0 80 -6 106q-11 49 -48.5 78t-91.5 29t-91 -29t-48 -78q-6 -26 -6 -106t6 -106q11 -49 48 -78t92 -29z" />
    <glyph glyph-name="otilde" unicode="&#xf5;" horiz-adv-x="539" 
d="M332 604q-25 0 -60 24q-28 21 -46 21q-29 0 -50 -26q-8 -9 -17 -3l-9 6q-10 7 -4 17q29 46 77 46q22 0 60 -23q35 -22 50 -22q30 0 49 29q8 10 17 4l9 -6q11 -7 1 -22q-30 -45 -77 -45zM270 -8q-71 0 -120.5 37t-67.5 99q-12 40 -12 125q0 80 11 124q18 62 68 98.5
t121 36.5q70 0 120.5 -37t67.5 -98q11 -40 11 -124q0 -85 -11 -125q-17 -62 -67.5 -99t-120.5 -37zM270 39q53 0 90.5 29t48.5 78q6 28 6 106q0 80 -6 106q-11 49 -48.5 78t-91.5 29t-91 -29t-48 -78q-6 -26 -6 -106t6 -106q11 -49 48 -78t92 -29z" />
    <glyph glyph-name="odieresis" unicode="&#xf6;" horiz-adv-x="539" 
d="M188 615q-18 0 -30 11.5t-12 29.5q0 17 12 28.5t30 11.5t29.5 -11.5t11.5 -28.5q0 -18 -11.5 -29.5t-29.5 -11.5zM351 615q-19 0 -31 11.5t-12 29.5q0 17 12 28.5t31 11.5q17 0 28.5 -11.5t11.5 -28.5q0 -18 -11.5 -29.5t-28.5 -11.5zM270 -8q-71 0 -120.5 37t-67.5 99
q-12 40 -12 125q0 80 11 124q18 62 68 98.5t121 36.5q70 0 120.5 -37t67.5 -98q11 -40 11 -124q0 -85 -11 -125q-17 -62 -67.5 -99t-120.5 -37zM270 39q53 0 90.5 29t48.5 78q6 28 6 106q0 80 -6 106q-11 49 -48.5 78t-91.5 29t-91 -29t-48 -78q-6 -26 -6 -106t6 -106
q11 -49 48 -78t92 -29z" />
    <glyph glyph-name="divide" unicode="&#xf7;" horiz-adv-x="504" 
d="M251 446q-20 0 -34 14t-14 34q0 19 14 33t34 14t34.5 -14t14.5 -33q0 -20 -14.5 -34t-34.5 -14zM54 305q-12 0 -12 12v22q0 12 12 12h396q12 0 12 -12v-22q0 -12 -12 -12h-396zM251 134q-20 0 -34 14t-14 34t14.5 34t33.5 14q20 0 34.5 -14.5t14.5 -33.5t-14.5 -33.5
t-34.5 -14.5z" />
    <glyph glyph-name="oslash" unicode="&#xf8;" horiz-adv-x="544" 
d="M463 377q11 -40 11 -124q0 -85 -11 -125q-17 -62 -67.5 -99t-120.5 -37q-71 0 -123 38q-3 3 -5 0l-33 -51q-7 -12 -17 -3l-17 12q-9 6 -3 17l38 58q1 3 0 6q-19 24 -28 59q-12 40 -12 125q0 80 11 124q18 62 68 98.5t121 36.5q63 0 110 -29q4 -2 5 1l27 42q7 12 17 3
l17 -12q10 -7 4 -17l-30 -46q-2 -3 0 -5q26 -31 38 -72zM135 146q2 -10 10 -28q1 -4 5 0l209 318q2 4 -1 5q-36 24 -84 24q-54 0 -91 -29t-48 -78q-6 -26 -6 -106t6 -106zM414 146q6 28 6 106q0 80 -6 106q-6 25 -18 44q-4 4 -6 0l-212 -325q-2 -4 1 -5q38 -33 96 -33
q53 0 90.5 29t48.5 78z" />
    <glyph glyph-name="ugrave" unicode="&#xf9;" horiz-adv-x="535" 
d="M281 592q7 -14 -8 -14h-23q-10 0 -14 8l-64 107q-8 14 8 14h27q10 0 15 -8zM396 492q0 12 12 12h28q12 0 12 -12v-480q0 -12 -12 -12h-28q-12 0 -12 12v47q0 3 -2 3.5t-3 -2.5q-44 -67 -140 -67q-74 0 -123 44t-49 121v334q0 12 12 12h28q12 0 12 -12v-320
q0 -60 35.5 -96t94.5 -36q61 0 98 36.5t37 95.5v320z" />
    <glyph glyph-name="uacute" unicode="&#xfa;" horiz-adv-x="535" 
d="M335 707q16 0 8 -14l-64 -107q-4 -8 -14 -8h-23q-15 0 -8 14l59 107q5 8 15 8h27zM396 492q0 12 12 12h28q12 0 12 -12v-480q0 -12 -12 -12h-28q-12 0 -12 12v47q0 3 -2 3.5t-3 -2.5q-44 -67 -140 -67q-74 0 -123 44t-49 121v334q0 12 12 12h28q12 0 12 -12v-320
q0 -60 35.5 -96t94.5 -36q61 0 98 36.5t37 95.5v320z" />
    <glyph glyph-name="ucircumflex" unicode="&#xfb;" horiz-adv-x="535" 
d="M270 663q-1 1 -3 1t-3 -1l-65 -86q-6 -7 -15 -7h-22q-7 0 -9.5 4.5t2.5 10.5l80 104q6 7 15 7h31q9 0 15 -7l81 -104q4 -6 2 -10.5t-10 -4.5h-21q-8 0 -14 7zM396 492q0 12 12 12h28q12 0 12 -12v-480q0 -12 -12 -12h-28q-12 0 -12 12v47q0 3 -2 3.5t-3 -2.5
q-44 -67 -140 -67q-74 0 -123 44t-49 121v334q0 12 12 12h28q12 0 12 -12v-320q0 -60 35.5 -96t94.5 -36q61 0 98 36.5t37 95.5v320z" />
    <glyph glyph-name="udieresis" unicode="&#xfc;" horiz-adv-x="535" 
d="M186 607q-18 0 -30 11.5t-12 29.5q0 17 12 28.5t30 11.5t29.5 -11.5t11.5 -28.5q0 -18 -11.5 -29.5t-29.5 -11.5zM349 607q-19 0 -31 11.5t-12 29.5q0 17 12 28.5t31 11.5q17 0 28.5 -11.5t11.5 -28.5q0 -18 -11.5 -29.5t-28.5 -11.5zM396 492q0 12 12 12h28q12 0 12 -12
v-480q0 -12 -12 -12h-28q-12 0 -12 12v47q0 3 -2 3.5t-3 -2.5q-44 -67 -140 -67q-74 0 -123 44t-49 121v334q0 12 12 12h28q12 0 12 -12v-320q0 -60 35.5 -96t94.5 -36q61 0 98 36.5t37 95.5v320z" />
    <glyph glyph-name="yacute" unicode="&#xfd;" horiz-adv-x="449" 
d="M200 580q-15 0 -8 14l59 107q5 8 15 8h27q16 0 8 -14l-64 -107q-4 -8 -14 -8h-23zM59 -200q-7 0 -7 12v22q0 12 7 12h7q55 1 78.5 28.5t54.5 122.5q2 4 0 6l-170 487q-5 14 10 14h30q10 0 13 -10l142 -417q1 -2 3 -2t3 2l137 417q3 10 13 10h31q15 0 10 -14l-188 -541
q-33 -94 -64.5 -121.5t-102.5 -27.5h-7z" />
    <glyph glyph-name="thorn" unicode="&#xfe;" horiz-adv-x="534" 
d="M457 377q10 -38 10 -126q0 -84 -11 -126q-17 -61 -64 -97t-115 -36q-87 0 -132 64q-3 3 -5 -1v-243q0 -12 -12 -12h-29q-12 0 -12 12v876q0 12 12 12h29q12 0 12 -12v-239q0 -2 2 -2.5t3 1.5q45 64 132 64q69 0 116.5 -36.5t63.5 -98.5zM401 133q13 41 13 119
q0 84 -16 122q-12 40 -46 65.5t-81 25.5q-46 0 -78 -25.5t-42 -66.5q-9 -26 -11 -54v-135q2 -30 10 -51q11 -42 42.5 -68t78.5 -26q49 0 84 26t46 68z" />
    <glyph glyph-name="ydieresis" unicode="&#xff;" horiz-adv-x="449" 
d="M144 609q-18 0 -30 11.5t-12 29.5q0 17 12 28.5t30 11.5t29.5 -11.5t11.5 -28.5q0 -18 -11.5 -29.5t-29.5 -11.5zM307 609q-19 0 -31 11.5t-12 29.5q0 17 12 28.5t31 11.5q17 0 28.5 -11.5t11.5 -28.5q0 -18 -11.5 -29.5t-28.5 -11.5zM59 -200q-7 0 -7 12v22q0 12 7 12h7
q55 1 78.5 28.5t54.5 122.5q2 4 0 6l-170 487q-5 14 10 14h30q10 0 13 -10l142 -417q1 -2 3 -2t3 2l137 417q3 10 13 10h31q15 0 10 -14l-188 -541q-33 -94 -64.5 -121.5t-102.5 -27.5h-7z" />
    <glyph glyph-name="Amacron" unicode="&#x100;" horiz-adv-x="590" 
d="M413 834q12 0 12 -12v-16q0 -12 -12 -12h-238q-12 0 -12 12v16q0 12 12 12h238zM511 0q-10 0 -13 10l-43 131q-1 3 -4 3h-312q-3 0 -4 -3l-42 -131q-3 -10 -13 -10h-32q-15 0 -10 14l222 676q3 10 13 10h43q10 0 13 -10l223 -676q5 -14 -10 -14h-31zM151 193q-3 -5 4 -5
h280q7 0 4 5l-142 438q-1 2 -3 2t-3 -2z" />
    <glyph glyph-name="amacron" unicode="&#x101;" horiz-adv-x="506" 
d="M375 646q12 0 12 -12v-16q0 -12 -12 -12h-238q-12 0 -12 12v16q0 12 12 12h238zM254 512q88 0 134 -45.5t46 -122.5v-332q0 -12 -12 -12h-29q-12 0 -12 12v43q0 7 -5 2q-54 -65 -161 -65q-70 0 -117 34.5t-47 107.5q0 74 55 117t151 43h120q4 0 4 4v45q0 57 -31 89.5
t-97 32.5q-51 0 -84 -20.5t-41 -55.5q-3 -12 -14 -10l-31 4q-13 2 -11 11q10 53 59 85.5t123 32.5zM225 38q63 0 109.5 31t46.5 86v91q0 4 -4 4h-114q-72 0 -115.5 -30t-43.5 -83q0 -49 34 -74t87 -25z" />
    <glyph glyph-name="Abreve" unicode="&#x102;" horiz-adv-x="590" 
d="M294 756q-40 0 -69.5 26t-34.5 65q-2 12 11 12h11q12 0 13 -12q4 -25 23.5 -42t45.5 -17t46 17t24 42q2 12 13 12h11q12 0 11 -12q-5 -39 -34.5 -65t-70.5 -26zM511 0q-10 0 -13 10l-43 131q-1 3 -4 3h-312q-3 0 -4 -3l-42 -131q-3 -10 -13 -10h-32q-15 0 -10 14l222 676
q3 10 13 10h43q10 0 13 -10l223 -676q5 -14 -10 -14h-31zM151 193q-3 -5 4 -5h280q7 0 4 5l-142 438q-1 2 -3 2t-3 -2z" />
    <glyph glyph-name="abreve" unicode="&#x103;" horiz-adv-x="506" 
d="M256 568q-40 0 -69.5 26t-34.5 65q-2 12 11 12h11q12 0 13 -12q4 -25 23.5 -42t45.5 -17t46 17t24 42q2 12 13 12h11q12 0 11 -12q-5 -39 -34.5 -65t-70.5 -26zM254 512q88 0 134 -45.5t46 -122.5v-332q0 -12 -12 -12h-29q-12 0 -12 12v43q0 7 -5 2q-54 -65 -161 -65
q-70 0 -117 34.5t-47 107.5q0 74 55 117t151 43h120q4 0 4 4v45q0 57 -31 89.5t-97 32.5q-51 0 -84 -20.5t-41 -55.5q-3 -12 -14 -10l-31 4q-13 2 -11 11q10 53 59 85.5t123 32.5zM225 38q63 0 109.5 31t46.5 86v91q0 4 -4 4h-114q-72 0 -115.5 -30t-43.5 -83q0 -49 34 -74
t87 -25z" />
    <glyph glyph-name="Aogonek" unicode="&#x104;" horiz-adv-x="620" 
d="M558 -147q11 3 14 -9l2 -10q3 -12 -8 -15q-41 -8 -75.5 3.5t-44.5 52.5q-15 65 59 122q3 2 0 4q-6 4 -7 9l-43 131q-1 3 -4 3h-312q-3 0 -4 -3l-42 -131q-3 -10 -13 -10h-32q-15 0 -10 14l222 676q3 10 13 10h43q10 0 13 -10l223 -676q1 -4 2 -7.5t1 -5t-1 -1.5
q-3 0 -5 -2q-74 -55 -63 -109q10 -49 72 -36zM151 193q-3 -5 4 -5h280q7 0 4 5l-142 438q-1 2 -3 2t-3 -2z" />
    <glyph glyph-name="aogonek" unicode="&#x105;" horiz-adv-x="600" 
d="M443 -147q11 3 14 -9l2 -10q3 -12 -8 -15q-41 -8 -75.5 3.5t-44.5 52.5q-15 65 58 121l5 4h-1q-12 0 -12 12v43q0 7 -5 2q-54 -65 -161 -65q-70 0 -117 34.5t-47 107.5q0 74 55 117t151 43h120q4 0 4 4v45q0 57 -31 89.5t-97 32.5q-51 0 -84 -20.5t-41 -55.5
q-3 -12 -14 -10l-31 4q-13 2 -10 14q11 52 60 83.5t121 31.5q88 0 134 -45.5t46 -122.5v-341q0 -4 -2 -5q0 -1 -14 -12q-56 -51 -47 -97q10 -49 72 -36zM225 38q63 0 109.5 31t46.5 86v91q0 4 -4 4h-114q-72 0 -115.5 -30t-43.5 -83q0 -49 34 -74t87 -25z" />
    <glyph glyph-name="Cacute" unicode="&#x106;" horiz-adv-x="607" 
d="M283 782q-15 0 -8 14l59 107q5 8 15 8h27q16 0 8 -14l-64 -107q-4 -8 -14 -8h-23zM308 -9q-103 0 -166 59.5t-63 157.5v285q0 97 63 156t166 59q102 0 165 -58.5t63 -153.5q0 -12 -12 -12l-29 -1q-12 0 -12 6v6q0 75 -48 120.5t-127 45.5q-80 0 -128 -45.5t-48 -120.5
v-290q0 -75 48.5 -121t127.5 -46t127 46t48 121q0 11 12 11l29 -1q12 0 12 -5v-5q0 -96 -63 -155t-165 -59z" />
    <glyph glyph-name="cacute" unicode="&#x107;" horiz-adv-x="516" 
d="M244 586q-15 0 -8 14l59 107q5 8 15 8h27q16 0 8 -14l-64 -107q-4 -8 -14 -8h-23zM270 -8q-71 0 -120.5 37t-66.5 99q-13 48 -13 125q0 74 13 124q16 61 66 98t121 37t122.5 -36t65.5 -90q4 -12 6 -26q1 -11 -11 -13l-28 -4q-11 -2 -14 11q0 4 -2 12q-9 42 -47 70.5
t-92 28.5q-55 0 -91.5 -29t-46.5 -77q-9 -38 -9 -107q0 -70 9 -106q10 -49 46.5 -78t91.5 -29q54 0 92.5 28.5t46.5 71.5l1 4q2 11 14 9l27 -3q13 -2 11 -14q0 -1 -1 -4t-1.5 -6t-1.5 -6q-14 -56 -65.5 -91.5t-122.5 -35.5z" />
    <glyph glyph-name="Cdotaccent" unicode="&#x10a;" horiz-adv-x="607" 
d="M308 795q-18 0 -29.5 11t-11.5 28t11.5 27.5t29.5 10.5q16 0 27 -11t11 -27q0 -17 -10.5 -28t-27.5 -11zM308 -9q-103 0 -166 59.5t-63 157.5v285q0 97 63 156t166 59q102 0 165 -58.5t63 -153.5q0 -12 -12 -12l-29 -1q-12 0 -12 6v6q0 75 -48 120.5t-127 45.5
q-80 0 -128 -45.5t-48 -120.5v-290q0 -75 48.5 -121t127.5 -46t127 46t48 121q0 11 12 11l29 -1q12 0 12 -5v-5q0 -96 -63 -155t-165 -59z" />
    <glyph glyph-name="cdotaccent" unicode="&#x10b;" horiz-adv-x="516" 
d="M269 599q-18 0 -29.5 11t-11.5 28t11.5 27.5t29.5 10.5q17 0 27.5 -11t10.5 -27q0 -17 -10.5 -28t-27.5 -11zM270 -8q-71 0 -120.5 37t-66.5 99q-13 48 -13 125q0 74 13 124q16 61 66 98t121 37t122.5 -36t65.5 -90q4 -12 6 -26q1 -11 -11 -13l-28 -4q-11 -2 -14 11
q0 4 -2 12q-9 42 -47 70.5t-92 28.5q-55 0 -91.5 -29t-46.5 -77q-9 -38 -9 -107q0 -70 9 -106q10 -49 46.5 -78t91.5 -29q54 0 92.5 28.5t46.5 71.5l1 4q2 11 14 9l27 -3q13 -2 11 -14q0 -1 -1 -4t-1.5 -6t-1.5 -6q-14 -56 -65.5 -91.5t-122.5 -35.5z" />
    <glyph glyph-name="Ccaron" unicode="&#x10c;" horiz-adv-x="607" 
d="M290 771q-8 0 -14 7l-78 104q-5 6 -2.5 10.5t9.5 4.5h20q9 0 15 -7l65 -86q1 -2 3 -2t3 2l65 86q6 7 14 7h20q7 0 9.5 -4.5t-2.5 -10.5l-79 -104q-6 -7 -14 -7h-34zM308 -9q-103 0 -166 59.5t-63 157.5v285q0 97 63 156t166 59q102 0 165 -58.5t63 -153.5q0 -12 -12 -12
l-29 -1q-12 0 -12 6v6q0 75 -48 120.5t-127 45.5q-80 0 -128 -45.5t-48 -120.5v-290q0 -75 48.5 -121t127.5 -46t127 46t48 121q0 11 12 11l29 -1q12 0 12 -5v-5q0 -96 -63 -155t-165 -59z" />
    <glyph glyph-name="ccaron" unicode="&#x10d;" horiz-adv-x="516" 
d="M251 575q-8 0 -14 7l-78 104q-5 6 -2.5 10.5t9.5 4.5h20q9 0 15 -7l65 -86q1 -2 3 -2t3 2l65 86q6 7 14 7h20q7 0 9.5 -4.5t-2.5 -10.5l-79 -104q-6 -7 -14 -7h-34zM270 -8q-71 0 -120.5 37t-66.5 99q-13 48 -13 125q0 74 13 124q16 61 66 98t121 37t122.5 -36t65.5 -90
q4 -12 6 -26q1 -11 -11 -13l-28 -4q-11 -2 -14 11q0 4 -2 12q-9 42 -47 70.5t-92 28.5q-55 0 -91.5 -29t-46.5 -77q-9 -38 -9 -107q0 -70 9 -106q10 -49 46.5 -78t91.5 -29q54 0 92.5 28.5t46.5 71.5l1 4q2 11 14 9l27 -3q13 -2 11 -14q0 -1 -1 -4t-1.5 -6t-1.5 -6
q-14 -56 -65.5 -91.5t-122.5 -35.5z" />
    <glyph glyph-name="Dcaron" unicode="&#x10e;" horiz-adv-x="618" 
d="M295 760q-8 0 -14 7l-78 104q-5 6 -2.5 10.5t9.5 4.5h20q9 0 15 -7l65 -86q1 -1 3 -1t3 1l65 86q6 7 14 7h20q7 0 9.5 -4.5t-2.5 -10.5l-79 -104q-6 -7 -14 -7h-34zM114 0q-12 0 -12 12v676q0 12 12 12h230q96 0 152 -50.5t56 -137.5v-324q0 -87 -56 -137.5t-152 -50.5
h-230zM155 51q0 -4 4 -4h188q70 0 110.5 39.5t41.5 107.5v312q0 68 -40.5 107.5t-111.5 39.5h-188q-4 0 -4 -4v-598z" />
    <glyph glyph-name="dcaron" unicode="&#x10f;" horiz-adv-x="619" 
d="M564 699q5 8 15 8h27q16 0 8 -14l-64 -107q-4 -8 -14 -8h-23q-15 0 -8 14zM393 444q3 -2 5 2v242q0 12 12 12h29q12 0 12 -12v-676q0 -12 -12 -12h-29q-12 0 -12 12v47q0 3 -2 3.5t-3 -1.5q-45 -69 -135 -69q-68 0 -115 36t-64 97q-11 42 -11 126q0 88 10 126
q16 62 63.5 98.5t116.5 36.5q89 0 135 -68zM385 133q12 34 12 118q0 86 -13 122q-10 41 -42 66.5t-78 25.5q-47 0 -81 -25.5t-46 -65.5q-16 -38 -16 -122q0 -78 13 -119q11 -42 46 -68t84 -26q47 0 78.5 26t42.5 68z" />
    <glyph glyph-name="Dcroat" unicode="&#x110;" horiz-adv-x="687" 
d="M413 700q96 0 152 -50.5t56 -137.5v-324q0 -87 -56 -137.5t-152 -50.5h-230q-12 0 -12 12v329q0 4 -4 4h-53q-12 0 -12 12v16q0 12 12 12h53q4 0 4 4v299q0 12 12 12h230zM568 194v312q0 68 -40.5 107.5t-111.5 39.5h-188q-4 0 -4 -4v-260q0 -4 4 -4h126q12 0 12 -12v-16
q0 -12 -12 -12h-126q-4 0 -4 -4v-290q0 -4 4 -4h188q70 0 110.5 39.5t41.5 107.5z" />
    <glyph glyph-name="dcroat" unicode="&#x111;" horiz-adv-x="600" 
d="M520 614q12 0 12 -12v-14q0 -12 -12 -12h-65q-4 0 -4 -4v-560q0 -12 -12 -12h-29q-12 0 -12 12v47q0 3 -2 3.5t-3 -1.5q-45 -69 -135 -69q-68 0 -115 36t-64 97q-11 42 -11 126q0 88 10 126q16 62 63.5 98.5t116.5 36.5q89 0 135 -68q3 -2 5 2v126q0 4 -4 4h-158
q-12 0 -12 12v14q0 12 12 12h158q4 0 4 4v70q0 12 12 12h29q12 0 12 -12v-70q0 -4 4 -4h65zM385 133q12 34 12 118q0 86 -13 122q-10 41 -42 66.5t-78 25.5q-47 0 -81 -25.5t-46 -65.5q-16 -38 -16 -122q0 -78 13 -119q11 -42 46 -68t84 -26q47 0 78.5 26t42.5 68z" />
    <glyph glyph-name="Emacron" unicode="&#x112;" horiz-adv-x="611" 
d="M439 845q12 0 12 -12v-16q0 -12 -12 -12h-238q-12 0 -12 12v16q0 12 12 12h238zM548 665q0 -12 -12 -12h-377q-4 0 -4 -4v-270q0 -4 4 -4h267q12 0 12 -12v-23q0 -12 -12 -12h-267q-4 0 -4 -4v-273q0 -4 4 -4h377q12 0 12 -12v-23q0 -12 -12 -12h-422q-12 0 -12 12v676
q0 12 12 12h422q12 0 12 -12v-23z" />
    <glyph glyph-name="emacron" unicode="&#x113;" horiz-adv-x="531" 
d="M384 646q12 0 12 -12v-16q0 -12 -12 -12h-238q-12 0 -12 12v16q0 12 12 12h238zM272 38q100 2 136 82q6 10 16 6l18 -7q12 -5 7 -16q-22 -51 -69 -81t-112 -30q-69 0 -116.5 34t-66.5 93q-14 46 -14 134q0 89 8 120q16 63 65.5 101t121.5 38q80 0 129 -42t62 -115
q7 -31 7 -107q0 -13 -12 -13h-325q-4 0 -4 -4q0 -63 5 -86q11 -48 49 -77.5t95 -29.5zM130 361q-5 -19 -7 -79q0 -4 4 -4h279q4 0 4 4q0 51 -5 76q-11 48 -48 77.5t-91 29.5t-90 -28.5t-46 -75.5z" />
    <glyph glyph-name="Edotaccent" unicode="&#x116;" horiz-adv-x="611" 
d="M320 798q-18 0 -29.5 11t-11.5 28t11.5 27.5t29.5 10.5q16 0 27 -10.5t11 -27.5t-10.5 -28t-27.5 -11zM548 665q0 -12 -12 -12h-377q-4 0 -4 -4v-270q0 -4 4 -4h267q12 0 12 -12v-23q0 -12 -12 -12h-267q-4 0 -4 -4v-273q0 -4 4 -4h377q12 0 12 -12v-23q0 -12 -12 -12
h-422q-12 0 -12 12v676q0 12 12 12h422q12 0 12 -12v-23z" />
    <glyph glyph-name="edotaccent" unicode="&#x117;" horiz-adv-x="531" 
d="M265 599q-18 0 -29.5 11t-11.5 28t11.5 27.5t29.5 10.5q17 0 27.5 -11t10.5 -27q0 -17 -10.5 -28t-27.5 -11zM272 38q100 2 136 82q6 10 16 6l18 -7q12 -5 7 -16q-22 -51 -69 -81t-112 -30q-69 0 -116.5 34t-66.5 93q-14 46 -14 134q0 89 8 120q16 63 65.5 101t121.5 38
q80 0 129 -42t62 -115q7 -31 7 -107q0 -13 -12 -13h-325q-4 0 -4 -4q0 -63 5 -86q11 -48 49 -77.5t95 -29.5zM130 361q-5 -19 -7 -79q0 -4 4 -4h279q4 0 4 4q0 51 -5 76q-11 48 -48 77.5t-91 29.5t-90 -28.5t-46 -75.5z" />
    <glyph glyph-name="Eogonek" unicode="&#x118;" horiz-adv-x="611" 
d="M548 665q0 -12 -12 -12h-377q-4 0 -4 -4v-270q0 -4 4 -4h267q12 0 12 -12v-23q0 -12 -12 -12h-267q-4 0 -4 -4v-273q0 -4 4 -4h377q12 0 12 -12v-23q0 -12 -12 -12h-188q-3 0 -5 -2q-63 -53 -54 -102q10 -49 72 -36q11 3 14 -9l2 -10q3 -12 -8 -15q-41 -8 -75.5 3.5
t-44.5 52.5q-15 59 48 113q5 5 -2 5h-181q-12 0 -12 12v676q0 12 12 12h422q12 0 12 -12v-23z" />
    <glyph glyph-name="eogonek" unicode="&#x119;" horiz-adv-x="531" 
d="M272 38q100 2 136 82q6 10 16 6l18 -7q12 -5 7 -16q-20 -46 -61 -75.5t-97 -34.5q-3 0 -5 -2q-64 -53 -55 -103q10 -49 72 -36q11 3 14 -9l2 -10q3 -12 -8 -15q-41 -8 -75.5 3.5t-44.5 52.5q-14 59 50 115q5 3 -2 5q-58 7 -97.5 39.5t-56.5 85.5q-14 46 -14 134
q0 89 8 120q16 63 65.5 101t121.5 38q80 0 129 -42t62 -115q7 -31 7 -107q0 -13 -12 -13h-325q-4 0 -4 -4q0 -63 5 -86q11 -48 49 -77.5t95 -29.5zM130 361q-5 -19 -7 -79q0 -4 4 -4h279q4 0 4 4q0 51 -5 76q-11 48 -48 77.5t-91 29.5t-90 -28.5t-46 -75.5z" />
    <glyph glyph-name="Ecaron" unicode="&#x11a;" horiz-adv-x="611" 
d="M350 781q-6 -7 -14 -7h-34q-8 0 -14 7l-78 104q-5 6 -2.5 10.5t9.5 4.5h20q9 0 15 -7l65 -86q1 -1 3 -1t3 1l65 86q6 7 14 7h20q7 0 9.5 -4.5t-2.5 -10.5zM548 665q0 -12 -12 -12h-377q-4 0 -4 -4v-270q0 -4 4 -4h267q12 0 12 -12v-23q0 -12 -12 -12h-267q-4 0 -4 -4
v-273q0 -4 4 -4h377q12 0 12 -12v-23q0 -12 -12 -12h-422q-12 0 -12 12v676q0 12 12 12h422q12 0 12 -12v-23z" />
    <glyph glyph-name="ecaron" unicode="&#x11b;" horiz-adv-x="531" 
d="M295 574q-6 -7 -14 -7h-34q-8 0 -14 7l-78 104q-5 6 -2.5 10.5t9.5 4.5h20q9 0 15 -7l65 -86q1 -2 3 -2t3 2l65 86q6 7 14 7h20q7 0 9.5 -4.5t-2.5 -10.5zM272 38q100 2 136 82q6 10 16 6l18 -7q12 -5 7 -16q-22 -51 -69 -81t-112 -30q-69 0 -116.5 34t-66.5 93
q-14 46 -14 134q0 89 8 120q16 63 65.5 101t121.5 38q80 0 129 -42t62 -115q7 -31 7 -107q0 -13 -12 -13h-325q-4 0 -4 -4q0 -63 5 -86q11 -48 49 -77.5t95 -29.5zM130 361q-5 -19 -7 -79q0 -4 4 -4h279q4 0 4 4q0 51 -5 76q-11 48 -48 77.5t-91 29.5t-90 -28.5t-46 -75.5z
" />
    <glyph glyph-name="Gbreve" unicode="&#x11e;" horiz-adv-x="605" 
d="M306 764q-40 0 -69.5 26t-34.5 65q-2 12 11 12h11q12 0 13 -12q4 -25 23.5 -42t45.5 -17t46 17t24 42q2 12 13 12h11q12 0 11 -12q-5 -39 -34.5 -65t-70.5 -26zM308 -8q-103 0 -166 59t-63 155v288q0 97 62.5 155.5t166.5 58.5q101 0 164 -58t63 -150v-12q0 -12 -12 -12
h-29q-12 0 -12 12v11q0 72 -48 117t-126 45q-79 0 -127.5 -45.5t-48.5 -119.5v-292q0 -74 48.5 -119.5t128.5 -45.5q78 0 125.5 43.5t47.5 115.5v101q0 4 -4 4h-154q-12 0 -12 12v23q0 12 12 12h199q12 0 12 -12v-128q0 -101 -62 -159.5t-165 -58.5z" />
    <glyph glyph-name="gbreve" unicode="&#x11f;" horiz-adv-x="530" 
d="M272 569q-40 0 -69.5 26t-34.5 65q-2 12 11 12h11q12 0 13 -12q4 -25 23.5 -42t45.5 -17t46 17t24 42q2 12 13 12h11q12 0 11 -12q-5 -39 -34.5 -65t-70.5 -26zM399 492q0 12 12 12h29q12 0 12 -12v-481q0 -220 -258 -210q-12 1 -12 13l1 25q0 13 12 11q106 -3 155 36.5
t49 125.5v50q0 3 -1.5 3.5t-3.5 -1.5q-45 -69 -137 -69q-65 0 -114 35.5t-65 97.5q-11 41 -11 123q0 88 12 129q16 59 63 95.5t113 36.5q92 0 139 -68q3 -2 5 2v46zM394 147q5 24 5 105t-5 107q-8 46 -42.5 76t-86.5 30t-87.5 -30t-48.5 -76q-9 -30 -9 -106q0 -75 9 -106
q11 -46 47.5 -76t88.5 -30q54 0 87.5 30t41.5 76z" />
    <glyph glyph-name="Gdotaccent" unicode="&#x120;" horiz-adv-x="605" 
d="M306 795q-18 0 -29.5 11t-11.5 28t11.5 27.5t29.5 10.5q16 0 27 -11t11 -27q0 -17 -10.5 -28t-27.5 -11zM308 -8q-103 0 -166 59t-63 155v288q0 97 62.5 155.5t166.5 58.5q101 0 164 -58t63 -150v-12q0 -12 -12 -12h-29q-12 0 -12 12v11q0 72 -48 117t-126 45
q-79 0 -127.5 -45.5t-48.5 -119.5v-292q0 -74 48.5 -119.5t128.5 -45.5q78 0 125.5 43.5t47.5 115.5v101q0 4 -4 4h-154q-12 0 -12 12v23q0 12 12 12h199q12 0 12 -12v-128q0 -101 -62 -159.5t-165 -58.5z" />
    <glyph glyph-name="gdotaccent" unicode="&#x121;" horiz-adv-x="530" 
d="M272 600q-18 0 -29.5 11t-11.5 28t11.5 27.5t29.5 10.5q16 0 27 -10.5t11 -27.5t-10.5 -28t-27.5 -11zM399 492q0 12 12 12h29q12 0 12 -12v-481q0 -220 -258 -210q-12 1 -12 13l1 25q0 13 12 11q106 -3 155 36.5t49 125.5v50q0 3 -1.5 3.5t-3.5 -1.5q-45 -69 -137 -69
q-65 0 -114 35.5t-65 97.5q-11 41 -11 123q0 88 12 129q16 59 63 95.5t113 36.5q92 0 139 -68q3 -2 5 2v46zM394 147q5 24 5 105t-5 107q-8 46 -42.5 76t-86.5 30t-87.5 -30t-48.5 -76q-9 -30 -9 -106q0 -75 9 -106q11 -46 47.5 -76t88.5 -30q54 0 87.5 30t41.5 76z" />
    <glyph glyph-name="uni0122" unicode="&#x122;" horiz-adv-x="605" 
d="M308 -8q-103 0 -166 59t-63 155v288q0 97 62.5 155.5t166.5 58.5q101 0 164 -58t63 -150v-12q0 -12 -12 -12h-29q-12 0 -12 12v11q0 72 -48 117t-126 45q-79 0 -127.5 -45.5t-48.5 -119.5v-292q0 -74 48.5 -119.5t128.5 -45.5q78 0 125.5 43.5t47.5 115.5v101q0 4 -4 4
h-154q-12 0 -12 12v23q0 12 12 12h199q12 0 12 -12v-128q0 -101 -62 -159.5t-165 -58.5zM255 -196q-15 0 -8 14l59 107q5 8 15 8h27q16 0 8 -14l-64 -107q-4 -8 -14 -8h-23z" />
    <glyph glyph-name="uni0123" unicode="&#x123;" horiz-adv-x="530" 
d="M323 701q15 0 8 -14l-59 -107q-5 -8 -15 -8h-27q-16 0 -8 14l64 107q4 8 14 8h23zM399 492q0 12 12 12h29q12 0 12 -12v-481q0 -220 -258 -210q-12 1 -12 13l1 25q0 13 12 11q106 -3 155 36.5t49 125.5v50q0 3 -1.5 3.5t-3.5 -1.5q-45 -69 -137 -69q-65 0 -114 35.5
t-65 97.5q-11 41 -11 123q0 88 12 129q16 59 63 95.5t113 36.5q92 0 139 -68q3 -2 5 2v46zM394 147q5 24 5 105t-5 107q-8 46 -42.5 76t-86.5 30t-87.5 -30t-48.5 -76q-9 -30 -9 -106q0 -75 9 -106q11 -46 47.5 -76t88.5 -30q54 0 87.5 30t41.5 76z" />
    <glyph glyph-name="Hbar" unicode="&#x126;" horiz-adv-x="661" 
d="M610 549q12 0 12 -12v-17q0 -12 -12 -12h-46q-4 0 -4 -4v-492q0 -12 -12 -12h-29q-12 0 -12 12v312q0 4 -4 4h-344q-4 0 -4 -4v-312q0 -12 -12 -12h-29q-12 0 -12 12v492q0 4 -4 4h-45q-12 0 -12 12v17q0 12 12 12h45q4 0 4 4v135q0 12 12 12h29q12 0 12 -12v-135
q0 -4 4 -4h344q4 0 4 4v135q0 12 12 12h29q12 0 12 -12v-135q0 -4 4 -4h46zM503 375q4 0 4 4v125q0 4 -4 4h-344q-4 0 -4 -4v-125q0 -4 4 -4h344z" />
    <glyph glyph-name="hbar" unicode="&#x127;" horiz-adv-x="537" 
d="M286 511q77 0 124 -47t47 -124v-328q0 -12 -12 -12h-29q-12 0 -12 12v318q0 59 -36 96.5t-93 37.5q-61 0 -98 -36.5t-37 -95.5v-320q0 -12 -12 -12h-29q-12 0 -12 12v544q0 4 -4 4h-58q-12 0 -12 12v14q0 12 12 12h58q4 0 4 4v86q0 12 12 12h29q12 0 12 -12v-86
q0 -4 4 -4h165q12 0 12 -12v-14q0 -12 -12 -12h-165q-4 0 -4 -4v-111q0 -8 4 -2q45 68 142 68z" />
    <glyph glyph-name="Imacron" unicode="&#x12a;" horiz-adv-x="258" 
d="M10 805q-12 0 -12 12v16q0 12 12 12h238q12 0 12 -12v-16q0 -12 -12 -12h-238zM114 0q-12 0 -12 12v676q0 12 12 12h29q12 0 12 -12v-676q0 -12 -12 -12h-29z" />
    <glyph glyph-name="imacron" unicode="&#x12b;" horiz-adv-x="216" 
d="M-13 607q-12 0 -12 12v16q0 12 12 12h238q12 0 12 -12v-16q0 -12 -12 -12h-238zM92 0q-12 0 -12 12v480q0 12 12 12h29q12 0 12 -12v-480q0 -12 -12 -12h-29z" />
    <glyph glyph-name="Iogonek" unicode="&#x12e;" horiz-adv-x="338" 
d="M216 -147q11 3 14 -9l2 -10q3 -12 -8 -15q-41 -8 -75.5 3.5t-44.5 52.5q-15 65 59 122q3 2 0 4q-6 3 -6 11v676q0 12 12 12h29q12 0 12 -12v-679v-9q-2 -1 -3 -2q-73 -57 -63 -109q10 -49 72 -36z" />
    <glyph glyph-name="iogonek" unicode="&#x12f;" horiz-adv-x="283" 
d="M156 601q-18 0 -29.5 11t-11.5 28t11.5 27.5t29.5 10.5q16 0 27 -11t11 -27q0 -17 -10.5 -28t-27.5 -11zM189 -147q11 3 14 -9l2 -10q3 -12 -8 -15q-41 -8 -75.5 3.5t-44.5 52.5q-15 65 59 122q3 2 0 4q-6 3 -6 11v480q0 12 12 12h29q12 0 12 -12v-483v-9q-2 -1 -3 -2
q-73 -57 -63 -109q10 -49 72 -36z" />
    <glyph glyph-name="Idotaccent" unicode="&#x130;" horiz-adv-x="258" 
d="M129 798q-18 0 -29.5 11t-11.5 28t11.5 27.5t29.5 10.5q17 0 27.5 -10.5t10.5 -27.5t-10.5 -28t-27.5 -11zM114 0q-12 0 -12 12v676q0 12 12 12h29q12 0 12 -12v-676q0 -12 -12 -12h-29z" />
    <glyph glyph-name="dotlessi" unicode="&#x131;" horiz-adv-x="216" 
d="M92 0q-12 0 -12 12v480q0 12 12 12h29q12 0 12 -12v-480q0 -12 -12 -12h-29z" />
    <glyph glyph-name="ij" unicode="&#x133;" horiz-adv-x="466" 
d="M121 605q-20 0 -33 12.5t-13 31.5t13 31t33 12t33 -12t13 -31t-13 -31.5t-33 -12.5zM353 604q-20 0 -32.5 12t-12.5 32t13 32t32 12q21 0 34 -12t13 -32t-12.5 -32t-34.5 -12zM107 0q-12 0 -12 12v480q0 12 12 12h29q12 0 12 -12v-480q0 -12 -12 -12h-29zM221 -209
q-12 0 -12 12v22q0 12 12 12q106 5 106 108v547q0 12 12 12h29q12 0 12 -12v-547q0 -151 -159 -154z" />
    <glyph glyph-name="uni0136" unicode="&#x136;" horiz-adv-x="607" 
d="M114 0q-12 0 -12 12v676q0 12 12 12h29q12 0 12 -12v-351q0 -2 1.5 -3t3.5 1l337 359q5 6 15 6h32q8 0 10 -4.5t-3 -10.5l-248 -272q-2 -2 0 -6l271 -392q9 -15 -8 -15h-35q-9 0 -14 8l-250 361q-2 5 -6 1l-104 -107q-2 -2 -2 -5v-246q0 -12 -12 -12h-29zM271 -188
q-15 0 -8 14l59 107q5 8 15 8h27q16 0 8 -14l-64 -107q-4 -8 -14 -8h-23z" />
    <glyph glyph-name="uni0137" unicode="&#x137;" horiz-adv-x="492" 
d="M99 0q-12 0 -12 12v676q0 12 12 12h29q12 0 12 -12v-425q0 -2 2 -3t3 1l230 237q6 6 15 6h35q8 0 9.5 -4.5t-3.5 -10.5l-125 -133q-2 -2 -1 -5l153 -337q6 -14 -9 -14h-31q-10 0 -14 9l-135 306q-2 4 -5 1l-122 -126q-2 -2 -2 -5v-173q0 -12 -12 -12h-29zM215 -188
q-15 0 -8 14l59 107q5 8 15 8h27q16 0 8 -14l-64 -107q-4 -8 -14 -8h-23z" />
    <glyph glyph-name="Lacute" unicode="&#x139;" horiz-adv-x="567" 
d="M104 774q-15 0 -8 14l59 107q5 8 15 8h27q16 0 8 -14l-64 -107q-4 -8 -14 -8h-23zM114 0q-12 0 -12 12v676q0 12 12 12h29q12 0 12 -12v-637q0 -4 4 -4h357q12 0 12 -12v-23q0 -12 -12 -12h-402z" />
    <glyph glyph-name="lacute" unicode="&#x13a;" horiz-adv-x="227" 
d="M90 774q-15 0 -8 14l59 107q5 8 15 8h27q16 0 8 -14l-64 -107q-4 -8 -14 -8h-23zM99 0q-12 0 -12 12v676q0 12 12 12h29q12 0 12 -12v-676q0 -12 -12 -12h-29z" />
    <glyph glyph-name="uni013B" unicode="&#x13b;" horiz-adv-x="567" 
d="M114 0q-12 0 -12 12v676q0 12 12 12h29q12 0 12 -12v-637q0 -4 4 -4h357q12 0 12 -12v-23q0 -12 -12 -12h-402zM238 -188q-15 0 -8 14l59 107q5 8 15 8h27q16 0 8 -14l-64 -107q-4 -8 -14 -8h-23z" />
    <glyph glyph-name="uni013C" unicode="&#x13c;" horiz-adv-x="228" 
d="M99 0q-12 0 -12 12v676q0 12 12 12h29q12 0 12 -12v-676q0 -12 -12 -12h-29zM31 -188q-15 0 -8 14l59 107q5 8 15 8h27q16 0 8 -14l-64 -107q-4 -8 -14 -8h-23z" />
    <glyph glyph-name="Lcaron" unicode="&#x13d;" horiz-adv-x="567" 
d="M111 755q-8 0 -14 7l-78 104q-5 6 -2.5 10.5t9.5 4.5h20q9 0 15 -7l65 -86q1 -2 3 -2t3 2l65 86q6 7 14 7h20q7 0 9.5 -4.5t-2.5 -10.5l-79 -104q-6 -7 -14 -7h-34zM114 0q-12 0 -12 12v676q0 12 12 12h29q12 0 12 -12v-637q0 -4 4 -4h357q12 0 12 -12v-23q0 -12 -12 -12
h-402z" />
    <glyph glyph-name="lcaron" unicode="&#x13e;" horiz-adv-x="227" 
d="M97 755q-8 0 -14 7l-78 104q-5 6 -2.5 10.5t9.5 4.5h20q9 0 15 -7l65 -86q1 -2 3 -2t3 2l65 86q6 7 14 7h20q7 0 9.5 -4.5t-2.5 -10.5l-79 -104q-6 -7 -14 -7h-34zM99 0q-12 0 -12 12v676q0 12 12 12h29q12 0 12 -12v-676q0 -12 -12 -12h-29z" />
    <glyph glyph-name="Lslash" unicode="&#x141;" horiz-adv-x="567" 
d="M155 51q0 -4 4 -4h357q12 0 12 -12v-23q0 -12 -12 -12h-402q-12 0 -12 12v246q0 2 -2 3t-3 -1l-106 -77q-9 -8 -17 2l-12 15q-8 9 2 17l136 99q2 2 2 5v367q0 12 12 12h29q12 0 12 -12v-325q0 -2 1.5 -3t3.5 1l233 170q10 8 17 -2l13 -16q6 -9 -3 -17l-263 -191
q-2 -2 -2 -5v-249z" />
    <glyph glyph-name="lslash" unicode="&#x142;" horiz-adv-x="227" 
d="M258 418q6 -9 -4 -16l-111 -68q-3 -2 -3 -5v-317q0 -12 -12 -12h-29q-12 0 -12 12v281q0 5 -5 3l-57 -35q-10 -6 -16 5l-9 16q-6 9 4 16l80 49q3 1 3 5v336q0 12 12 12h29q12 0 12 -12v-300q0 -6 5 -3l87 54q9 6 16 -4z" />
    <glyph glyph-name="Nacute" unicode="&#x143;" horiz-adv-x="677" 
d="M313 785q-15 0 -8 14l59 107q5 8 15 8h27q16 0 8 -14l-64 -107q-4 -8 -14 -8h-23zM114 0q-12 0 -12 12v676q0 12 12 12h30q10 0 14 -8l359 -582q1 -3 3 -2.5t2 3.5v577q0 12 12 12h29q12 0 12 -12v-676q0 -12 -12 -12h-30q-10 0 -14 8l-359 583q-2 3 -3.5 2.5t-1.5 -3.5
v-578q0 -12 -12 -12h-29z" />
    <glyph glyph-name="nacute" unicode="&#x144;" horiz-adv-x="537" 
d="M337 707q16 0 8 -14l-64 -107q-4 -8 -14 -8h-23q-15 0 -8 14l59 107q5 8 15 8h27zM286 511q77 0 124 -47t47 -124v-328q0 -12 -12 -12h-29q-12 0 -12 12v318q0 59 -36 96.5t-93 37.5q-61 0 -98 -36.5t-37 -95.5v-320q0 -12 -12 -12h-29q-12 0 -12 12v480q0 12 12 12h29
q12 0 12 -12v-47q0 -8 4 -2q45 68 142 68z" />
    <glyph glyph-name="uni0145" unicode="&#x145;" horiz-adv-x="677" 
d="M114 0q-12 0 -12 12v676q0 12 12 12h30q10 0 14 -8l359 -582q1 -3 3 -2.5t2 3.5v577q0 12 12 12h29q12 0 12 -12v-676q0 -12 -12 -12h-30q-10 0 -14 8l-359 583q-2 3 -3.5 2.5t-1.5 -3.5v-578q0 -12 -12 -12h-29zM296 -188q-15 0 -8 14l59 107q5 8 15 8h27q16 0 8 -14
l-64 -107q-4 -8 -14 -8h-23z" />
    <glyph glyph-name="uni0146" unicode="&#x146;" horiz-adv-x="537" 
d="M286 511q77 0 124 -47t47 -124v-328q0 -12 -12 -12h-29q-12 0 -12 12v318q0 59 -36 96.5t-93 37.5q-61 0 -98 -36.5t-37 -95.5v-320q0 -12 -12 -12h-29q-12 0 -12 12v480q0 12 12 12h29q12 0 12 -12v-47q0 -8 4 -2q45 68 142 68zM227 -188q-15 0 -8 14l59 107q5 8 15 8
h27q16 0 8 -14l-64 -107q-4 -8 -14 -8h-23z" />
    <glyph glyph-name="Ncaron" unicode="&#x147;" horiz-adv-x="677" 
d="M320 774q-8 0 -14 7l-78 104q-5 6 -2.5 10.5t9.5 4.5h20q9 0 15 -7l65 -86q1 -1 3 -1t3 1l65 86q6 7 14 7h20q7 0 9.5 -4.5t-2.5 -10.5l-79 -104q-6 -7 -14 -7h-34zM114 0q-12 0 -12 12v676q0 12 12 12h30q10 0 14 -8l359 -582q1 -3 3 -2.5t2 3.5v577q0 12 12 12h29
q12 0 12 -12v-676q0 -12 -12 -12h-30q-10 0 -14 8l-359 583q-2 3 -3.5 2.5t-1.5 -3.5v-578q0 -12 -12 -12h-29z" />
    <glyph glyph-name="ncaron" unicode="&#x148;" horiz-adv-x="537" 
d="M299 574q-6 -7 -14 -7h-34q-8 0 -14 7l-78 104q-5 6 -2.5 10.5t9.5 4.5h20q9 0 15 -7l65 -86q1 -2 3 -2t3 2l65 86q6 7 14 7h20q7 0 9.5 -4.5t-2.5 -10.5zM286 511q77 0 124 -47t47 -124v-328q0 -12 -12 -12h-29q-12 0 -12 12v318q0 59 -36 96.5t-93 37.5
q-61 0 -98 -36.5t-37 -95.5v-320q0 -12 -12 -12h-29q-12 0 -12 12v480q0 12 12 12h29q12 0 12 -12v-47q0 -8 4 -2q45 68 142 68z" />
    <glyph glyph-name="Eng" unicode="&#x14a;" horiz-adv-x="679" 
d="M575 566l1 -4h1v-558q0 -78 -32.5 -115.5t-109.5 -39.5q-12 0 -12 12v23q0 12 12 12q47 1 67 26.5t22 74.5q0 4 -1 5l-363 589q-2 3 -3.5 2.5t-1.5 -3.5v-578q0 -12 -12 -12h-29q-12 0 -12 12v676q0 12 12 12h30q10 0 14 -8l359 -582q1 -3 3 -2.5t2 3.5v577q0 12 12 12
h29q12 0 12 -12v-122z" />
    <glyph glyph-name="eng" unicode="&#x14b;" horiz-adv-x="538" 
d="M457 208l1 -4h1v-218q0 -148 -137 -154q-12 0 -12 12v20q0 12 12 13q84 7 84 108v11l-1 4h-1v330q0 59 -36 96.5t-93 37.5q-61 0 -98 -36.5t-37 -95.5v-320q0 -12 -12 -12h-29q-12 0 -12 12v480q0 12 12 12h29q12 0 12 -12v-47q0 -3 2 -3.5t3 2.5q44 67 141 67
q77 0 124 -47t47 -124v-132z" />
    <glyph glyph-name="Omacron" unicode="&#x14c;" horiz-adv-x="622" 
d="M191 802q-12 0 -12 12v16q0 12 12 12h238q12 0 12 -12v-16q0 -12 -12 -12h-238zM310 -8q-104 0 -167.5 62.5t-63.5 164.5v262q0 102 63.5 164.5t167.5 62.5q105 0 169 -62.5t64 -164.5v-262q0 -102 -64 -164.5t-169 -62.5zM310 38q81 0 130.5 49t49.5 130v265
q0 80 -49.5 129.5t-130.5 49.5q-80 0 -129 -49.5t-49 -129.5v-265q0 -81 49 -130t129 -49z" />
    <glyph glyph-name="omacron" unicode="&#x14d;" horiz-adv-x="539" 
d="M150 606q-12 0 -12 12v16q0 12 12 12h238q12 0 12 -12v-16q0 -12 -12 -12h-238zM270 -8q-71 0 -120.5 37t-67.5 99q-12 40 -12 125q0 80 11 124q18 62 68 98.5t121 36.5q70 0 120.5 -37t67.5 -98q11 -40 11 -124q0 -85 -11 -125q-17 -62 -67.5 -99t-120.5 -37zM270 39
q53 0 90.5 29t48.5 78q6 28 6 106q0 80 -6 106q-11 49 -48.5 78t-91.5 29t-91 -29t-48 -78q-6 -26 -6 -106t6 -106q11 -49 48 -78t92 -29z" />
    <glyph glyph-name="Ohungarumlaut" unicode="&#x150;" horiz-adv-x="622" 
d="M216 780q-15 0 -8 14l56 106q4 9 14 9h26q15 0 8 -14l-60 -107q-5 -8 -15 -8h-21zM374 780q-15 0 -8 14l58 107q5 8 15 8h24q15 0 8 -14l-60 -107q-5 -8 -15 -8h-22zM310 -8q-104 0 -167.5 62.5t-63.5 164.5v262q0 102 63.5 164.5t167.5 62.5q105 0 169 -62.5t64 -164.5
v-262q0 -102 -64 -164.5t-169 -62.5zM310 38q81 0 130.5 49t49.5 130v265q0 80 -49.5 129.5t-130.5 49.5q-80 0 -129 -49.5t-49 -129.5v-265q0 -81 49 -130t129 -49z" />
    <glyph glyph-name="ohungarumlaut" unicode="&#x151;" horiz-adv-x="539" 
d="M175 584q-15 0 -8 14l56 106q5 9 14 9h26q15 0 8 -14l-60 -107q-5 -8 -15 -8h-21zM333 584q-15 0 -8 14l58 107q5 8 15 8h24q15 0 8 -14l-60 -107q-5 -8 -15 -8h-22zM270 -8q-71 0 -120.5 37t-67.5 99q-12 40 -12 125q0 80 11 124q18 62 68 98.5t121 36.5q70 0 120.5 -37
t67.5 -98q11 -40 11 -124q0 -85 -11 -125q-17 -62 -67.5 -99t-120.5 -37zM270 39q53 0 90.5 29t48.5 78q6 28 6 106q0 80 -6 106q-11 49 -48.5 78t-91.5 29t-91 -29t-48 -78q-6 -26 -6 -106t6 -106q11 -49 48 -78t92 -29z" />
    <glyph glyph-name="OE" unicode="&#x152;" horiz-adv-x="917" 
d="M854 665q0 -12 -12 -12h-328q-4 0 -4 -4v-270q0 -4 4 -4h219q12 0 12 -12v-23q0 -12 -12 -12h-219q-4 0 -4 -4v-273q0 -4 4 -4h328q12 0 12 -12v-23q0 -12 -12 -12h-373q-12 0 -12 12v55q0 7 -5 2q-58 -77 -168 -77q-90 0 -147.5 59t-57.5 151v295q0 92 57.5 151.5
t147.5 59.5q110 0 168 -77q5 -5 5 2v55q0 12 12 12h373q12 0 12 -12v-23zM294 38q73 0 118 46t45 116v298q0 71 -45 117t-118 46t-117.5 -46t-44.5 -117v-298q0 -70 45 -116t117 -46z" />
    <glyph glyph-name="oe" unicode="&#x153;" horiz-adv-x="854" 
d="M602 38q44 0 79 22t51 58q6 13 16 7l18 -9q10 -6 6 -16q-21 -50 -67 -79t-108 -29q-55 0 -98 25t-67 67q-3 4 -6 0q-24 -42 -67.5 -67t-97.5 -25q-69 0 -117 37t-65 99q-9 34 -9 125q0 88 9 124q16 61 65 98t117 37q54 0 97 -25t68 -67q3 -4 6 0q23 42 66 67t96 25
q69 0 119 -37.5t66 -98.5q9 -33 9 -125q0 -13 -12 -13h-316q-4 0 -4 -4q0 -71 5 -88q10 -50 47 -79t94 -29zM395 146q5 21 5 106q0 86 -5 106q-9 48 -45 77.5t-89 29.5q-52 0 -87 -29.5t-45 -77.5q-6 -25 -6 -106t6 -106q10 -49 45 -78t87 -29q53 0 89 29.5t45 77.5z
M461 358q-5 -27 -5 -77q0 -4 4 -4h270q4 0 4 4q0 50 -5 77q-10 48 -46 77.5t-89 29.5q-52 0 -87.5 -29.5t-45.5 -77.5z" />
    <glyph glyph-name="Racute" unicode="&#x154;" horiz-adv-x="612" 
d="M370 903q16 0 8 -14l-64 -107q-4 -8 -14 -8h-23q-15 0 -8 14l59 107q5 8 15 8h27zM519 0q-9 0 -14 9l-154 318q-1 3 -4 3h-188q-4 0 -4 -4v-314q0 -12 -12 -12h-29q-12 0 -12 12v678q0 12 12 12h250q84 0 135.5 -52t51.5 -136q0 -72 -39.5 -120.5t-105.5 -59.5
q-5 -2 -3 -5l153 -315q6 -14 -9 -14h-28zM159 654q-4 0 -4 -4v-272q0 -4 4 -4h200q62 0 100.5 38.5t38.5 100.5q0 64 -38.5 102.5t-100.5 38.5h-200z" />
    <glyph glyph-name="racute" unicode="&#x155;" horiz-adv-x="359" 
d="M285 715q16 0 8 -14l-64 -107q-4 -8 -14 -8h-23q-15 0 -8 14l59 107q5 8 15 8h27zM277 508q31 0 57 -11q9 -5 6 -15l-8 -29q-3 -12 -15 -7q-22 7 -48 6q-56 -1 -92.5 -42.5t-36.5 -101.5v-296q0 -12 -12 -12h-29q-12 0 -12 12v480q0 12 12 12h29q12 0 12 -12v-66
q0 -3 2 -4l2 3q45 83 133 83z" />
    <glyph glyph-name="uni0156" unicode="&#x156;" horiz-adv-x="612" 
d="M406 334q-5 -2 -3 -5l153 -315q6 -14 -9 -14h-28q-9 0 -14 9l-154 318q-1 3 -4 3h-188q-4 0 -4 -4v-314q0 -12 -12 -12h-29q-12 0 -12 12v678q0 12 12 12h250q84 0 135.5 -52t51.5 -136q0 -72 -39.5 -120.5t-105.5 -59.5zM159 654q-4 0 -4 -4v-272q0 -4 4 -4h200
q62 0 100.5 38.5t38.5 100.5q0 64 -38.5 102.5t-100.5 38.5h-200zM265 -188q-15 0 -8 14l59 107q5 8 15 8h27q16 0 8 -14l-64 -107q-4 -8 -14 -8h-23z" />
    <glyph glyph-name="uni0157" unicode="&#x157;" horiz-adv-x="362" 
d="M277 508q31 0 57 -11q9 -5 6 -15l-8 -29q-3 -12 -15 -7q-22 7 -48 6q-56 -1 -92.5 -42.5t-36.5 -101.5v-296q0 -12 -12 -12h-29q-12 0 -12 12v480q0 12 12 12h29q12 0 12 -12v-66q0 -3 2 -4l2 3q45 83 133 83zM30 -188q-15 0 -8 14l59 107q5 8 15 8h27q16 0 8 -14
l-64 -107q-4 -8 -14 -8h-23z" />
    <glyph glyph-name="Rcaron" unicode="&#x158;" horiz-adv-x="612" 
d="M332 770q-6 -7 -14 -7h-34q-8 0 -14 7l-78 104q-5 6 -2.5 10.5t9.5 4.5h20q9 0 15 -7l65 -86q1 -2 3 -2t3 2l65 86q6 7 14 7h20q7 0 9.5 -4.5t-2.5 -10.5zM519 0q-9 0 -14 9l-154 318q-1 3 -4 3h-188q-4 0 -4 -4v-314q0 -12 -12 -12h-29q-12 0 -12 12v678q0 12 12 12h250
q84 0 135.5 -52t51.5 -136q0 -72 -39.5 -120.5t-105.5 -59.5q-5 -2 -3 -5l153 -315q6 -14 -9 -14h-28zM159 654q-4 0 -4 -4v-272q0 -4 4 -4h200q62 0 100.5 38.5t38.5 100.5q0 64 -38.5 102.5t-100.5 38.5h-200z" />
    <glyph glyph-name="rcaron" unicode="&#x159;" horiz-adv-x="359" 
d="M247 582q-6 -7 -14 -7h-34q-8 0 -14 7l-78 104q-5 6 -2.5 10.5t9.5 4.5h20q9 0 15 -7l65 -86q1 -2 3 -2t3 2l65 86q6 7 14 7h20q7 0 9.5 -4.5t-2.5 -10.5zM277 508q31 0 57 -11q9 -5 6 -15l-8 -29q-3 -12 -15 -7q-22 7 -48 6q-56 -1 -92.5 -42.5t-36.5 -101.5v-296
q0 -12 -12 -12h-29q-12 0 -12 12v480q0 12 12 12h29q12 0 12 -12v-66q0 -3 2 -4l2 3q45 83 133 83z" />
    <glyph glyph-name="Sacute" unicode="&#x15a;" horiz-adv-x="584" 
d="M262 782q-15 0 -8 14l59 107q5 8 15 8h27q16 0 8 -14l-64 -107q-4 -8 -14 -8h-23zM297 -8q-108 0 -171.5 49.5t-63.5 132.5v31q0 12 12 12h27q12 0 12 -12v-28q0 -62 51 -100t138 -38q83 0 126.5 34.5t43.5 95.5q0 54 -42.5 89.5t-150.5 81.5q-41 17 -59.5 25.5t-48 23.5
t-43 27.5t-29 31t-21 40.5t-5.5 49q0 82 56.5 126.5t156.5 44.5q110 0 171.5 -50t61.5 -134v-21q0 -12 -12 -12h-29q-12 0 -12 12v18q0 63 -48 101.5t-135 38.5q-76 0 -117 -31.5t-41 -90.5q0 -57 38 -85.5t145 -71.5q111 -45 164 -90.5t53 -120.5q0 -81 -60 -130t-168 -49z
" />
    <glyph glyph-name="sacute" unicode="&#x15b;" horiz-adv-x="478" 
d="M216 582q-15 0 -8 14l59 107q5 8 15 8h27q16 0 8 -14l-64 -107q-4 -8 -14 -8h-23zM244 -5q-81 0 -132 38t-51 93v11q0 12 12 12h28q12 0 12 -10v-11q0 -36 36.5 -63t93.5 -27q56 0 91.5 27t35.5 67q0 21 -9.5 36.5t-34 27.5t-39 17.5t-52.5 16.5q-42 13 -64.5 21.5
t-51.5 25.5t-42 41t-13 56q0 61 48.5 97.5t127.5 36.5q80 0 129.5 -37.5t49.5 -95.5v-1q0 -12 -12 -12h-27q-12 0 -12 7v6q0 38 -35.5 63.5t-93.5 25.5q-56 0 -90 -23.5t-34 -63.5q0 -20 9 -35t30.5 -26.5t39.5 -18t51 -16.5q36 -10 52.5 -15.5t45.5 -19t43 -26.5
t25.5 -35.5t11.5 -49.5q0 -63 -49 -101.5t-130 -38.5z" />
    <glyph glyph-name="Scedilla" unicode="&#x15e;" horiz-adv-x="584" 
d="M525 171q0 -77 -54 -125t-153 -54q-6 0 -1 -5q64 -54 50 -114q-10 -41 -44.5 -52.5t-75.5 -3.5q-11 3 -9 14l2 11q3 12 15 9q62 -13 72 36q11 52 -56 104q-1 2 -5 2q-95 7 -149.5 55.5t-54.5 125.5v31q0 12 12 12h27q12 0 12 -12v-28q0 -62 51 -100t138 -38
q83 0 126.5 34.5t43.5 95.5q0 54 -42.5 89.5t-150.5 81.5q-41 17 -59.5 25.5t-48 23.5t-43 27.5t-29 31t-21 40.5t-5.5 49q0 82 56.5 126.5t156.5 44.5q110 0 171.5 -50t61.5 -134v-21q0 -12 -12 -12h-29q-12 0 -12 12v18q0 63 -48 101.5t-135 38.5q-76 0 -117 -31.5
t-41 -90.5q0 -57 38 -85.5t145 -71.5q111 -45 164 -90.5t53 -120.5z" />
    <glyph glyph-name="scedilla" unicode="&#x15f;" horiz-adv-x="478" 
d="M423 135q0 -57 -41 -94.5t-111 -43.5q-6 -1 -2 -5q65 -57 51 -116q-10 -41 -44.5 -52.5t-75.5 -3.5q-11 3 -9 14l2 11q3 12 15 9q62 -13 72 36q11 50 -56 104q-1 2 -5 2q-71 6 -114.5 43t-43.5 87v11q0 12 12 12h28q12 0 12 -10v-11q0 -36 36.5 -63t93.5 -27
q56 0 91.5 27t35.5 67q0 21 -9.5 36.5t-34 27.5t-39 17.5t-52.5 16.5q-42 13 -64.5 21.5t-51.5 25.5t-42 41t-13 56q0 61 48.5 97.5t127.5 36.5q80 0 129.5 -37.5t49.5 -95.5v-1q0 -12 -12 -12h-27q-12 0 -12 7v6q0 38 -35.5 63.5t-93.5 25.5q-56 0 -90 -23.5t-34 -63.5
q0 -20 9 -35t30.5 -26.5t39.5 -18t51 -16.5q36 -10 52.5 -15.5t45.5 -19t43 -26.5t25.5 -35.5t11.5 -49.5z" />
    <glyph glyph-name="Scaron" unicode="&#x160;" horiz-adv-x="584" 
d="M269 771q-8 0 -14 7l-78 104q-5 6 -2.5 10.5t9.5 4.5h20q9 0 15 -7l65 -86q1 -2 3 -2t3 2l65 86q6 7 14 7h20q7 0 9.5 -4.5t-2.5 -10.5l-79 -104q-6 -7 -14 -7h-34zM297 -8q-108 0 -171.5 49.5t-63.5 132.5v31q0 12 12 12h27q12 0 12 -12v-28q0 -62 51 -100t138 -38
q83 0 126.5 34.5t43.5 95.5q0 54 -42.5 89.5t-150.5 81.5q-41 17 -59.5 25.5t-48 23.5t-43 27.5t-29 31t-21 40.5t-5.5 49q0 82 56.5 126.5t156.5 44.5q110 0 171.5 -50t61.5 -134v-21q0 -12 -12 -12h-29q-12 0 -12 12v18q0 63 -48 101.5t-135 38.5q-76 0 -117 -31.5
t-41 -90.5q0 -57 38 -85.5t145 -71.5q111 -45 164 -90.5t53 -120.5q0 -81 -60 -130t-168 -49z" />
    <glyph glyph-name="scaron" unicode="&#x161;" horiz-adv-x="478" 
d="M223 571q-8 0 -14 7l-78 104q-5 6 -2.5 10.5t9.5 4.5h20q9 0 15 -7l65 -86q1 -2 3 -2t3 2l65 86q6 7 14 7h20q7 0 9.5 -4.5t-2.5 -10.5l-79 -104q-6 -7 -14 -7h-34zM244 -5q-81 0 -132 38t-51 93v11q0 12 12 12h28q12 0 12 -10v-11q0 -36 36.5 -63t93.5 -27q56 0 91.5 27
t35.5 67q0 21 -9.5 36.5t-34 27.5t-39 17.5t-52.5 16.5q-42 13 -64.5 21.5t-51.5 25.5t-42 41t-13 56q0 61 48.5 97.5t127.5 36.5q80 0 129.5 -37.5t49.5 -95.5v-1q0 -12 -12 -12h-27q-12 0 -12 7v6q0 38 -35.5 63.5t-93.5 25.5q-56 0 -90 -23.5t-34 -63.5q0 -20 9 -35
t30.5 -26.5t39.5 -18t51 -16.5q36 -10 52.5 -15.5t45.5 -19t43 -26.5t25.5 -35.5t11.5 -49.5q0 -63 -49 -101.5t-130 -38.5z" />
    <glyph glyph-name="uni0162" unicode="&#x162;" horiz-adv-x="565" 
d="M308 653q-4 0 -4 -4v-640v-9q0 -1 1 -2q68 -55 53 -117q-10 -41 -44.5 -52.5t-75.5 -3.5q-11 3 -9 14l2 11q3 12 15 9q62 -13 72 36q9 50 -55 103q-1 2 -5 2q-7 4 -7 12v637q0 4 -4 4h-188q-12 0 -12 12v23q0 12 12 12h447q12 0 12 -12v-23q0 -12 -12 -12h-198z" />
    <glyph glyph-name="uni0163" unicode="&#x163;" horiz-adv-x="359" 
d="M296 13q0 -12 -12 -12q-5 0 -14.5 -0.5t-13.5 -0.5q-69 0 -105 27t-37 99v329q0 4 -4 4h-58q-12 0 -12 12v21q0 12 12 12h58q4 0 4 4v112q0 12 12 12h28q12 0 12 -12v-112q0 -4 4 -4h115q12 0 12 -12v-21q0 -12 -12 -12h-115q-4 0 -4 -4v-315q0 -51 23 -71.5t74 -20.5h21
q12 0 12 -12v-23zM234 -3q9 0 15 -5q71 -58 56 -120q-10 -41 -44.5 -52.5t-75.5 -3.5q-11 3 -9 14l2 11q3 12 15 9q62 -13 72 36q9 46 -47 97q-7 5 -5 9.5t10 4.5h11z" />
    <glyph glyph-name="Tcaron" unicode="&#x164;" horiz-adv-x="565" 
d="M308 762q-6 -7 -14 -7h-34q-8 0 -14 7l-78 104q-5 6 -2.5 10.5t9.5 4.5h20q9 0 15 -7l65 -86q1 -2 3 -2t3 2l65 86q6 7 14 7h20q7 0 9.5 -4.5t-2.5 -10.5zM506 700q12 0 12 -12v-23q0 -12 -12 -12h-198q-4 0 -4 -4v-637q0 -12 -12 -12h-29q-12 0 -12 12v637q0 4 -4 4
h-188q-12 0 -12 12v23q0 12 12 12h447z" />
    <glyph glyph-name="tcaron" unicode="&#x165;" horiz-adv-x="359" 
d="M171 694q-6 -7 -14 -7h-34q-8 0 -14 7l-78 104q-5 6 -2.5 10.5t9.5 4.5h20q9 0 15 -7l65 -86q1 -2 3 -2t3 2l65 86q6 7 14 7h20q7 0 9.5 -4.5t-2.5 -10.5zM297 471q0 -12 -12 -12h-115q-4 0 -4 -4v-315q0 -51 23 -71.5t74 -20.5h21q12 0 12 -12v-23q0 -12 -12 -12
q-5 0 -14.5 -0.5t-13.5 -0.5q-69 0 -105 27t-37 99v329q0 4 -4 4h-58q-12 0 -12 12v21q0 12 12 12h58q4 0 4 4v112q0 12 12 12h28q12 0 12 -12v-112q0 -4 4 -4h115q12 0 12 -12v-21z" />
    <glyph glyph-name="Tbar" unicode="&#x166;" horiz-adv-x="600" 
d="M518 665q0 -12 -12 -12h-198q-4 0 -4 -4v-224q0 -4 4 -4h112q12 0 12 -12v-14q0 -12 -12 -12h-112q-4 0 -4 -4v-367q0 -12 -12 -12h-29q-12 0 -12 12v367q0 4 -4 4h-111q-12 0 -12 12v14q0 12 12 12h111q4 0 4 4v224q0 4 -4 4h-188q-12 0 -12 12v23q0 12 12 12h447
q12 0 12 -12v-23z" />
    <glyph glyph-name="tbar" unicode="&#x167;" horiz-adv-x="600" 
d="M297 471q0 -12 -12 -12h-115q-4 0 -4 -4v-102q0 -4 4 -4h112q12 0 12 -12v-14q0 -12 -12 -12h-112q-4 0 -4 -4v-167q0 -51 23 -71.5t74 -20.5h21q12 0 12 -12v-23q0 -12 -12 -12q-5 0 -14.5 -0.5t-13.5 -0.5q-69 0 -105 27t-37 99v181q0 4 -4 4h-52q-12 0 -12 12v14
q0 12 12 12h52q4 0 4 4v102q0 4 -4 4h-58q-12 0 -12 12v21q0 12 12 12h58q4 0 4 4v112q0 12 12 12h28q12 0 12 -12v-112q0 -4 4 -4h115q12 0 12 -12v-21z" />
    <glyph glyph-name="Umacron" unicode="&#x16a;" horiz-adv-x="653" 
d="M207 806q-12 0 -12 12v16q0 12 12 12h238q12 0 12 -12v-16q0 -12 -12 -12h-238zM326 -8q-104 0 -168 60.5t-64 159.5v476q0 12 12 12h29q12 0 12 -12v-478q0 -77 49.5 -124t129.5 -47q81 0 130 47t49 124v478q0 12 12 12h29q12 0 12 -12v-476q0 -99 -63.5 -159.5
t-168.5 -60.5z" />
    <glyph glyph-name="umacron" unicode="&#x16b;" horiz-adv-x="535" 
d="M386 638q12 0 12 -12v-16q0 -12 -12 -12h-238q-12 0 -12 12v16q0 12 12 12h238zM396 492q0 12 12 12h28q12 0 12 -12v-480q0 -12 -12 -12h-28q-12 0 -12 12v47q0 3 -2 3.5t-3 -2.5q-44 -67 -140 -67q-74 0 -123 44t-49 121v334q0 12 12 12h28q12 0 12 -12v-320
q0 -60 35.5 -96t94.5 -36q61 0 98 36.5t37 95.5v320z" />
    <glyph glyph-name="Uring" unicode="&#x16e;" horiz-adv-x="653" 
d="M326 779q-43 0 -72.5 29.5t-29.5 71.5t29.5 71t72.5 29t73 -29t30 -71t-30 -71.5t-73 -29.5zM326 811q29 0 49.5 20t20.5 49t-20.5 49t-49.5 20t-49 -20t-20 -49t20 -49t49 -20zM326 -8q-104 0 -168 60.5t-64 159.5v476q0 12 12 12h29q12 0 12 -12v-478q0 -77 49.5 -124
t129.5 -47q81 0 130 47t49 124v478q0 12 12 12h29q12 0 12 -12v-476q0 -99 -63.5 -159.5t-168.5 -60.5z" />
    <glyph glyph-name="uring" unicode="&#x16f;" horiz-adv-x="535" 
d="M267 571q-43 0 -72.5 29.5t-29.5 71.5t29.5 71t72.5 29t73 -29t30 -71t-30 -71.5t-73 -29.5zM267 741q-29 0 -49 -20t-20 -49t20 -49t49 -20t49.5 20t20.5 49t-20.5 49t-49.5 20zM396 492q0 12 12 12h28q12 0 12 -12v-480q0 -12 -12 -12h-28q-12 0 -12 12v47q0 3 -2 3.5
t-3 -2.5q-44 -67 -140 -67q-74 0 -123 44t-49 121v334q0 12 12 12h28q12 0 12 -12v-320q0 -60 35.5 -96t94.5 -36q61 0 98 36.5t37 95.5v320z" />
    <glyph glyph-name="Uhungarumlaut" unicode="&#x170;" horiz-adv-x="653" 
d="M232 784q-15 0 -8 14l56 106q4 9 14 9h26q15 0 8 -14l-60 -107q-5 -8 -15 -8h-21zM390 784q-15 0 -8 14l58 107q5 8 15 8h24q15 0 8 -14l-60 -107q-5 -8 -15 -8h-22zM326 -8q-104 0 -168 60.5t-64 159.5v476q0 12 12 12h29q12 0 12 -12v-478q0 -77 49.5 -124t129.5 -47
q81 0 130 47t49 124v478q0 12 12 12h29q12 0 12 -12v-476q0 -99 -63.5 -159.5t-168.5 -60.5z" />
    <glyph glyph-name="uhungarumlaut" unicode="&#x171;" horiz-adv-x="535" 
d="M261 705q15 0 8 -14l-60 -107q-5 -8 -15 -8h-21q-15 0 -8 14l56 106q5 9 14 9h26zM420 705q15 0 8 -14l-60 -107q-5 -8 -15 -8h-22q-15 0 -8 14l58 107q5 8 15 8h24zM396 492q0 12 12 12h28q12 0 12 -12v-480q0 -12 -12 -12h-28q-12 0 -12 12v47q0 3 -2 3.5t-3 -2.5
q-44 -67 -140 -67q-74 0 -123 44t-49 121v334q0 12 12 12h28q12 0 12 -12v-320q0 -60 35.5 -96t94.5 -36q61 0 98 36.5t37 95.5v320z" />
    <glyph glyph-name="Uogonek" unicode="&#x172;" horiz-adv-x="653" 
d="M505 688q0 12 12 12h29q12 0 12 -12v-476q0 -95 -58.5 -155t-156.5 -65q-3 0 -5 -2q-54 -49 -45 -94q10 -49 72 -36q11 3 14 -9l2 -10q3 -12 -8 -15q-41 -8 -75.5 3.5t-44.5 52.5q-13 56 41 107q5 3 -1 5q-91 10 -145 69t-54 149v476q0 12 12 12h29q12 0 12 -12v-478
q0 -77 49.5 -124t129.5 -47q81 0 130 47t49 124v478z" />
    <glyph glyph-name="uogonek" unicode="&#x173;" horiz-adv-x="537" 
d="M457 -147q11 3 14 -9l2 -10q3 -12 -8 -15q-41 -8 -75.5 3.5t-44.5 52.5q-15 65 59 122q3 3 -1 4q-7 3 -7 11v47q0 3 -2 3.5t-3 -2.5q-44 -67 -140 -67q-74 0 -123 44t-49 121v334q0 12 12 12h28q12 0 12 -12v-320q0 -60 35.5 -96t94.5 -36q61 0 98 36.5t37 95.5v320
q0 12 12 12h28q12 0 12 -12v-489q0 -4 -2 -5q0 -1 -14 -12q-56 -51 -47 -97q10 -49 72 -36z" />
    <glyph glyph-name="Wcircumflex" unicode="&#x174;" horiz-adv-x="875" 
d="M331 766q-7 0 -9.5 4.5t2.5 10.5l80 104q6 7 15 7h31q9 0 15 -7l81 -104q4 -6 2 -10.5t-10 -4.5h-21q-8 0 -14 7l-64 86q-1 1 -3 1t-3 -1l-65 -86q-6 -7 -15 -7h-22zM236 0q-11 0 -14 10l-194 677q-3 13 10 13h31q11 0 14 -10l165 -581q1 -2 2.5 -2t2.5 2l152 581
q3 10 14 10h32q11 0 14 -10l158 -581q1 -2 2.5 -2t2.5 2l166 581q3 10 14 10h29q13 0 10 -13l-194 -677q-3 -10 -14 -10h-31q-11 0 -14 10l-156 592q-2 6 -4 0l-155 -592q-3 -10 -14 -10h-29z" />
    <glyph glyph-name="wcircumflex" unicode="&#x175;" horiz-adv-x="705" 
d="M244 570q-7 0 -9.5 4.5t2.5 10.5l80 104q6 7 15 7h31q9 0 15 -7l81 -104q4 -6 2 -10.5t-10 -4.5h-21q-8 0 -14 7l-64 86q-1 1 -3 1t-3 -1l-65 -86q-6 -7 -15 -7h-22zM189 0q-11 0 -14 10l-139 480q-4 14 10 14h29q11 0 14 -10l114 -416q1 -2 2.5 -2t2.5 2l115 416
q3 10 14 10h28q11 0 14 -10l116 -415q1 -2 3 -2t3 2l115 415q3 10 14 10l29 -1q13 0 10 -13l-141 -480q-3 -10 -13 -10h-31q-11 0 -14 10l-116 398q-1 2 -3 2t-3 -2l-114 -398q-3 -10 -14 -10h-31z" />
    <glyph glyph-name="Ycircumflex" unicode="&#x176;" horiz-adv-x="554" 
d="M172 765q-7 0 -9.5 4.5t2.5 10.5l80 104q6 7 15 7h31q9 0 15 -7l81 -104q4 -6 2 -10.5t-10 -4.5h-21q-8 0 -14 7l-64 86q-1 2 -3 2t-3 -2l-65 -86q-6 -7 -15 -7h-22zM263 0q-12 0 -12 12v306q0 4 -1 5l-208 363q-8 14 9 14h29q10 0 15 -8l179 -313q1 -1 3 -1t3 1l179 313
q5 8 15 8h29q17 0 9 -14l-208 -363q-1 -1 -1 -5v-306q0 -12 -12 -12h-28z" />
    <glyph glyph-name="ycircumflex" unicode="&#x177;" horiz-adv-x="449" 
d="M120 572q-7 0 -9.5 4.5t2.5 10.5l80 104q6 7 15 7h31q9 0 15 -7l81 -104q4 -6 2 -10.5t-10 -4.5h-21q-8 0 -14 7l-64 86q-1 1 -3 1t-3 -1l-65 -86q-6 -7 -15 -7h-22zM59 -200q-7 0 -7 12v22q0 12 7 12h7q55 1 78.5 28.5t54.5 122.5q2 4 0 6l-170 487q-5 14 10 14h30
q10 0 13 -10l142 -417q1 -2 3 -2t3 2l137 417q3 10 13 10h31q15 0 10 -14l-188 -541q-33 -94 -64.5 -121.5t-102.5 -27.5h-7z" />
    <glyph glyph-name="Ydieresis" unicode="&#x178;" horiz-adv-x="554" 
d="M196 802q-18 0 -30 11.5t-12 29.5q0 17 12 28.5t30 11.5t29.5 -11.5t11.5 -28.5q0 -18 -11.5 -29.5t-29.5 -11.5zM359 802q-19 0 -31 11.5t-12 29.5q0 17 12 28.5t31 11.5q17 0 28.5 -11.5t11.5 -28.5q0 -18 -11.5 -29.5t-28.5 -11.5zM263 0q-12 0 -12 12v306q0 4 -1 5
l-208 363q-8 14 9 14h29q10 0 15 -8l179 -313q1 -1 3 -1t3 1l179 313q5 8 15 8h29q17 0 9 -14l-208 -363q-1 -1 -1 -5v-306q0 -12 -12 -12h-28z" />
    <glyph glyph-name="Zacute" unicode="&#x179;" horiz-adv-x="547" 
d="M240 787q-15 0 -8 14l59 107q5 8 15 8h27q16 0 8 -14l-64 -107q-4 -8 -14 -8h-23zM60 0q-12 0 -12 12v29q0 8 4 15l377 592q1 3 -3 5h-366q-12 0 -12 12v23q0 12 12 12h418q12 0 12 -12v-29q0 -8 -4 -15l-376 -592q-1 -3 3 -5h365q12 0 12 -12v-23q0 -12 -12 -12h-418z
" />
    <glyph glyph-name="zacute" unicode="&#x17a;" horiz-adv-x="442" 
d="M193 587q-15 0 -8 14l59 107q5 8 15 8h27q16 0 8 -14l-64 -107q-4 -8 -14 -8h-23zM48 0q-12 0 -12 12v29q0 8 5 15l297 394q2 2 1 3.5t-3 1.5h-284q-12 0 -12 12v25q0 12 12 12h340q12 0 12 -12v-29q0 -8 -5 -15l-300 -394q-2 -2 -1 -3.5t3 -1.5h290q12 0 12 -12v-25
q0 -12 -12 -12h-343z" />
    <glyph glyph-name="Zdotaccent" unicode="&#x17b;" horiz-adv-x="547" 
d="M265 800q-18 0 -29.5 11t-11.5 28t11.5 27.5t29.5 10.5q17 0 27.5 -10.5t10.5 -27.5t-10.5 -28t-27.5 -11zM60 0q-12 0 -12 12v29q0 8 4 15l377 592q1 3 -3 5h-366q-12 0 -12 12v23q0 12 12 12h418q12 0 12 -12v-29q0 -8 -4 -15l-376 -592q-1 -3 3 -5h365q12 0 12 -12
v-23q0 -12 -12 -12h-418z" />
    <glyph glyph-name="zdotaccent" unicode="&#x17c;" horiz-adv-x="442" 
d="M218 600q-18 0 -29.5 11t-11.5 28t11.5 27.5t29.5 10.5q16 0 27 -10.5t11 -27.5t-10.5 -28t-27.5 -11zM48 0q-12 0 -12 12v29q0 8 5 15l297 394q2 2 1 3.5t-3 1.5h-284q-12 0 -12 12v25q0 12 12 12h340q12 0 12 -12v-29q0 -8 -5 -15l-300 -394q-2 -2 -1 -3.5t3 -1.5h290
q12 0 12 -12v-25q0 -12 -12 -12h-343z" />
    <glyph glyph-name="Zcaron" unicode="&#x17d;" horiz-adv-x="547" 
d="M247 776q-8 0 -14 7l-78 104q-5 6 -2.5 10.5t9.5 4.5h20q9 0 15 -7l65 -86q1 -1 3 -1t3 1l65 86q6 7 14 7h20q7 0 9.5 -4.5t-2.5 -10.5l-79 -104q-6 -7 -14 -7h-34zM60 0q-12 0 -12 12v29q0 8 4 15l377 592q1 3 -3 5h-366q-12 0 -12 12v23q0 12 12 12h418q12 0 12 -12
v-29q0 -8 -4 -15l-376 -592q-1 -3 3 -5h365q12 0 12 -12v-23q0 -12 -12 -12h-418z" />
    <glyph glyph-name="zcaron" unicode="&#x17e;" horiz-adv-x="442" 
d="M200 576q-8 0 -14 7l-78 104q-5 6 -2.5 10.5t9.5 4.5h20q9 0 15 -7l65 -86q1 -1 3 -1t3 1l65 86q6 7 14 7h20q7 0 9.5 -4.5t-2.5 -10.5l-79 -104q-6 -7 -14 -7h-34zM48 0q-12 0 -12 12v29q0 8 5 15l297 394q2 2 1 3.5t-3 1.5h-284q-12 0 -12 12v25q0 12 12 12h340
q12 0 12 -12v-29q0 -8 -5 -15l-300 -394q-2 -2 -1 -3.5t3 -1.5h290q12 0 12 -12v-25q0 -12 -12 -12h-343z" />
    <glyph glyph-name="florin" unicode="&#x192;" horiz-adv-x="545" 
d="M287 536q16 98 56.5 130t144.5 34q12 0 12 -12v-23q0 -12 -12 -12h-28q-59 0 -85 -28t-36 -91l-21 -138q0 -4 3 -4h95q12 0 12 -12v-25q0 -12 -12 -12h-103q-5 0 -5 -4l-59 -375q-16 -98 -56.5 -130t-144.5 -34q-12 0 -12 12v23q0 12 12 12h28q59 0 85 28t36 91l59 373
q0 4 -3 4h-76q-12 0 -12 12v25q0 12 12 12h83q5 0 5 4z" />
    <glyph glyph-name="uni01CD" unicode="&#x1cd;" horiz-adv-x="590" 
d="M324 762q-6 -7 -14 -7h-34q-8 0 -14 7l-78 104q-5 6 -2.5 10.5t9.5 4.5h20q9 0 15 -7l65 -86q1 -2 3 -2t3 2l65 86q6 7 14 7h20q7 0 9.5 -4.5t-2.5 -10.5zM511 0q-10 0 -13 10l-43 131q-1 3 -4 3h-312q-3 0 -4 -3l-42 -131q-3 -10 -13 -10h-32q-15 0 -10 14l222 676
q3 10 13 10h43q10 0 13 -10l223 -676q5 -14 -10 -14h-31zM151 193q-3 -5 4 -5h280q7 0 4 5l-142 438q-1 2 -3 2t-3 -2z" />
    <glyph glyph-name="uni01CE" unicode="&#x1ce;" horiz-adv-x="506" 
d="M286 574q-6 -7 -14 -7h-34q-8 0 -14 7l-78 104q-5 6 -2.5 10.5t9.5 4.5h20q9 0 15 -7l65 -86q1 -2 3 -2t3 2l65 86q6 7 14 7h20q7 0 9.5 -4.5t-2.5 -10.5zM254 512q88 0 134 -45.5t46 -122.5v-332q0 -12 -12 -12h-29q-12 0 -12 12v43q0 7 -5 2q-54 -65 -161 -65
q-70 0 -117 34.5t-47 107.5q0 74 55 117t151 43h120q4 0 4 4v45q0 57 -31 89.5t-97 32.5q-51 0 -84 -20.5t-41 -55.5q-3 -12 -14 -10l-31 4q-13 2 -11 11q10 53 59 85.5t123 32.5zM225 38q63 0 109.5 31t46.5 86v91q0 4 -4 4h-114q-72 0 -115.5 -30t-43.5 -83q0 -49 34 -74
t87 -25z" />
    <glyph glyph-name="uni0218" unicode="&#x218;" horiz-adv-x="584" 
d="M297 -8q-108 0 -171.5 49.5t-63.5 132.5v31q0 12 12 12h27q12 0 12 -12v-28q0 -62 51 -100t138 -38q83 0 126.5 34.5t43.5 95.5q0 54 -42.5 89.5t-150.5 81.5q-41 17 -59.5 25.5t-48 23.5t-43 27.5t-29 31t-21 40.5t-5.5 49q0 82 56.5 126.5t156.5 44.5q110 0 171.5 -50
t61.5 -134v-21q0 -12 -12 -12h-29q-12 0 -12 12v18q0 63 -48 101.5t-135 38.5q-76 0 -117 -31.5t-41 -90.5q0 -57 38 -85.5t145 -71.5q111 -45 164 -90.5t53 -120.5q0 -81 -60 -130t-168 -49zM240 -196q-15 0 -8 14l59 107q5 8 15 8h27q16 0 8 -14l-64 -107q-4 -8 -14 -8
h-23z" />
    <glyph glyph-name="uni0219" unicode="&#x219;" horiz-adv-x="478" 
d="M244 -5q-81 0 -132 38t-51 93v11q0 12 12 12h28q12 0 12 -10v-11q0 -36 36.5 -63t93.5 -27q56 0 91.5 27t35.5 67q0 21 -9.5 36.5t-34 27.5t-39 17.5t-52.5 16.5q-42 13 -64.5 21.5t-51.5 25.5t-42 41t-13 56q0 61 48.5 97.5t127.5 36.5q80 0 129.5 -37.5t49.5 -95.5v-1
q0 -12 -12 -12h-27q-12 0 -12 7v6q0 38 -35.5 63.5t-93.5 25.5q-56 0 -90 -23.5t-34 -63.5q0 -20 9 -35t30.5 -26.5t39.5 -18t51 -16.5q36 -10 52.5 -15.5t45.5 -19t43 -26.5t25.5 -35.5t11.5 -49.5q0 -63 -49 -101.5t-130 -38.5zM193 -193q-15 0 -8 14l59 107q5 8 15 8h27
q16 0 8 -14l-64 -107q-4 -8 -14 -8h-23z" />
    <glyph glyph-name="uni021A" unicode="&#x21a;" horiz-adv-x="569" 
d="M47 688q0 12 12 12h447q12 0 12 -12v-23q0 -12 -12 -12h-198q-4 0 -4 -4v-637q0 -12 -12 -12h-29q-12 0 -12 12v637q0 4 -4 4h-188q-12 0 -12 12v23zM196 -188q-15 0 -8 14l59 107q5 8 15 8h27q16 0 8 -14l-64 -107q-4 -8 -14 -8h-23z" />
    <glyph glyph-name="uni021B" unicode="&#x21b;" horiz-adv-x="359" 
d="M297 471q0 -12 -12 -12h-115q-4 0 -4 -4v-315q0 -51 23 -71.5t74 -20.5h21q12 0 12 -12v-23q0 -12 -12 -12q-5 0 -14.5 -0.5t-13.5 -0.5q-69 0 -105 27t-37 99v329q0 4 -4 4h-58q-12 0 -12 12v21q0 12 12 12h58q4 0 4 4v112q0 12 12 12h28q12 0 12 -12v-112q0 -4 4 -4
h115q12 0 12 -12v-21zM178 -197q-15 0 -8 14l59 107q5 8 15 8h27q16 0 8 -14l-64 -107q-4 -8 -14 -8h-23z" />
    <glyph glyph-name="uni0228" unicode="&#x228;" horiz-adv-x="611" 
d="M548 665q0 -12 -12 -12h-377q-4 0 -4 -4v-270q0 -4 4 -4h267q12 0 12 -12v-23q0 -12 -12 -12h-267q-4 0 -4 -4v-273q0 -4 4 -4h377q12 0 12 -12v-23q0 -12 -12 -12h-183q-7 0 -2 -5q64 -55 49 -114q-10 -41 -44.5 -52.5t-75.5 -3.5q-11 3 -9 14l2 11q3 12 15 9
q62 -13 72 36q9 50 -55 103q-1 2 -5 2h-186q-12 0 -12 12v676q0 12 12 12h422q12 0 12 -12v-23z" />
    <glyph glyph-name="uni0229" unicode="&#x229;" horiz-adv-x="531" 
d="M272 38q100 2 136 82q6 10 16 6l18 -7q12 -5 7 -16q-19 -45 -60 -74.5t-96 -34.5q-7 -2 -2 -5q65 -57 51 -116q-10 -41 -44.5 -52.5t-75.5 -3.5q-11 3 -9 14l2 11q3 12 15 9q62 -13 72 36q11 51 -57 104q-1 2 -5 2q-57 7 -97 40t-58 86q-14 46 -14 134q0 89 8 120
q16 63 65.5 101t121.5 38q80 0 129 -42t62 -115q7 -31 7 -107q0 -13 -12 -13h-325q-4 0 -4 -4q0 -63 5 -86q11 -48 49 -77.5t95 -29.5zM130 361q-5 -19 -7 -79q0 -4 4 -4h279q4 0 4 4q0 51 -5 76q-11 48 -48 77.5t-91 29.5t-90 -28.5t-46 -75.5z" />
    <glyph glyph-name="circumflex" unicode="&#x2c6;" horiz-adv-x="244" 
d="M18 570q-7 0 -9.5 4.5t2.5 10.5l80 104q6 7 15 7h31q9 0 15 -7l81 -104q4 -6 2 -10.5t-10 -4.5h-21q-8 0 -14 7l-64 86q-1 1 -3 1t-3 -1l-65 -86q-6 -7 -15 -7h-22z" />
    <glyph glyph-name="caron" unicode="&#x2c7;" horiz-adv-x="305" 
d="M135 569q-8 0 -14 7l-78 104q-5 6 -2.5 10.5t9.5 4.5h20q9 0 15 -7l65 -86q1 -2 3 -2t3 2l65 86q6 7 14 7h20q7 0 9.5 -4.5t-2.5 -10.5l-79 -104q-6 -7 -14 -7h-34z" />
    <glyph glyph-name="uni02C9" unicode="&#x2c9;" horiz-adv-x="262" 
d="M12 598q-12 0 -12 12v16q0 12 12 12h238q12 0 12 -12v-16q0 -12 -12 -12h-238z" />
    <glyph glyph-name="breve" unicode="&#x2d8;" horiz-adv-x="275" 
d="M137 560q-40 0 -69.5 26t-34.5 65q-1 12 11 12h11q11 0 13 -12q4 -25 23.5 -42t45.5 -17t46 17t24 42q1 12 13 12h11q13 0 11 -12q-5 -39 -34.5 -65t-70.5 -26z" />
    <glyph glyph-name="dotaccent" unicode="&#x2d9;" horiz-adv-x="142" 
d="M73 591q-18 0 -29.5 11t-11.5 28t11.5 27.5t29.5 10.5q17 0 27.5 -11t10.5 -27q0 -17 -10.5 -28t-27.5 -11z" />
    <glyph glyph-name="ring" unicode="&#x2da;" horiz-adv-x="268" 
d="M134 571q-43 0 -72.5 29.5t-29.5 71.5t29.5 71t72.5 29t73 -29t30 -71t-30 -71.5t-73 -29.5zM134 603q29 0 49.5 20t20.5 49t-20.5 49t-49.5 20t-49 -20t-20 -49t20 -49t49 -20z" />
    <glyph glyph-name="ogonek" unicode="&#x2db;" horiz-adv-x="133" 
d="M131 -167q2 -11 -9 -14q-41 -8 -75.5 3.5t-44.5 52.5q-15 62 56 120q6 5 15 5h11q8 0 10 -4.5t-5 -9.5q-56 -51 -47 -97q10 -49 72 -36q12 3 15 -9z" />
    <glyph glyph-name="tilde" unicode="&#x2dc;" horiz-adv-x="340" 
d="M223 596q-25 0 -60 24q-28 21 -46 21q-29 0 -50 -26q-8 -9 -17 -3l-9 6q-10 7 -4 17q29 46 77 46q22 0 60 -23q35 -22 50 -22q30 0 49 29q8 10 17 4l9 -6q11 -7 1 -22q-30 -45 -77 -45z" />
    <glyph glyph-name="hungarumlaut" unicode="&#x2dd;" horiz-adv-x="348" 
d="M47 586q-15 0 -8 14l58 107q5 8 15 8h27q16 0 8 -14l-63 -107q-4 -8 -14 -8h-23zM208 586q-15 0 -8 14l58 107q5 8 15 8h27q16 0 8 -14l-63 -107q-4 -8 -14 -8h-23z" />
    <glyph glyph-name="gravecomb" unicode="&#x300;" 
d="M-8 592q7 -14 -8 -14h-23q-10 0 -14 8l-64 107q-8 14 8 14h27q10 0 15 -8z" />
    <glyph glyph-name="acutecomb" unicode="&#x301;" 
d="M-169 578q-15 0 -8 14l59 107q5 8 15 8h27q16 0 8 -14l-64 -107q-4 -8 -14 -8h-23z" />
    <glyph glyph-name="uni0302" unicode="&#x302;" 
d="M-226 570q-7 0 -9.5 4.5t2.5 10.5l80 104q6 7 15 7h31q9 0 15 -7l81 -104q4 -6 2 -10.5t-10 -4.5h-21q-8 0 -14 7l-64 86q-1 1 -3 1t-3 -1l-65 -86q-6 -7 -15 -7h-22z" />
    <glyph glyph-name="tildecomb" unicode="&#x303;" 
d="M-89 596q-25 0 -60 24q-28 21 -46 21q-29 0 -50 -26q-8 -9 -17 -3l-9 6q-10 7 -4 17q29 46 77 46q22 0 60 -23q35 -22 50 -22q30 0 49 29q8 10 17 4l9 -6q11 -7 1 -22q-30 -45 -77 -45z" />
    <glyph glyph-name="uni0304" unicode="&#x304;" 
d="M-250 598q-12 0 -12 12v16q0 12 12 12h238q12 0 12 -12v-16q0 -12 -12 -12h-238z" />
    <glyph glyph-name="uni0306" unicode="&#x306;" 
d="M-138 544q-40 0 -69.5 26t-34.5 65q-2 12 11 12h11q12 0 13 -12q4 -25 23.5 -42t45.5 -17t46 17t24 42q2 12 13 12h11q12 0 11 -12q-5 -39 -34.5 -65t-70.5 -26z" />
    <glyph glyph-name="uni0307" unicode="&#x307;" 
d="M-38 591q-18 0 -29.5 11t-11.5 28t11.5 27.5t29.5 10.5q16 0 27 -11t11 -27q0 -17 -10.5 -28t-27.5 -11z" />
    <glyph glyph-name="uni0308" unicode="&#x308;" 
d="M-203 607q-18 0 -30 11.5t-12 29.5q0 17 12 28.5t30 11.5t29.5 -11.5t11.5 -28.5q0 -18 -11.5 -29.5t-29.5 -11.5zM-40 607q-19 0 -31 11.5t-12 29.5q0 17 12 28.5t31 11.5q17 0 28.5 -11.5t11.5 -28.5q0 -18 -11.5 -29.5t-28.5 -11.5z" />
    <glyph glyph-name="uni030A" unicode="&#x30a;" 
d="M-101 571q-43 0 -72.5 29.5t-29.5 71.5t29.5 71t72.5 29t73 -29t30 -71t-30 -71.5t-73 -29.5zM-101 603q29 0 49.5 20t20.5 49t-20.5 49t-49.5 20t-49 -20t-20 -49t20 -49t49 -20z" />
    <glyph glyph-name="uni030B" unicode="&#x30b;" 
d="M-294 576q-15 0 -8 14l56 106q4 9 14 9h26q15 0 8 -14l-60 -107q-5 -8 -15 -8h-21zM-136 576q-15 0 -8 14l58 107q5 8 15 8h24q15 0 8 -14l-60 -107q-5 -8 -15 -8h-22z" />
    <glyph glyph-name="uni030C" unicode="&#x30c;" 
d="M-170 561q-8 0 -14 7l-78 104q-5 6 -2.5 10.5t9.5 4.5h20q9 0 15 -7l65 -86q1 -2 3 -2t3 2l65 86q6 7 14 7h20q7 0 9.5 -4.5t-2.5 -10.5l-79 -104q-6 -7 -14 -7h-34z" />
    <glyph glyph-name="uni0312" unicode="&#x312;" 
d="M-47 692q15 0 8 -14l-59 -107q-5 -8 -15 -8h-27q-16 0 -8 14l64 107q4 8 14 8h23z" />
    <glyph glyph-name="uni0313" unicode="&#x313;" 
d="M-110 578q-15 0 -8 14l59 107q5 8 15 8h27q16 0 8 -14l-64 -107q-4 -8 -14 -8h-23z" />
    <glyph glyph-name="uni0326" unicode="&#x326;" 
d="M-142 -188q-15 0 -8 14l59 107q5 8 15 8h27q16 0 8 -14l-64 -107q-4 -8 -14 -8h-23z" />
    <glyph glyph-name="uni0327" unicode="&#x327;" 
d="M-122 -181q-11 3 -9 14l2 11q3 12 15 9q62 -13 72 36q9 46 -47 97q-7 5 -6 9.5t9 4.5h13q9 0 15 -5q71 -58 56 -120q-10 -41 -44.5 -52.5t-75.5 -3.5z" />
    <glyph glyph-name="uni0328" unicode="&#x328;" 
d="M-2 -167q2 -11 -9 -14q-41 -8 -75.5 3.5t-44.5 52.5q-15 62 56 120q6 5 15 5h11q8 0 10 -4.5t-5 -9.5q-56 -51 -47 -97q10 -49 72 -36q12 3 15 -9z" />
    <glyph glyph-name="uni0335" unicode="&#x335;" 
d="M-308 602q0 12 12 12h284q12 0 12 -12v-14q0 -12 -12 -12h-284q-12 0 -12 12v14z" />
    <glyph glyph-name="uni0336" unicode="&#x336;" 
d="M-569 517q-12 0 -12 12v17q0 12 12 12h557q12 0 12 -12v-17q0 -12 -12 -12h-557z" />
    <glyph glyph-name="uni0337" unicode="&#x337;" 
d="M-379 58q-8 -7 -16 2l-12 15q-8 9 2 17l429 314q10 8 17 -2l13 -16q6 -9 -3 -17z" />
    <glyph glyph-name="uni0338" unicode="&#x338;" 
d="M-387 -36q-15 0 -9 14l347 756q4 9 14 9h20q15 0 9 -14l-347 -756q-4 -9 -14 -9h-20z" />
    <glyph glyph-name="uni0394" unicode="&#x394;" horiz-adv-x="632" 
d="M46 0q-12 0 -12 12v27q0 6 3 15l253 637q3 9 14 9h24q11 0 14 -9l253 -638q3 -9 3 -15v-26q0 -12 -12 -12h-540zM88 52q-2 -5 3 -5h450q5 0 3 5l-225 574q-1 3 -3 3t-3 -3z" />
    <glyph glyph-name="uni03A9" unicode="&#x3a9;" horiz-adv-x="643" 
d="M91 0q-12 0 -12 12v23q0 12 12 12h91q4 1 1 5q-94 57 -94 180v249q0 102 64 164.5t168 62.5t168.5 -62.5t64.5 -164.5v-249q0 -123 -94 -180q-3 -3 1 -5h91q12 0 12 -12v-23q0 -12 -12 -12h-174q-12 0 -12 12v25q0 10 11 13q49 11 86.5 59.5t37.5 115.5v257
q0 81 -49.5 130t-130.5 49q-80 0 -129.5 -49t-49.5 -130v-257q0 -67 36.5 -115.5t84.5 -59.5q11 -3 11 -13v-25q0 -12 -12 -12h-171z" />
    <glyph glyph-name="uni03BC" unicode="&#x3bc;" horiz-adv-x="544" 
d="M404 492q0 12 12 12h28q12 0 12 -12v-480q0 -12 -12 -12h-28q-12 0 -12 12v47q0 3 -2 3.5t-3 -2.5q-44 -67 -140 -67q-67 0 -114 36q-5 3 -5 -2v-215q0 -12 -12 -12h-29q-12 0 -12 12v680q0 12 12 12h29q12 0 12 -12v-339q5 -52 39.5 -82.5t89.5 -30.5q61 0 98 36.5
t37 95.5v320z" />
    <glyph glyph-name="pi" unicode="&#x3c0;" horiz-adv-x="641" 
d="M600 470q0 -12 -12 -12h-73q-4 0 -4 -4v-312q0 -54 14.5 -73t50.5 -21q12 0 12 -12v-23q0 -12 -12 -12q-57 2 -87.5 26.5t-30.5 95.5v331q0 4 -4 4h-258q-4 0 -4 -4v-442q0 -12 -12 -12h-29q-12 0 -12 12v442q0 4 -4 4h-81q-12 0 -12 12v22q0 12 12 12h534q12 0 12 -12
v-22z" />
    <glyph glyph-name="Wgrave" unicode="&#x1e80;" horiz-adv-x="875" 
d="M450 788q7 -14 -8 -14h-23q-10 0 -14 8l-64 107q-8 14 8 14h27q10 0 15 -8zM236 0q-11 0 -14 10l-194 677q-3 13 10 13h31q11 0 14 -10l165 -581q1 -2 2.5 -2t2.5 2l152 581q3 10 14 10h32q11 0 14 -10l158 -581q1 -2 2.5 -2t2.5 2l166 581q3 10 14 10h29q13 0 10 -13
l-194 -677q-3 -10 -14 -10h-31q-11 0 -14 10l-156 592q-2 6 -4 0l-155 -592q-3 -10 -14 -10h-29z" />
    <glyph glyph-name="wgrave" unicode="&#x1e81;" horiz-adv-x="705" 
d="M363 592q7 -14 -8 -14h-23q-10 0 -14 8l-64 107q-8 14 8 14h27q10 0 15 -8zM189 0q-11 0 -14 10l-139 480q-4 14 10 14h29q11 0 14 -10l114 -416q1 -2 2.5 -2t2.5 2l115 416q3 10 14 10h28q11 0 14 -10l116 -415q1 -2 3 -2t3 2l115 415q3 10 14 10l29 -1q13 0 10 -13
l-141 -480q-3 -10 -13 -10h-31q-11 0 -14 10l-116 398q-1 2 -3 2t-3 -2l-114 -398q-3 -10 -14 -10h-31z" />
    <glyph glyph-name="Wacute" unicode="&#x1e82;" horiz-adv-x="875" 
d="M411 774q-15 0 -8 14l59 107q5 8 15 8h27q16 0 8 -14l-64 -107q-4 -8 -14 -8h-23zM236 0q-11 0 -14 10l-194 677q-3 13 10 13h31q11 0 14 -10l165 -581q1 -2 2.5 -2t2.5 2l152 581q3 10 14 10h32q11 0 14 -10l158 -581q1 -2 2.5 -2t2.5 2l166 581q3 10 14 10h29
q13 0 10 -13l-194 -677q-3 -10 -14 -10h-31q-11 0 -14 10l-156 592q-2 6 -4 0l-155 -592q-3 -10 -14 -10h-29z" />
    <glyph glyph-name="wacute" unicode="&#x1e83;" horiz-adv-x="705" 
d="M324 578q-15 0 -8 14l59 107q5 8 15 8h27q16 0 8 -14l-64 -107q-4 -8 -14 -8h-23zM189 0q-11 0 -14 10l-139 480q-4 14 10 14h29q11 0 14 -10l114 -416q1 -2 2.5 -2t2.5 2l115 416q3 10 14 10h28q11 0 14 -10l116 -415q1 -2 3 -2t3 2l115 415q3 10 14 10l29 -1
q13 0 10 -13l-141 -480q-3 -10 -13 -10h-31q-11 0 -14 10l-116 398q-1 2 -3 2t-3 -2l-114 -398q-3 -10 -14 -10h-31z" />
    <glyph glyph-name="Wdieresis" unicode="&#x1e84;" horiz-adv-x="875" 
d="M355 803q-18 0 -30 11.5t-12 29.5q0 17 12 28.5t30 11.5t29.5 -11.5t11.5 -28.5q0 -18 -11.5 -29.5t-29.5 -11.5zM518 803q-19 0 -31 11.5t-12 29.5q0 17 12 28.5t31 11.5q17 0 28.5 -11.5t11.5 -28.5q0 -18 -11.5 -29.5t-28.5 -11.5zM236 0q-11 0 -14 10l-194 677
q-3 13 10 13h31q11 0 14 -10l165 -581q1 -2 2.5 -2t2.5 2l152 581q3 10 14 10h32q11 0 14 -10l158 -581q1 -2 2.5 -2t2.5 2l166 581q3 10 14 10h29q13 0 10 -13l-194 -677q-3 -10 -14 -10h-31q-11 0 -14 10l-156 592q-2 6 -4 0l-155 -592q-3 -10 -14 -10h-29z" />
    <glyph glyph-name="wdieresis" unicode="&#x1e85;" horiz-adv-x="705" 
d="M268 607q-18 0 -30 11.5t-12 29.5q0 17 12 28.5t30 11.5t29.5 -11.5t11.5 -28.5q0 -18 -11.5 -29.5t-29.5 -11.5zM431 607q-19 0 -31 11.5t-12 29.5q0 17 12 28.5t31 11.5q17 0 28.5 -11.5t11.5 -28.5q0 -18 -11.5 -29.5t-28.5 -11.5zM189 0q-11 0 -14 10l-139 480
q-4 14 10 14h29q11 0 14 -10l114 -416q1 -2 2.5 -2t2.5 2l115 416q3 10 14 10h28q11 0 14 -10l116 -415q1 -2 3 -2t3 2l115 415q3 10 14 10l29 -1q13 0 10 -13l-141 -480q-3 -10 -13 -10h-31q-11 0 -14 10l-116 398q-1 2 -3 2t-3 -2l-114 -398q-3 -10 -14 -10h-31z" />
    <glyph glyph-name="Ygrave" unicode="&#x1ef2;" horiz-adv-x="554" 
d="M291 787q7 -14 -8 -14h-23q-10 0 -14 8l-64 107q-8 14 8 14h27q10 0 15 -8zM263 0q-12 0 -12 12v306q0 4 -1 5l-208 363q-8 14 9 14h29q10 0 15 -8l179 -313q1 -1 3 -1t3 1l179 313q5 8 15 8h29q17 0 9 -14l-208 -363q-1 -1 -1 -5v-306q0 -12 -12 -12h-28z" />
    <glyph glyph-name="ygrave" unicode="&#x1ef3;" horiz-adv-x="449" 
d="M239 594q7 -14 -8 -14h-23q-10 0 -14 8l-64 107q-8 14 8 14h27q10 0 15 -8zM59 -200q-7 0 -7 12v22q0 12 7 12h7q55 1 78.5 28.5t54.5 122.5q2 4 0 6l-170 487q-5 14 10 14h30q10 0 13 -10l142 -417q1 -2 3 -2t3 2l137 417q3 10 13 10h31q15 0 10 -14l-188 -541
q-33 -94 -64.5 -121.5t-102.5 -27.5h-7z" />
    <glyph glyph-name="endash" unicode="&#x2013;" horiz-adv-x="444" 
d="M54 258q-12 0 -12 12v24q0 12 12 12h336q12 0 12 -12v-24q0 -12 -12 -12h-336z" />
    <glyph glyph-name="emdash" unicode="&#x2014;" horiz-adv-x="692" 
d="M54 259q-12 0 -12 12v23q0 12 12 12h585q12 0 12 -12v-23q0 -12 -12 -12h-585z" />
    <glyph glyph-name="quoteleft" unicode="&#x2018;" horiz-adv-x="124" 
d="M15 501q-14 0 -9 14l70 176q3 9 14 9h20q14 0 9 -14l-60 -175q-3 -10 -13 -10h-31z" />
    <glyph glyph-name="quoteright" unicode="&#x2019;" horiz-adv-x="124" 
d="M109 700q14 0 9 -14l-70 -176q-3 -9 -14 -9h-20q-14 0 -9 14l60 175q3 10 13 10h31z" />
    <glyph glyph-name="quotesinglbase" unicode="&#x201a;" horiz-adv-x="600" 
d="M86 -74q-14 0 -11 13l46 204q2 11 13 11h24q14 0 11 -13l-53 -205q-3 -10 -14 -10h-16z" />
    <glyph glyph-name="quotedblleft" unicode="&#x201c;" horiz-adv-x="242" 
d="M15 501q-15 0 -10 14l68 176q3 9 14 9h19q15 0 10 -14l-58 -175q-3 -10 -13 -10h-30zM137 501q-15 0 -10 14l68 176q3 9 14 9h19q15 0 10 -14l-58 -175q-3 -10 -13 -10h-30z" />
    <glyph glyph-name="quotedblright" unicode="&#x201d;" horiz-adv-x="242" 
d="M105 700q15 0 10 -14l-68 -176q-3 -9 -14 -9h-19q-15 0 -10 14l58 175q3 10 13 10h30zM227 700q15 0 10 -14l-68 -176q-3 -9 -14 -9h-19q-15 0 -10 14l58 175q3 10 13 10h30z" />
    <glyph glyph-name="quotedblbase" unicode="&#x201e;" horiz-adv-x="247" 
d="M105 127q15 0 10 -14l-68 -176q-3 -9 -14 -9h-19q-15 0 -10 14l58 175q3 10 13 10h30zM227 127q15 0 10 -14l-68 -176q-3 -9 -14 -9h-19q-15 0 -10 14l58 175q3 10 13 10h30z" />
    <glyph glyph-name="dagger" unicode="&#x2020;" horiz-adv-x="422" 
d="M368 458q12 0 12 -12v-20q0 -12 -12 -12h-127q-4 0 -4 -4v-598q0 -12 -12 -12h-29q-12 0 -12 12v598q0 4 -4 4h-126q-12 0 -12 12v20q0 12 12 12h126q4 0 4 4v226q0 12 12 12h29q12 0 12 -12v-226q0 -4 4 -4h127z" />
    <glyph glyph-name="daggerdbl" unicode="&#x2021;" horiz-adv-x="422" 
d="M380 426q0 -12 -12 -12h-127q-4 0 -4 -4v-320q0 -4 4 -4h127q12 0 12 -12v-20q0 -12 -12 -12h-127q-4 0 -4 -4v-226q0 -12 -12 -12h-29q-12 0 -12 12v226q0 4 -4 4h-126q-12 0 -12 12v20q0 12 12 12h126q4 0 4 4v320q0 4 -4 4h-126q-12 0 -12 12v20q0 12 12 12h126
q4 0 4 4v226q0 12 12 12h29q12 0 12 -12v-226q0 -4 4 -4h127q12 0 12 -12v-20z" />
    <glyph glyph-name="bullet" unicode="&#x2022;" horiz-adv-x="307" 
d="M154 153q-46 0 -79 33t-33 79t32.5 78.5t79.5 32.5q45 0 78 -32.5t33 -78.5t-33 -79t-78 -33z" />
    <glyph glyph-name="ellipsis" unicode="&#x2026;" horiz-adv-x="776" 
d="M135 4q-23 0 -38.5 15.5t-15.5 37.5q0 21 16.5 36.5t37.5 15.5q22 0 38.5 -15.5t16.5 -36.5q0 -22 -16 -37.5t-39 -15.5zM388 4q-23 0 -38.5 15.5t-15.5 37.5q0 21 16.5 36.5t37.5 15.5q22 0 38.5 -15.5t16.5 -36.5q0 -22 -16 -37.5t-39 -15.5zM636 4q-23 0 -38.5 15.5
t-15.5 37.5q0 21 16.5 36.5t37.5 15.5q22 0 38.5 -15.5t16.5 -36.5q0 -22 -16 -37.5t-39 -15.5z" />
    <glyph glyph-name="perthousand" unicode="&#x2030;" horiz-adv-x="1130" 
d="M160 277q-57 0 -91 33t-34 88v190q0 55 34 87.5t91 32.5t92 -32.5t35 -87.5v-190q0 -55 -35 -88t-92 -33zM190 0q-16 0 -8 14l431 678q5 8 14 8h18q16 0 8 -14l-431 -678q-5 -8 -14 -8h-18zM160 313q39 0 63 22.5t24 59.5v196q0 37 -24 59.5t-63 22.5q-38 0 -61.5 -22.5
t-23.5 -59.5v-196q0 -37 23.5 -59.5t61.5 -22.5zM660 -8q-57 0 -91 33t-34 88v190q0 55 34 87.5t91 32.5t92 -32.5t35 -87.5v-190q0 -55 -35 -88t-92 -33zM975 -8q-57 0 -91 33t-34 88v190q0 55 34 87.5t91 32.5t92 -32.5t35 -87.5v-190q0 -55 -35 -88t-92 -33zM660 28
q39 0 63 22.5t24 59.5v196q0 37 -24 59.5t-63 22.5q-38 0 -61.5 -22.5t-23.5 -59.5v-196q0 -37 23.5 -59.5t61.5 -22.5zM975 28q39 0 63 22.5t24 59.5v196q0 37 -24 59.5t-63 22.5q-38 0 -61.5 -22.5t-23.5 -59.5v-196q0 -37 23.5 -59.5t61.5 -22.5z" />
    <glyph glyph-name="guilsinglleft" unicode="&#x2039;" horiz-adv-x="370" 
d="M256 122q5 -6 2.5 -10.5t-9.5 -4.5h-27q-9 0 -15 7l-130 159q-6 8 0 16l130 159q6 7 15 7h27q7 0 9.5 -4.5t-2.5 -10.5l-130 -156q-2 -3 0 -6z" />
    <glyph glyph-name="guilsinglright" unicode="&#x203a;" horiz-adv-x="400" 
d="M121 107q-7 0 -9.5 4.5t2.5 10.5l130 156q2 3 0 6l-130 156q-5 6 -2.5 10.5t9.5 4.5h27q9 0 15 -7l130 -159q6 -8 0 -16l-130 -159q-6 -7 -15 -7h-27z" />
    <glyph glyph-name="fraction" unicode="&#x2044;" horiz-adv-x="239" 
d="M-104 0q-16 0 -8 14l431 678q5 8 14 8h18q16 0 8 -14l-431 -678q-5 -8 -14 -8h-18z" />
    <glyph glyph-name="uni2074" unicode="&#x2074;" horiz-adv-x="329" 
d="M280 601q12 0 12 -12v-13q0 -12 -12 -12h-17q-4 0 -4 -4v-99q0 -12 -12 -12h-17q-12 0 -12 12v99q0 4 -4 4h-172q-12 0 -12 12v12q0 8 3 15l120 257q4 9 14 9h16q15 0 9 -14l-115 -249q-3 -5 3 -5h134q4 0 4 4v91q0 12 12 12h17q12 0 12 -12v-91q0 -4 4 -4h17z" />
    <glyph glyph-name="uni2075" unicode="&#x2075;" horiz-adv-x="299" 
d="M260 644q13 -33 13 -69q0 -39 -13 -68q-28 -66 -107 -66q-42 0 -71 21.5t-41 58.5q-5 18 -5 31q-2 12 11 12h18q11 0 12 -9v-4l3 -16q5 -26 25 -42t48 -16q50 0 68 43q11 24 11 54q0 33 -11 58q-19 40 -66 40q-53 0 -73 -36l-1 -2l-1 -2q-3 -8 -12 -8h-20q-12 0 -12 12
v218q0 12 12 12h195q12 0 12 -12v-11q0 -12 -12 -12h-163q-4 0 -4 -4v-142q0 -6 5 -3q31 26 79 26q72 0 100 -64z" />
    <glyph glyph-name="uni2076" unicode="&#x2076;" horiz-adv-x="308" 
d="M272 629q5 -19 5 -54q0 -36 -5 -54q-11 -36 -41.5 -58t-72.5 -22t-70.5 22t-40.5 58q-7 20 -7 55v184q0 52 32 81.5t86 29.5q49 0 80 -28.5t31 -74.5v-2q0 -12 -12 -12h-17q-12 0 -12 6v5q0 30 -20 50t-50 20q-35 0 -56.5 -21t-21.5 -58v-82q0 -7 5 -2q30 35 79 35
q39 0 68 -21.5t40 -56.5zM233 533q4 16 4 41t-4 40q-5 26 -25 42t-50 16q-28 0 -47.5 -16t-25.5 -41q-4 -12 -4 -41q0 -23 3 -41q5 -25 25.5 -40.5t48.5 -15.5q60 0 75 56z" />
    <glyph glyph-name="uni2077" unicode="&#x2077;" horiz-adv-x="273" 
d="M91 449q-15 0 -10 14l134 366q3 5 -3 5h-161q-4 0 -4 -4v-29q0 -12 -12 -12h-10q-12 0 -12 12v56q0 12 12 12h223q12 0 12 -12v-15q0 -6 -3 -15l-134 -368q-3 -10 -14 -10h-18z" />
    <glyph glyph-name="uni2078" unicode="&#x2078;" horiz-adv-x="311" 
d="M220 672q-4 -3 0 -6q37 -19 47 -55q6 -20 6 -48q0 -26 -5 -45q-11 -34 -41.5 -55.5t-72.5 -21.5q-41 0 -70.5 21t-41.5 56q-7 21 -7 46q0 21 8 46q10 36 45 56q4 3 0 6q-32 19 -45 53q-7 19 -7 38q0 22 7 39q28 70 111 70q87 0 113 -71q7 -18 7 -38q0 -17 -7 -37
q-13 -35 -47 -54zM75 761q0 -6 4 -22q14 -53 75 -53q62 0 74 46q2 6 4 14q1 5 1 15q0 15 -3 23q-6 25 -26.5 39t-49.5 14q-60 0 -74 -53q-5 -13 -5 -23zM232 567q0 21 -2 28q-5 26 -25.5 42.5t-50.5 16.5q-29 0 -48.5 -16t-25.5 -43q-4 -15 -4 -29q0 -13 3 -31
q5 -27 25 -42.5t50 -15.5t50.5 16t25.5 42q2 11 2 32z" />
    <glyph glyph-name="uni2079" unicode="&#x2079;" horiz-adv-x="308" 
d="M261 791q7 -20 7 -55v-184q0 -52 -32 -81.5t-86 -29.5q-49 0 -80 28.5t-31 74.5v2q0 12 12 12h17q12 0 12 -5v-6q0 -30 20 -50t50 -20q35 0 56.5 21t21.5 58v82q0 7 -5 2q-30 -35 -79 -35q-39 0 -68 21.5t-40 56.5q-5 19 -5 54q0 36 5 54q11 36 41.5 58t72.5 22t70.5 -22
t40.5 -58zM223 697q4 12 4 41q0 23 -3 41q-5 25 -25.5 40.5t-48.5 15.5q-60 0 -75 -56q-4 -16 -4 -41t4 -40q5 -26 25 -42t50 -16q28 0 47.5 16t25.5 41z" />
    <glyph glyph-name="franc" unicode="&#x20a3;" horiz-adv-x="655" 
d="M631 665q0 -12 -12 -12h-376q-4 0 -4 -4v-270q0 -4 4 -4h266q12 0 12 -12v-23q0 -12 -12 -12h-266q-4 0 -4 -4v-137q0 -4 4 -4h155q12 0 12 -12v-14q0 -12 -12 -12h-155q-4 0 -4 -4v-129q0 -12 -12 -12h-29q-12 0 -12 12v129q0 4 -4 4h-68q-12 0 -12 12v14q0 12 12 12h68
q4 0 4 4v501q0 12 12 12h421q12 0 12 -12v-23z" />
    <glyph glyph-name="Euro" unicode="&#x20ac;" horiz-adv-x="636" 
d="M365 38q60 0 99.5 33t47.5 89q1 12 13 10l28 -5q13 -2 11 -14q-11 -73 -64.5 -116.5t-134.5 -43.5q-91 0 -146.5 54t-55.5 143v82q0 4 -4 4h-68q-12 0 -12 12v10q0 12 12 12h68q4 0 4 4v73q0 4 -4 4h-68q-12 0 -12 12v10q0 12 12 12h68q4 0 4 4v86q0 88 55 141.5
t147 53.5q83 0 136.5 -44t62.5 -119q2 -12 -11 -14l-29 -4q-11 -2 -13 11q-7 56 -46.5 89.5t-99.5 33.5q-67 0 -108 -40t-41 -106v-88q0 -4 4 -4h249q15 0 10 -14l-4 -11q-3 -9 -14 -9h-241q-4 0 -4 -4v-73q0 -4 4 -4h215q15 0 10 -14l-4 -11q-3 -9 -14 -9h-207q-4 0 -4 -4
v-85q0 -66 41 -106.5t108 -40.5z" />
    <glyph glyph-name="uni20BA" unicode="&#x20ba;" horiz-adv-x="635" 
d="M511 253q0 12 12 12h29q12 0 12 -12q-5 -94 -72.5 -163t-180.5 -84q-43 -6 -92 -6q-12 0 -12 12v308q0 2 -1.5 3.5t-2.5 0.5l-102 -29q-12 -3 -15 9l-3 11q-3 12 8 15l113 32q3 2 3 5v62q0 2 -1.5 3.5t-2.5 0.5l-102 -29q-12 -3 -15 9l-3 11q-3 12 8 15l113 32q3 1 3 5
v212q0 12 12 12h29q12 0 12 -12v-196q0 -2 1.5 -3.5t2.5 -0.5l134 38q12 3 15 -9l3 -11q3 -12 -8 -15l-145 -41q-3 -2 -3 -5v-62q0 -2 1.5 -3.5t2.5 -0.5l134 38q12 3 15 -9l3 -11q3 -12 -8 -15l-145 -41q-3 -1 -3 -5v-286q0 -4 5 -4q107 6 174 64.5t72 142.5z" />
    <glyph glyph-name="uni20BD" unicode="&#x20bd;" horiz-adv-x="699" 
d="M469 324h-209q-4 0 -4 -4v-91q0 -4 4 -4h251q12 0 12 -12v-13q0 -12 -12 -12h-251q-4 0 -4 -4v-172q0 -12 -12 -12h-29q-12 0 -12 12v172q0 4 -4 4h-85q-12 0 -12 12v13q0 12 12 12h85q4 0 4 4v91q0 4 -4 4h-85q-12 0 -12 12v21q0 12 12 12h85q4 0 4 4v317q0 12 12 12
h255q85 0 137.5 -52.5t52.5 -137.5t-53 -136.5t-138 -51.5zM260 654q-4 0 -4 -4v-277q0 -4 4 -4h206q64 0 102.5 39t38.5 103q0 65 -38.5 104t-102.5 39h-206z" />
    <glyph glyph-name="uni2113" unicode="&#x2113;" horiz-adv-x="502" 
d="M299 34q47 0 84 29q10 7 16 -3l8 -16q5 -11 -2 -16q-39 -36 -114 -36q-61 0 -95 39.5t-34 110.5l-1 118q-1 4 -5 2l-39 -31q-10 -10 -17 3l-8 13q-5 9 3 17l64 50q2 2 2 5l-1 184q-1 77 37.5 138.5t98.5 66.5q50 4 83.5 -32.5t33.5 -93.5q0 -40 -16 -77.5t-48 -74
t-62.5 -63.5t-77.5 -63q-2 -2 -2 -5l1 -151q0 -114 91 -114zM206 497l1 -139q0 -5 5 -2q75 60 116.5 112.5t41.5 109.5q0 41 -20.5 67t-52.5 22q-38 -5 -64.5 -52.5t-26.5 -117.5z" />
    <glyph glyph-name="trademark" unicode="&#x2122;" horiz-adv-x="654" 
d="M36 668q-12 0 -12 12v8q0 12 12 12h220q12 0 12 -12v-8q0 -12 -12 -12h-90q-4 0 -4 -4v-303q0 -12 -12 -12h-13q-12 0 -12 12v303q0 4 -4 4h-85zM562 692q5 8 14 8h15q12 0 12 -12v-327q0 -12 -12 -12h-12q-12 0 -12 12v269q0 3 -1.5 4t-3.5 -2l-73 -111q-5 -8 -14 -8h-1
q-9 0 -14 8l-73 111q-1 3 -3 2t-2 -4v-269q0 -12 -12 -12h-12q-12 0 -12 12v327q0 12 12 12h15q9 0 14 -8l84 -131q1 -1 3 -1t3 1z" />
    <glyph glyph-name="uni2126" unicode="&#x2126;" horiz-adv-x="643" 
d="M91 0q-12 0 -12 12v23q0 12 12 12h91q4 1 1 5q-94 57 -94 180v249q0 102 64 164.5t168 62.5t168.5 -62.5t64.5 -164.5v-249q0 -123 -94 -180q-3 -3 1 -5h91q12 0 12 -12v-23q0 -12 -12 -12h-174q-12 0 -12 12v25q0 10 11 13q49 11 86.5 59.5t37.5 115.5v257
q0 81 -49.5 130t-130.5 49q-80 0 -129.5 -49t-49.5 -130v-257q0 -67 36.5 -115.5t84.5 -59.5q11 -3 11 -13v-25q0 -12 -12 -12h-171z" />
    <glyph glyph-name="estimated" unicode="&#x212e;" horiz-adv-x="886" 
d="M443 708q159 0 262 -102.5t103 -258.5q0 -4 -12 -4h-630q-4 0 -4 -4v-179q0 -3 2 -5q45 -65 117.5 -101.5t161.5 -36.5q96 0 174.5 45.5t121.5 122.5q6 8 15 8h4q16 0 9 -14q-46 -86 -131.5 -136.5t-192.5 -50.5q-158 0 -261 101.5t-103 253.5q0 156 103 258.5t261 102.5
zM165 545q-2 -1 -2 -5v-168q0 -4 4 -4h552q4 0 4 4v167q0 3 -2 5q-45 65 -117 102t-161 37t-161 -36.5t-117 -101.5z" />
    <glyph glyph-name="oneeighth" unicode="&#x215b;" horiz-adv-x="783" 
d="M133 292q0 -12 -12 -12h-17q-12 0 -12 12v363q0 2 -1.5 3.5t-2.5 0.5l-35 -9q-13 -3 -13 10v7q0 9 9 14l36 16q7 3 15 3h21q12 0 12 -12v-396zM539 692q5 8 14 8h18q16 0 8 -14l-431 -678q-5 -8 -14 -8h-18q-16 0 -8 14zM692 223q-4 -3 0 -6q37 -19 47 -55q6 -20 6 -48
q0 -26 -5 -45q-11 -34 -41.5 -55.5t-72.5 -21.5q-41 0 -70.5 21t-41.5 56q-7 21 -7 46q0 21 8 46q10 36 45 56q4 3 0 6q-32 19 -45 53q-7 19 -7 38q0 22 7 39q28 70 111 70q87 0 113 -71q7 -18 7 -38q0 -17 -7 -37q-13 -35 -47 -54zM547 312q0 -6 4 -22q14 -53 75 -53
q62 0 74 46q2 6 4 14q1 5 1 15q0 15 -3 23q-6 25 -26.5 39t-49.5 14q-60 0 -74 -53q-5 -13 -5 -23zM704 118q0 21 -2 28q-5 26 -25.5 42.5t-50.5 16.5q-29 0 -48.5 -16t-25.5 -43q-4 -15 -4 -29q0 -13 3 -31q5 -27 25 -42.5t50 -15.5t50.5 16t25.5 42q2 11 2 32z" />
    <glyph glyph-name="threeeighths" unicode="&#x215c;" horiz-adv-x="885" 
d="M265 343q-29 -60 -105 -60q-42 0 -71 22t-41 59q-5 17 -7 39q0 12 12 12h17q12 0 12 -12q2 -20 4 -27q5 -26 25 -41.5t49 -15.5q46 0 66 38q13 26 13 59q0 40 -14 66q-20 38 -65 38q-5 0 -15 -2q-11 -3 -17 4l-7 8q-7 8 0 17l102 120q2 1 1 3t-3 2h-164q-12 0 -12 12v12
q0 12 12 12h208q12 0 12 -12v-16q0 -9 -5 -14l-93 -113q-2 -1 -1 -3t3 -2q57 -5 83 -53q15 -33 15 -79q0 -42 -14 -73zM641 692q5 8 14 8h18q16 0 8 -14l-431 -678q-5 -8 -14 -8h-18q-16 0 -8 14zM794 223q-4 -3 0 -6q37 -19 47 -55q6 -20 6 -48q0 -26 -5 -45
q-11 -34 -41.5 -55.5t-72.5 -21.5q-41 0 -70.5 21t-41.5 56q-7 21 -7 46q0 21 8 46q10 36 45 56q4 3 0 6q-32 19 -45 53q-7 19 -7 38q0 22 7 39q28 70 111 70q87 0 113 -71q7 -18 7 -38q0 -17 -7 -37q-13 -35 -47 -54zM649 312q0 -6 4 -22q14 -53 75 -53q62 0 74 46
q2 6 4 14q1 5 1 15q0 15 -3 23q-6 25 -26.5 39t-49.5 14q-60 0 -74 -53q-5 -13 -5 -23zM806 118q0 21 -2 28q-5 26 -25.5 42.5t-50.5 16.5q-29 0 -48.5 -16t-25.5 -43q-4 -15 -4 -29q0 -13 3 -31q5 -27 25 -42.5t50 -15.5t50.5 16t25.5 42q2 11 2 32z" />
    <glyph glyph-name="fiveeighths" unicode="&#x215d;" horiz-adv-x="854" 
d="M610 692q5 8 14 8h18q16 0 8 -14l-431 -678q-5 -8 -14 -8h-18q-16 0 -8 14zM260 340q-28 -66 -107 -66q-42 0 -71 21.5t-41 58.5q-5 18 -5 31q-2 12 11 12h18q11 0 12 -9v-4l3 -16q5 -26 25 -42t48 -16q50 0 68 43q11 24 11 54q0 33 -11 58q-19 40 -66 40q-53 0 -73 -36
q0 -1 -1 -2t-1 -2q-3 -8 -12 -8h-20q-12 0 -12 12v218q0 12 12 12h195q12 0 12 -12v-11q0 -12 -12 -12h-163q-4 0 -4 -4v-142q0 -6 5 -3q31 26 79 26q72 0 100 -64q13 -33 13 -69q0 -39 -13 -68zM763 223q-5 -3 0 -6q37 -19 47 -55q6 -20 6 -48q0 -26 -5 -45
q-11 -34 -41.5 -55.5t-72.5 -21.5q-41 0 -70.5 21t-41.5 56q-7 21 -7 46q0 21 8 46q10 36 45 56q5 3 0 6q-32 19 -45 53q-7 19 -7 38q0 22 7 39q28 70 111 70q87 0 113 -71q7 -18 7 -38q0 -17 -7 -37q-13 -35 -47 -54zM618 312q0 -6 4 -22q14 -53 75 -53q29 0 49 12.5
t25 33.5q2 6 4 14q1 5 1 15q0 15 -3 23q-6 25 -26.5 39t-49.5 14q-60 0 -74 -53q-5 -13 -5 -23zM775 118q0 21 -2 28q-5 26 -25.5 42.5t-50.5 16.5q-29 0 -48.5 -16t-25.5 -43q-4 -15 -4 -29q0 -13 3 -31q5 -27 25 -42.5t50 -15.5t50.5 16t25.5 42q2 11 2 32z" />
    <glyph glyph-name="seveneighths" unicode="&#x215e;" horiz-adv-x="788" 
d="M123 290q-3 -10 -14 -10h-18q-15 0 -10 14l134 366q3 5 -3 5h-161q-4 0 -4 -4v-29q0 -12 -12 -12h-10q-12 0 -12 12v56q0 12 12 12h223q12 0 12 -12v-15q0 -6 -3 -15zM544 692q5 8 14 8h18q16 0 8 -14l-431 -678q-5 -8 -14 -8h-18q-16 0 -8 14zM697 223q-5 -3 0 -6
q37 -19 47 -55q6 -20 6 -48q0 -26 -5 -45q-11 -34 -41.5 -55.5t-72.5 -21.5q-41 0 -70.5 21t-41.5 56q-7 21 -7 46q0 21 8 46q10 36 45 56q5 3 0 6q-32 19 -45 53q-7 19 -7 38q0 22 7 39q28 70 111 70q87 0 113 -71q7 -18 7 -38q0 -17 -7 -37q-13 -35 -47 -54zM552 312
q0 -6 4 -22q14 -53 75 -53q29 0 49 12.5t25 33.5q2 6 4 14q1 5 1 15q0 15 -3 23q-6 25 -26.5 39t-49.5 14q-60 0 -74 -53q-5 -13 -5 -23zM709 118q0 21 -2 28q-5 26 -25.5 42.5t-50.5 16.5q-29 0 -48.5 -16t-25.5 -43q-4 -15 -4 -29q0 -13 3 -31q5 -27 25 -42.5t50 -15.5
t50.5 16t25.5 42q2 11 2 32z" />
    <glyph glyph-name="partialdiff" unicode="&#x2202;" horiz-adv-x="584" 
d="M422 625q76 -102 74 -297q-2 -336 -228 -336q-91 0 -146 58t-55 157t61 160.5t150 61.5q95 -1 160 -70q5 -3 5 2q-8 157 -61 231q-40 56 -108 65q-64 6 -117 -29q-11 -8 -16 5l-8 23q-3 11 5 16q62 41 138 34q92 -8 146 -81zM271 39q159 0 172 237q0 4 -1 5
q-22 44 -64 73t-95 28q-69 0 -116 -48.5t-47 -125.5q0 -76 41.5 -122.5t109.5 -46.5z" />
    <glyph glyph-name="uni2206" unicode="&#x2206;" horiz-adv-x="632" 
d="M46 0q-12 0 -12 12v27q0 6 3 15l253 637q3 9 14 9h24q11 0 14 -9l253 -638q3 -9 3 -15v-26q0 -12 -12 -12h-540zM88 51q-2 -5 3 -5h450q5 0 3 5l-225 575q-1 3 -3 3t-3 -3z" />
    <glyph glyph-name="product" unicode="&#x220f;" horiz-adv-x="659" 
d="M546 800q12 0 12 -12v-976q0 -12 -12 -12h-29q-12 0 -12 12v937q0 4 -4 4h-342q-4 0 -4 -4v-937q0 -12 -12 -12h-29q-12 0 -12 12v976q0 12 12 12h432z" />
    <glyph glyph-name="summation" unicode="&#x2211;" horiz-adv-x="617" 
d="M114 -199q-12 0 -12 12v26q0 8 4 15l243 440q1 3 0 6l-242 365q-4 7 -4 15v26q0 12 12 12h426q12 0 12 -12v-22q0 -12 -12 -12h-376q-2 0 -3 -2t0 -3l242 -362q4 -7 0 -16l-242 -437q-2 -5 2 -5h377q12 0 12 -12v-22q0 -12 -12 -12h-427z" />
    <glyph glyph-name="minus" unicode="&#x2212;" horiz-adv-x="504" 
d="M54 293q-12 0 -12 12v22q0 12 12 12h396q12 0 12 -12v-22q0 -12 -12 -12h-396z" />
    <glyph glyph-name="uni2215" unicode="&#x2215;" horiz-adv-x="473" 
d="M48 0q-15 0 -9 14l349 677q4 9 14 9h24q15 0 9 -14l-348 -677q-5 -9 -14 -9h-25z" />
    <glyph glyph-name="uni2219" unicode="&#x2219;" horiz-adv-x="307" 
d="M154 202q-46 0 -79 33t-33 80q0 46 32.5 78t79.5 32q45 0 78 -32t33 -78t-33 -79.5t-78 -33.5z" />
    <glyph glyph-name="radical" unicode="&#x221a;" horiz-adv-x="718" 
d="M174 -200q-11 0 -14 10l-124 341q-4 11 8 15l26 8q12 4 15 -7l99 -275q1 -2 2.5 -2t2.5 2l239 887q3 10 14 10h177q12 0 12 -12v-22q0 -12 -12 -12h-142q-4 0 -5 -3l-251 -930q-3 -10 -14 -10h-33z" />
    <glyph glyph-name="infinity" unicode="&#x221e;" horiz-adv-x="728" 
d="M534 471q66 0 109 -44t43 -109t-43 -108t-112 -43q-54 0 -93.5 28t-76.5 81q-3 3 -6 0q-38 -51 -76 -80t-88 -29q-63 0 -106 44t-43 109q0 64 43 107.5t109 43.5q52 0 89 -28.5t72 -80.5q4 -4 7 2q44 56 84.5 81.5t87.5 25.5zM190 210q29 0 56.5 17.5t43.5 36.5t39 53
q1 3 0 6q-36 54 -65 79.5t-71 25.5q-47 0 -77 -30.5t-30 -77.5q0 -46 30 -78t74 -32zM532 210q50 0 80 30.5t30 77.5q0 48 -30 79t-77 31q-43 0 -76 -26.5t-72 -80.5q-1 -3 0 -6q36 -53 67.5 -79t77.5 -26z" />
    <glyph glyph-name="integral" unicode="&#x222b;" horiz-adv-x="411" 
d="M49 -200q-12 0 -12 12l-1 23q0 12 12 12h22q59 0 80 28t22 91l4 570q1 98 37 130t139 34q12 0 12 -12l1 -23q0 -12 -12 -12h-21q-60 0 -81.5 -28t-21.5 -91l-4 -570q-1 -98 -37 -130t-139 -34z" />
    <glyph glyph-name="approxequal" unicode="&#x2248;" horiz-adv-x="492" 
d="M342 375q-13 0 -27 2.5t-20.5 4.5t-22.5 9.5t-17 8.5t-19 11q-44 24 -78 24q-49 0 -76 -40q-8 -9 -17 -3l-14 9q-10 6 -4 16q33 66 110 66q41 0 87 -26q1 -1 10 -6t11 -6l10.5 -5.5t12 -5.5t11.5 -4t13.5 -4t13 -2t15.5 -1q35 0 67 39q8 9 17 3l15 -11q9 -6 5 -16
q-39 -63 -103 -63zM342 157q-13 0 -27 2.5t-20.5 4.5t-22.5 9.5t-17 8.5t-19 11q-44 24 -78 24q-49 0 -76 -40q-8 -9 -17 -3l-14 9q-10 6 -4 16q33 66 110 66q41 0 87 -26q1 -1 10 -6t11 -6l10.5 -5.5t12 -5.5t11.5 -4t13.5 -4t13 -2t15.5 -1q35 0 67 39q8 9 17 3l15 -11
q9 -6 5 -16q-39 -63 -103 -63z" />
    <glyph glyph-name="notequal" unicode="&#x2260;" horiz-adv-x="504" 
d="M462 420q0 -12 -12 -12h-150q-2 0 -4 -3l-77 -158q-2 -5 3 -5h228q12 0 12 -12v-22q0 -12 -12 -12h-253q-3 0 -4 -3l-39 -80q-4 -9 -14 -9h-12q-15 0 -9 14l35 73q2 5 -3 5h-97q-12 0 -12 12v22q0 12 12 12h122q2 0 4 3l77 158q2 5 -3 5h-200q-12 0 -12 12v22q0 12 12 12
h224q2 0 4 3l48 97q4 9 14 9h12q15 0 9 -14l-44 -90q-2 -5 3 -5h126q12 0 12 -12v-22z" />
    <glyph glyph-name="lessequal" unicode="&#x2264;" horiz-adv-x="504" 
d="M462 118q0 -16 -14 -9l-397 187q-9 4 -9 14v30q0 10 9 14l397 187q14 7 14 -9v-28q0 -10 -9 -14l-353 -162q-6 -3 0 -6l353 -162q9 -4 9 -14v-28zM462 12q0 -12 -12 -12h-396q-12 0 -12 12v22q0 12 12 12h396q12 0 12 -12v-22z" />
    <glyph glyph-name="greaterequal" unicode="&#x2265;" horiz-adv-x="504" 
d="M56 109q-14 -7 -14 9v28q0 10 9 14l353 162q6 3 0 6l-353 162q-9 4 -9 14v28q0 16 14 9l397 -187q9 -4 9 -14v-30q0 -10 -9 -14zM54 0q-12 0 -12 12v22q0 12 12 12h396q12 0 12 -12v-22q0 -12 -12 -12h-396z" />
    <glyph glyph-name="lozenge" unicode="&#x25ca;" horiz-adv-x="476" 
d="M226 -44q-10 0 -14 9l-166 377q-3 8 0 16l167 377q4 9 14 9h22q10 0 14 -9l167 -377q3 -8 0 -16l-166 -377q-4 -9 -14 -9h-24zM235 16q1 -2 3 -2t3 2l141 331q2 3 0 6l-141 331q-1 2 -3 2t-3 -2l-141 -331q-2 -3 0 -6z" />
    <glyph glyph-name="i.loclTRK" horiz-adv-x="216" 
d="M106 600q-18 0 -29.5 11t-11.5 28t11.5 27.5t29.5 10.5q16 0 27 -10.5t11 -27.5t-10.5 -28t-27.5 -11zM92 0q-12 0 -12 12v480q0 12 12 12h29q12 0 12 -12v-480q0 -12 -12 -12h-29z" />
    <glyph glyph-name="a.alt" horiz-adv-x="537" 
d="M397 492q0 12 12 12h29q12 0 12 -12v-480q0 -12 -12 -12h-29q-12 0 -12 12v45q0 2 -1.5 3t-3.5 -1q-46 -67 -134 -67q-68 0 -115 36t-64 97q-11 42 -11 126q0 88 10 126q16 62 63.5 98.5t116.5 36.5q88 0 134 -67q3 -2 5 2v45zM385 133q12 34 12 118q0 86 -13 122
q-10 41 -42 66.5t-78 25.5q-47 0 -81 -25.5t-46 -65.5q-16 -38 -16 -122q0 -78 13 -119q11 -42 46 -68t84 -26q47 0 78.5 26t42.5 68z" />
    <glyph glyph-name="a.sc" horiz-adv-x="514" 
d="M439 0q-10 0 -13 10l-34 102q-1 3 -4 3h-262q-3 0 -4 -3l-34 -102q-3 -10 -13 -10h-29q-14 0 -9 14l187 552q3 10 13 10h38q10 0 13 -10l189 -552q5 -14 -9 -14h-29zM140 164q-2 -5 3 -5h228q5 0 3 5l-114 347q-1 2 -3 2t-3 -2z" />
    <glyph glyph-name="aacute.sc" horiz-adv-x="514" 
d="M324 779q16 0 8 -14l-64 -107q-4 -8 -14 -8h-23q-15 0 -8 14l59 107q5 8 15 8h27zM439 0q-10 0 -13 10l-34 102q-1 3 -4 3h-262q-3 0 -4 -3l-34 -102q-3 -10 -13 -10h-29q-14 0 -9 14l187 552q3 10 13 10h38q10 0 13 -10l189 -552q5 -14 -9 -14h-29zM140 164q-2 -5 3 -5
h228q5 0 3 5l-114 347q-1 2 -3 2t-3 -2z" />
    <glyph glyph-name="abreve.sc" horiz-adv-x="514" 
d="M256 616q-40 0 -69.5 26t-34.5 65q-2 12 11 12h11q12 0 13 -12q4 -25 23.5 -42t45.5 -17t46 17t24 42q2 12 13 12h11q12 0 11 -12q-5 -39 -34.5 -65t-70.5 -26zM439 0q-10 0 -13 10l-34 102q-1 3 -4 3h-262q-3 0 -4 -3l-34 -102q-3 -10 -13 -10h-29q-14 0 -9 14l187 552
q3 10 13 10h38q10 0 13 -10l189 -552q5 -14 -9 -14h-29zM140 164q-2 -5 3 -5h228q5 0 3 5l-114 347q-1 2 -3 2t-3 -2z" />
    <glyph glyph-name="uni01CE.sc" horiz-adv-x="514" 
d="M286 638q-6 -7 -14 -7h-34q-8 0 -14 7l-78 104q-5 6 -2.5 10.5t9.5 4.5h20q9 0 15 -7l65 -86q1 -2 3 -2t3 2l65 86q6 7 14 7h20q7 0 9.5 -4.5t-2.5 -10.5zM439 0q-10 0 -13 10l-34 102q-1 3 -4 3h-262q-3 0 -4 -3l-34 -102q-3 -10 -13 -10h-29q-14 0 -9 14l187 552
q3 10 13 10h38q10 0 13 -10l189 -552q5 -14 -9 -14h-29zM140 164q-2 -5 3 -5h228q5 0 3 5l-114 347q-1 2 -3 2t-3 -2z" />
    <glyph glyph-name="acircumflex.sc" horiz-adv-x="514" 
d="M259 735q-1 1 -3 1t-3 -1l-65 -86q-6 -7 -15 -7h-22q-7 0 -9.5 4.5t2.5 10.5l80 104q6 7 15 7h31q9 0 15 -7l81 -104q4 -6 2 -10.5t-10 -4.5h-21q-8 0 -14 7zM439 0q-10 0 -13 10l-34 102q-1 3 -4 3h-262q-3 0 -4 -3l-34 -102q-3 -10 -13 -10h-29q-14 0 -9 14l187 552
q3 10 13 10h38q10 0 13 -10l189 -552q5 -14 -9 -14h-29zM140 164q-2 -5 3 -5h228q5 0 3 5l-114 347q-1 2 -3 2t-3 -2z" />
    <glyph glyph-name="adieresis.sc" horiz-adv-x="514" 
d="M175 679q-18 0 -30 11.5t-12 29.5q0 17 12 28.5t30 11.5t29.5 -11.5t11.5 -28.5q0 -18 -11.5 -29.5t-29.5 -11.5zM338 679q-19 0 -31 11.5t-12 29.5q0 17 12 28.5t31 11.5q17 0 28.5 -11.5t11.5 -28.5q0 -18 -11.5 -29.5t-28.5 -11.5zM439 0q-10 0 -13 10l-34 102
q-1 3 -4 3h-262q-3 0 -4 -3l-34 -102q-3 -10 -13 -10h-29q-14 0 -9 14l187 552q3 10 13 10h38q10 0 13 -10l189 -552q5 -14 -9 -14h-29zM140 164q-2 -5 3 -5h228q5 0 3 5l-114 347q-1 2 -3 2t-3 -2z" />
    <glyph glyph-name="agrave.sc" horiz-adv-x="514" 
d="M270 664q7 -14 -8 -14h-23q-10 0 -14 8l-64 107q-8 14 8 14h27q10 0 15 -8zM439 0q-10 0 -13 10l-34 102q-1 3 -4 3h-262q-3 0 -4 -3l-34 -102q-3 -10 -13 -10h-29q-14 0 -9 14l187 552q3 10 13 10h38q10 0 13 -10l189 -552q5 -14 -9 -14h-29zM140 164q-2 -5 3 -5h228
q5 0 3 5l-114 347q-1 2 -3 2t-3 -2z" />
    <glyph glyph-name="amacron.sc" horiz-adv-x="514" 
d="M375 710q12 0 12 -12v-16q0 -12 -12 -12h-238q-12 0 -12 12v16q0 12 12 12h238zM439 0q-10 0 -13 10l-34 102q-1 3 -4 3h-262q-3 0 -4 -3l-34 -102q-3 -10 -13 -10h-29q-14 0 -9 14l187 552q3 10 13 10h38q10 0 13 -10l189 -552q5 -14 -9 -14h-29zM140 164q-2 -5 3 -5
h228q5 0 3 5l-114 347q-1 2 -3 2t-3 -2z" />
    <glyph glyph-name="aogonek.sc" horiz-adv-x="539" 
d="M488 -147q11 3 14 -9l2 -10q3 -12 -8 -15q-41 -8 -75.5 3.5t-44.5 52.5q-15 65 59 122q3 3 -1 4q-6 2 -8 9l-34 102q-1 3 -4 3h-262q-3 0 -4 -3l-34 -102q-3 -10 -13 -10h-29q-14 0 -9 14l187 552q3 10 13 10h38q10 0 13 -10l191 -556l3 -10l-4 -2q-72 -57 -62 -109
q10 -49 72 -36zM140 164q-2 -5 3 -5h228q5 0 3 5l-114 347q-1 2 -3 2t-3 -2z" />
    <glyph glyph-name="aring.sc" horiz-adv-x="514" 
d="M256 643q-43 0 -72.5 29.5t-29.5 71.5t29.5 71t72.5 29t73 -29t30 -71t-30 -71.5t-73 -29.5zM256 813q-29 0 -49 -20t-20 -49t20 -49t49 -20t49.5 20t20.5 49t-20.5 49t-49.5 20zM439 0q-10 0 -13 10l-34 102q-1 3 -4 3h-262q-3 0 -4 -3l-34 -102q-3 -10 -13 -10h-29
q-14 0 -9 14l187 552q3 10 13 10h38q10 0 13 -10l189 -552q5 -14 -9 -14h-29zM140 164q-2 -5 3 -5h228q5 0 3 5l-114 347q-1 2 -3 2t-3 -2z" />
    <glyph glyph-name="atilde.sc" horiz-adv-x="514" 
d="M213 713q-29 0 -50 -26q-8 -9 -17 -3l-9 6q-10 7 -4 17q29 46 77 46q22 0 60 -23q35 -22 50 -22q30 0 49 29q8 10 17 4l9 -6q10 -7 5 -16q-30 -51 -81 -51q-25 0 -60 24q-28 21 -46 21zM439 0q-10 0 -13 10l-34 102q-1 3 -4 3h-262q-3 0 -4 -3l-34 -102q-3 -10 -13 -10
h-29q-14 0 -9 14l187 552q3 10 13 10h38q10 0 13 -10l189 -552q5 -14 -9 -14h-29zM140 164q-2 -5 3 -5h228q5 0 3 5l-114 347q-1 2 -3 2t-3 -2z" />
    <glyph glyph-name="ae.sc" horiz-adv-x="788" 
d="M736 541q0 -12 -12 -12h-290q-4 0 -4 -4v-208q0 -4 4 -4h195q12 0 12 -12v-23q0 -12 -12 -12h-195q-4 0 -4 -4v-211q0 -4 4 -4h290q12 0 12 -12v-23q0 -12 -12 -12h-336q-12 0 -12 12v99q0 4 -4 4h-215q-3 0 -5 -3l-56 -104q-5 -8 -15 -8h-33q-15 0 -8 14l305 554
q5 8 15 8h364q12 0 12 -12v-23zM181 164q-1 -2 -0.5 -3.5t2.5 -1.5h189q4 0 4 4v348q-1 4 -5 1z" />
    <glyph glyph-name="b.sc" horiz-adv-x="538" 
d="M381 300q-8 -2 0 -4q94 -38 94 -140q0 -73 -48.5 -114.5t-127.5 -41.5h-203q-12 0 -12 12v552q0 12 12 12h197q81 0 128 -39.5t47 -111.5q0 -90 -87 -125zM141 529q-4 0 -4 -4v-202q0 -4 4 -4h155q54 0 87 28.5t33 74.5q0 49 -33 78t-87 29h-155zM301 48q54 0 87.5 31
t33.5 82q0 50 -34.5 81.5t-89.5 31.5h-157q-4 0 -4 -4v-218q0 -4 4 -4h160z" />
    <glyph glyph-name="c.sc" horiz-adv-x="519" 
d="M264 -8q-91 0 -145 52.5t-54 140.5v208q0 87 54 138.5t145 51.5q89 0 143 -51t54 -136q0 -11 -12 -11l-29 -1q-12 0 -12 5v6q0 64 -39 101t-105 40t-106 -36t-40 -105v-213q0 -65 40 -104t106 -39q65 0 104.5 39t39.5 104q0 10 12 10l29 -1q12 0 12 -5v-4
q0 -87 -54 -138.5t-143 -51.5z" />
    <glyph glyph-name="cacute.sc" horiz-adv-x="519" 
d="M239 657q-15 0 -8 14l59 107q5 8 15 8h27q16 0 8 -14l-64 -107q-4 -8 -14 -8h-23zM264 -8q-91 0 -145 52.5t-54 140.5v208q0 87 54 138.5t145 51.5q89 0 143 -51t54 -136q0 -11 -12 -11l-29 -1q-12 0 -12 5v6q0 64 -39 101t-105 40t-106 -36t-40 -105v-213q0 -65 40 -104
t106 -39q65 0 104.5 39t39.5 104q0 10 12 10l29 -1q12 0 12 -5v-4q0 -87 -54 -138.5t-143 -51.5z" />
    <glyph glyph-name="ccaron.sc" horiz-adv-x="519" 
d="M246 638q-8 0 -14 7l-78 104q-5 6 -2.5 10.5t9.5 4.5h20q9 0 15 -7l65 -86q1 -1 3 -1t3 1l65 86q6 7 14 7h20q7 0 9.5 -4.5t-2.5 -10.5l-79 -104q-6 -7 -14 -7h-34zM264 -8q-91 0 -145 52.5t-54 140.5v208q0 87 54 138.5t145 51.5q89 0 143 -51t54 -136q0 -11 -12 -11
l-29 -1q-12 0 -12 5v6q0 64 -39 101t-105 40t-106 -36t-40 -105v-213q0 -65 40 -104t106 -39q65 0 104.5 39t39.5 104q0 10 12 10l29 -1q12 0 12 -5v-4q0 -87 -54 -138.5t-143 -51.5z" />
    <glyph glyph-name="ccedilla.sc" horiz-adv-x="519" 
d="M461 391q0 -6 -12 -6l-29 -1q-12 0 -12 5v6q0 64 -39 101t-105 40t-106 -36t-40 -105v-213q0 -65 40 -104t106 -39q65 0 104.5 39t39.5 104q0 10 12 10l29 -1q12 0 12 -5v-4q0 -87 -54 -138.5t-143 -51.5q-5 0 0 -5q64 -55 49 -114q-10 -41 -44.5 -52.5t-75.5 -3.5
q-11 3 -9 14l2 11q3 12 15 9q62 -13 72 36q11 54 -63 109q0 1 -5 3q-65 15 -102.5 64t-37.5 122v208q0 87 54 138.5t145 51.5q89 0 143 -51t54 -136v-5z" />
    <glyph glyph-name="cdotaccent.sc" horiz-adv-x="519" 
d="M264 670q-18 0 -29.5 11t-11.5 28t11.5 27.5t29.5 10.5q16 0 27 -10.5t11 -27.5t-10.5 -28t-27.5 -11zM264 -8q-91 0 -145 52.5t-54 140.5v208q0 87 54 138.5t145 51.5q89 0 143 -51t54 -136q0 -11 -12 -11l-29 -1q-12 0 -12 5v6q0 64 -39 101t-105 40t-106 -36t-40 -105
v-213q0 -65 40 -104t106 -39q65 0 104.5 39t39.5 104q0 10 12 10l29 -1q12 0 12 -5v-4q0 -87 -54 -138.5t-143 -51.5z" />
    <glyph glyph-name="d.sc" horiz-adv-x="529" 
d="M96 0q-12 0 -12 12v552q0 12 12 12h197q83 0 132.5 -42.5t49.5 -114.5v-261q0 -73 -49.5 -115.5t-132.5 -42.5h-197zM137 51q0 -4 4 -4h155q57 0 91 31.5t35 85.5v248q0 54 -34 85.5t-92 31.5h-155q-4 0 -4 -4v-474z" />
    <glyph glyph-name="eth.sc" horiz-adv-x="587" 
d="M351 576q83 0 132.5 -42.5t49.5 -114.5v-261q0 -73 -49.5 -115.5t-132.5 -42.5h-197q-12 0 -12 12v263q0 4 -4 4h-42q-12 0 -12 12v15q0 12 12 12h42q4 0 4 4v242q0 12 12 12h197zM480 164v248q0 54 -34 85.5t-92 31.5h-155q-4 0 -4 -4v-203q0 -4 4 -4h101q12 0 12 -12
v-15q0 -12 -12 -12h-101q-4 0 -4 -4v-224q0 -4 4 -4h155q57 0 91 31.5t35 85.5z" />
    <glyph glyph-name="dcaron.sc" horiz-adv-x="529" 
d="M249 635q-8 0 -14 7l-78 104q-5 6 -2.5 10.5t9.5 4.5h20q9 0 15 -7l65 -86q1 -2 3 -2t3 2l65 86q6 7 14 7h20q7 0 9.5 -4.5t-2.5 -10.5l-79 -104q-6 -7 -14 -7h-34zM96 0q-12 0 -12 12v552q0 12 12 12h197q83 0 132.5 -42.5t49.5 -114.5v-261q0 -73 -49.5 -115.5
t-132.5 -42.5h-197zM137 51q0 -4 4 -4h155q57 0 91 31.5t35 85.5v248q0 54 -34 85.5t-92 31.5h-155q-4 0 -4 -4v-474z" />
    <glyph glyph-name="dcroat.sc" horiz-adv-x="587" 
d="M351 576q83 0 132.5 -42.5t49.5 -114.5v-261q0 -73 -49.5 -115.5t-132.5 -42.5h-197q-12 0 -12 12v263q0 4 -4 4h-42q-12 0 -12 12v15q0 12 12 12h42q4 0 4 4v242q0 12 12 12h197zM480 164v248q0 54 -34 85.5t-92 31.5h-155q-4 0 -4 -4v-203q0 -4 4 -4h101q12 0 12 -12
v-15q0 -12 -12 -12h-101q-4 0 -4 -4v-224q0 -4 4 -4h155q57 0 91 31.5t35 85.5z" />
    <glyph glyph-name="e.sc" horiz-adv-x="521" 
d="M469 540q0 -12 -12 -12h-316q-4 0 -4 -4v-207q0 -4 4 -4h222q12 0 12 -12v-23q0 -12 -12 -12h-222q-4 0 -4 -4v-211q0 -4 4 -4h316q12 0 12 -12v-23q0 -12 -12 -12h-361q-12 0 -12 12v552q0 12 12 12h361q12 0 12 -12v-24z" />
    <glyph glyph-name="eacute.sc" horiz-adv-x="521" 
d="M326 788q16 0 8 -14l-64 -107q-4 -8 -14 -8h-23q-15 0 -8 14l59 107q5 8 15 8h27zM469 540q0 -12 -12 -12h-316q-4 0 -4 -4v-207q0 -4 4 -4h222q12 0 12 -12v-23q0 -12 -12 -12h-222q-4 0 -4 -4v-211q0 -4 4 -4h316q12 0 12 -12v-23q0 -12 -12 -12h-361q-12 0 -12 12v552
q0 12 12 12h361q12 0 12 -12v-24z" />
    <glyph glyph-name="ecaron.sc" horiz-adv-x="521" 
d="M288 647q-6 -7 -14 -7h-34q-8 0 -14 7l-78 104q-5 6 -2.5 10.5t9.5 4.5h20q9 0 15 -7l65 -86q1 -1 3 -1t3 1l65 86q6 7 14 7h20q7 0 9.5 -4.5t-2.5 -10.5zM469 540q0 -12 -12 -12h-316q-4 0 -4 -4v-207q0 -4 4 -4h222q12 0 12 -12v-23q0 -12 -12 -12h-222q-4 0 -4 -4
v-211q0 -4 4 -4h316q12 0 12 -12v-23q0 -12 -12 -12h-361q-12 0 -12 12v552q0 12 12 12h361q12 0 12 -12v-24z" />
    <glyph glyph-name="uni0229.sc" horiz-adv-x="521" 
d="M469 540q0 -12 -12 -12h-316q-4 0 -4 -4v-207q0 -4 4 -4h222q12 0 12 -12v-23q0 -12 -12 -12h-222q-4 0 -4 -4v-211q0 -4 4 -4h316q12 0 12 -12v-23q0 -12 -12 -12h-173q-7 0 -2 -5q64 -55 49 -114q-10 -41 -44.5 -52.5t-75.5 -3.5q-11 3 -9 14l2 11q3 12 15 9
q62 -13 72 36q9 50 -55 103q-1 2 -5 2h-135q-12 0 -12 12v552q0 12 12 12h361q12 0 12 -12v-24z" />
    <glyph glyph-name="ecircumflex.sc" horiz-adv-x="521" 
d="M261 744q-1 2 -3 2t-3 -2l-65 -86q-6 -7 -15 -7h-22q-7 0 -9.5 4.5t2.5 10.5l80 104q6 7 15 7h31q9 0 15 -7l81 -104q4 -6 2 -10.5t-10 -4.5h-21q-8 0 -14 7zM469 540q0 -12 -12 -12h-316q-4 0 -4 -4v-207q0 -4 4 -4h222q12 0 12 -12v-23q0 -12 -12 -12h-222q-4 0 -4 -4
v-211q0 -4 4 -4h316q12 0 12 -12v-23q0 -12 -12 -12h-361q-12 0 -12 12v552q0 12 12 12h361q12 0 12 -12v-24z" />
    <glyph glyph-name="edieresis.sc" horiz-adv-x="521" 
d="M177 688q-18 0 -30 11.5t-12 29.5q0 17 12 28.5t30 11.5t29.5 -11.5t11.5 -28.5q0 -18 -11.5 -29.5t-29.5 -11.5zM340 688q-19 0 -31 11.5t-12 29.5q0 17 12 28.5t31 11.5q17 0 28.5 -11.5t11.5 -28.5q0 -18 -11.5 -29.5t-28.5 -11.5zM469 540q0 -12 -12 -12h-316
q-4 0 -4 -4v-207q0 -4 4 -4h222q12 0 12 -12v-23q0 -12 -12 -12h-222q-4 0 -4 -4v-211q0 -4 4 -4h316q12 0 12 -12v-23q0 -12 -12 -12h-361q-12 0 -12 12v552q0 12 12 12h361q12 0 12 -12v-24z" />
    <glyph glyph-name="edotaccent.sc" horiz-adv-x="521" 
d="M258 672q-18 0 -29.5 11t-11.5 28t11.5 27.5t29.5 10.5q16 0 27 -10.5t11 -27.5t-10.5 -28t-27.5 -11zM469 540q0 -12 -12 -12h-316q-4 0 -4 -4v-207q0 -4 4 -4h222q12 0 12 -12v-23q0 -12 -12 -12h-222q-4 0 -4 -4v-211q0 -4 4 -4h316q12 0 12 -12v-23q0 -12 -12 -12
h-361q-12 0 -12 12v552q0 12 12 12h361q12 0 12 -12v-24z" />
    <glyph glyph-name="egrave.sc" horiz-adv-x="521" 
d="M272 673q7 -14 -8 -14h-23q-10 0 -14 8l-64 107q-8 14 8 14h27q10 0 15 -8zM469 540q0 -12 -12 -12h-316q-4 0 -4 -4v-207q0 -4 4 -4h222q12 0 12 -12v-23q0 -12 -12 -12h-222q-4 0 -4 -4v-211q0 -4 4 -4h316q12 0 12 -12v-23q0 -12 -12 -12h-361q-12 0 -12 12v552
q0 12 12 12h361q12 0 12 -12v-24z" />
    <glyph glyph-name="emacron.sc" horiz-adv-x="521" 
d="M377 719q12 0 12 -12v-16q0 -12 -12 -12h-238q-12 0 -12 12v16q0 12 12 12h238zM469 540q0 -12 -12 -12h-316q-4 0 -4 -4v-207q0 -4 4 -4h222q12 0 12 -12v-23q0 -12 -12 -12h-222q-4 0 -4 -4v-211q0 -4 4 -4h316q12 0 12 -12v-23q0 -12 -12 -12h-361q-12 0 -12 12v552
q0 12 12 12h361q12 0 12 -12v-24z" />
    <glyph glyph-name="eogonek.sc" horiz-adv-x="521" 
d="M469 540q0 -12 -12 -12h-316q-4 0 -4 -4v-207q0 -4 4 -4h222q12 0 12 -12v-23q0 -12 -12 -12h-222q-4 0 -4 -4v-211q0 -4 4 -4h316q12 0 12 -12v-23q0 -12 -12 -12h-178q-3 0 -5 -2q-63 -53 -54 -102q10 -49 72 -36q11 3 14 -9l2 -10q3 -12 -8 -15q-41 -8 -75.5 3.5
t-44.5 52.5q-15 59 48 113q5 5 -2 5h-130q-12 0 -12 12v552q0 12 12 12h361q12 0 12 -12v-24z" />
    <glyph glyph-name="f.sc" horiz-adv-x="486" 
d="M468 541q0 -12 -12 -12h-315q-4 0 -4 -4v-208q0 -4 4 -4h221q12 0 12 -12v-23q0 -12 -12 -12h-221q-4 0 -4 -4v-250q0 -12 -12 -12h-29q-12 0 -12 12v552q0 12 12 12h360q12 0 12 -12v-23z" />
    <glyph glyph-name="g.sc" horiz-adv-x="540" 
d="M275 -7q-95 0 -151 53t-56 148v189q0 95 56 147.5t151 52.5q93 0 148.5 -52t55.5 -144q0 -11 -12 -11h-29q-12 0 -12 6v5q0 72 -41 111t-110 39q-71 0 -112.5 -40t-41.5 -116v-188q0 -73 41.5 -113t112.5 -40q70 0 110.5 39.5t40.5 113.5v44q0 4 -4 4h-128q-12 0 -12 12
v23q0 12 12 12h173q12 0 12 -12v-82q0 -95 -55.5 -148t-148.5 -53z" />
    <glyph glyph-name="gbreve.sc" horiz-adv-x="540" 
d="M274 623q-40 0 -69.5 26t-34.5 65q-2 12 11 12h11q12 0 13 -12q4 -25 23.5 -42t45.5 -17t46 17t24 42q2 12 13 12h11q12 0 11 -12q-5 -39 -34.5 -65t-70.5 -26zM275 -7q-95 0 -151 53t-56 148v189q0 95 56 147.5t151 52.5q93 0 148.5 -52t55.5 -144q0 -11 -12 -11h-29
q-12 0 -12 6v5q0 72 -41 111t-110 39q-71 0 -112.5 -40t-41.5 -116v-188q0 -73 41.5 -113t112.5 -40q70 0 110.5 39.5t40.5 113.5v44q0 4 -4 4h-128q-12 0 -12 12v23q0 12 12 12h173q12 0 12 -12v-82q0 -95 -55.5 -148t-148.5 -53z" />
    <glyph glyph-name="uni0123.sc" horiz-adv-x="540" 
d="M275 -7q-95 0 -151 53t-56 148v189q0 95 56 147.5t151 52.5q93 0 148.5 -52t55.5 -144q0 -11 -12 -11h-29q-12 0 -12 6v5q0 72 -41 111t-110 39q-71 0 -112.5 -40t-41.5 -116v-188q0 -73 41.5 -113t112.5 -40q70 0 110.5 39.5t40.5 113.5v44q0 4 -4 4h-128q-12 0 -12 12
v23q0 12 12 12h173q12 0 12 -12v-82q0 -95 -55.5 -148t-148.5 -53zM223 -195q-15 0 -8 14l59 107q5 8 15 8h27q16 0 8 -14l-64 -107q-4 -8 -14 -8h-23z" />
    <glyph glyph-name="gdotaccent.sc" horiz-adv-x="540" 
d="M274 670q-18 0 -29.5 11t-11.5 28t11.5 27.5t29.5 10.5q16 0 27 -10.5t11 -27.5t-10.5 -28t-27.5 -11zM275 -7q-95 0 -151 53t-56 148v189q0 95 56 147.5t151 52.5q93 0 148.5 -52t55.5 -144q0 -11 -12 -11h-29q-12 0 -12 6v5q0 72 -41 111t-110 39q-71 0 -112.5 -40
t-41.5 -116v-188q0 -73 41.5 -113t112.5 -40q70 0 110.5 39.5t40.5 113.5v44q0 4 -4 4h-128q-12 0 -12 12v23q0 12 12 12h173q12 0 12 -12v-82q0 -95 -55.5 -148t-148.5 -53z" />
    <glyph glyph-name="h.sc" horiz-adv-x="563" 
d="M428 564q0 12 12 12h29q12 0 12 -12v-552q0 -12 -12 -12h-29q-12 0 -12 12v250q0 4 -4 4h-283q-4 0 -4 -4v-250q0 -12 -12 -12h-29q-12 0 -12 12v552q0 12 12 12h29q12 0 12 -12v-247q0 -4 4 -4h283q4 0 4 4v247z" />
    <glyph glyph-name="hbar.sc" horiz-adv-x="563" 
d="M562 461q12 0 12 -12v-17q0 -12 -12 -12h-77q-4 0 -4 -4v-404q0 -12 -12 -12h-29q-12 0 -12 12v250q0 4 -4 4h-283q-4 0 -4 -4v-250q0 -12 -12 -12h-29q-12 0 -12 12v404q0 4 -4 4h-75q-12 0 -12 12v17q0 12 12 12h75q4 0 4 4v99q0 12 12 12h29q12 0 12 -12v-99
q0 -4 4 -4h283q4 0 4 4v99q0 12 12 12h29q12 0 12 -12v-99q0 -4 4 -4h77zM424 313q4 0 4 4v99q0 4 -4 4h-283q-4 0 -4 -4v-99q0 -4 4 -4h283z" />
    <glyph glyph-name="i.sc" horiz-adv-x="222" 
d="M96 0q-12 0 -12 12v552q0 12 12 12h29q12 0 12 -12v-552q0 -12 -12 -12h-29z" />
    <glyph glyph-name="iacute.sc" horiz-adv-x="222" 
d="M86 659q-15 0 -8 14l59 107q5 8 15 8h27q16 0 8 -14l-64 -107q-4 -8 -14 -8h-23zM96 0q-12 0 -12 12v552q0 12 12 12h29q12 0 12 -12v-552q0 -12 -12 -12h-29z" />
    <glyph glyph-name="icircumflex.sc" horiz-adv-x="222" 
d="M6 651q-7 0 -9.5 4.5t2.5 10.5l80 104q6 7 15 7h31q9 0 15 -7l81 -104q4 -6 2 -10.5t-10 -4.5h-21q-8 0 -14 7l-64 86q-1 2 -3 2t-3 -2l-65 -86q-6 -7 -15 -7h-22zM96 0q-12 0 -12 12v552q0 12 12 12h29q12 0 12 -12v-552q0 -12 -12 -12h-29z" />
    <glyph glyph-name="idieresis.sc" horiz-adv-x="222" 
d="M30 688q-18 0 -30 11.5t-12 29.5q0 17 12 28.5t30 11.5t29.5 -11.5t11.5 -28.5q0 -18 -11.5 -29.5t-29.5 -11.5zM193 688q-19 0 -31 11.5t-12 29.5q0 17 12 28.5t31 11.5q17 0 28.5 -11.5t11.5 -28.5q0 -18 -11.5 -29.5t-28.5 -11.5zM96 0q-12 0 -12 12v552q0 12 12 12
h29q12 0 12 -12v-552q0 -12 -12 -12h-29z" />
    <glyph glyph-name="i.sc.loclTRK" horiz-adv-x="222" 
d="M111 672q-18 0 -29.5 11t-11.5 28t11.5 27.5t29.5 10.5q17 0 27.5 -10.5t10.5 -27.5t-10.5 -28t-27.5 -11zM96 0q-12 0 -12 12v552q0 12 12 12h29q12 0 12 -12v-552q0 -12 -12 -12h-29z" />
    <glyph glyph-name="igrave.sc" horiz-adv-x="222" 
d="M125 673q7 -14 -8 -14h-23q-10 0 -14 8l-64 107q-8 14 8 14h27q10 0 15 -8zM96 0q-12 0 -12 12v552q0 12 12 12h29q12 0 12 -12v-552q0 -12 -12 -12h-29z" />
    <glyph glyph-name="ij.sc" horiz-adv-x="717" 
d="M96 0q-12 0 -12 12v552q0 12 12 12h29q12 0 12 -12v-552q0 -12 -12 -12h-29zM440 -7q-87 0 -139.5 50.5t-52.5 135.5v27q0 12 12 12h29q12 0 12 -12v-28q0 -63 38 -100.5t101 -37.5t101.5 37.5t38.5 100.5v386q0 12 12 12h29q12 0 12 -12v-385q0 -85 -53 -135.5
t-140 -50.5z" />
    <glyph glyph-name="imacron.sc" horiz-adv-x="222" 
d="M-8 679q-12 0 -12 12v16q0 12 12 12h238q12 0 12 -12v-16q0 -12 -12 -12h-238zM96 0q-12 0 -12 12v552q0 12 12 12h29q12 0 12 -12v-552q0 -12 -12 -12h-29z" />
    <glyph glyph-name="iogonek.sc" horiz-adv-x="240" 
d="M146 -147q11 3 14 -9l2 -10q3 -12 -8 -15q-41 -8 -75.5 3.5t-44.5 52.5q-15 65 58 121l5 4h-1q-12 0 -12 12v552q0 12 12 12h29q12 0 12 -12v-561q0 -4 -2 -5q-1 -1 -14 -12q-56 -51 -47 -97q10 -49 72 -36z" />
    <glyph glyph-name="j.sc" horiz-adv-x="495" 
d="M218 -7q-87 0 -139.5 50.5t-52.5 135.5v27q0 12 12 12h29q12 0 12 -12v-28q0 -63 38 -100.5t101 -37.5t101.5 37.5t38.5 100.5v386q0 12 12 12h29q12 0 12 -12v-385q0 -85 -53 -135.5t-140 -50.5z" />
    <glyph glyph-name="k.sc" horiz-adv-x="521" 
d="M96 0q-12 0 -12 12v552q0 12 12 12h29q12 0 12 -12v-280q0 -2 1.5 -3t3.5 1l278 288q6 6 15 6h30q7 0 9 -5t-3 -10l-205 -220q-2 -2 0 -6l226 -320q4 -6 2 -10.5t-10 -4.5h-33q-9 0 -14 7l-207 290q-2 5 -6 1l-85 -86q-2 -2 -2 -5v-195q0 -12 -12 -12h-29z" />
    <glyph glyph-name="uni0137.sc" horiz-adv-x="520" 
d="M96 0q-12 0 -12 12v552q0 12 12 12h29q12 0 12 -12v-280q0 -2 1.5 -3t3.5 1l278 288q6 6 15 6h30q7 0 9 -5t-3 -10l-205 -220q-2 -2 0 -6l226 -320q4 -6 2 -10.5t-10 -4.5h-33q-9 0 -14 7l-207 290q-2 5 -6 1l-85 -86q-2 -2 -2 -5v-195q0 -12 -12 -12h-29zM230 -188
q-15 0 -8 14l59 107q5 8 15 8h27q16 0 8 -14l-64 -107q-4 -8 -14 -8h-23z" />
    <glyph glyph-name="l.sc" horiz-adv-x="485" 
d="M96 0q-12 0 -12 12v552q0 12 12 12h29q12 0 12 -12v-513q0 -4 4 -4h300q12 0 12 -12v-23q0 -12 -12 -12h-345z" />
    <glyph glyph-name="lacute.sc" horiz-adv-x="485" 
d="M86 650q-15 0 -8 14l59 107q5 8 15 8h27q16 0 8 -14l-64 -107q-4 -8 -14 -8h-23zM96 0q-12 0 -12 12v552q0 12 12 12h29q12 0 12 -12v-513q0 -4 4 -4h300q12 0 12 -12v-23q0 -12 -12 -12h-345z" />
    <glyph glyph-name="lcaron.sc" horiz-adv-x="485" 
d="M93 631q-8 0 -14 7l-78 104q-5 6 -2.5 10.5t9.5 4.5h20q9 0 15 -7l65 -86q1 -2 3 -2t3 2l65 86q6 7 14 7h20q7 0 9.5 -4.5t-2.5 -10.5l-79 -104q-6 -7 -14 -7h-34zM96 0q-12 0 -12 12v552q0 12 12 12h29q12 0 12 -12v-513q0 -4 4 -4h300q12 0 12 -12v-23q0 -12 -12 -12
h-345z" />
    <glyph glyph-name="uni013C.sc" horiz-adv-x="485" 
d="M96 0q-12 0 -12 12v552q0 12 12 12h29q12 0 12 -12v-513q0 -4 4 -4h300q12 0 12 -12v-23q0 -12 -12 -12h-345zM196 -188q-15 0 -8 14l59 107q5 8 15 8h27q16 0 8 -14l-64 -107q-4 -8 -14 -8h-23z" />
    <glyph glyph-name="lslash.sc" horiz-adv-x="529" 
d="M137 51q0 -4 4 -4h300q12 0 12 -12v-23q0 -12 -12 -12h-345q-12 0 -12 12v168q0 2 -2 3t-3 -1l-56 -41q-9 -8 -17 2l-11 14q-7 10 2 17l85 62q2 2 2 5v323q0 12 12 12h29q12 0 12 -12v-281q0 -2 1.5 -3t3.5 1l267 195q10 8 17 -2l12 -15q6 -9 -3 -17l-296 -216
q-2 -2 -2 -5v-170z" />
    <glyph glyph-name="m.sc" horiz-adv-x="613" 
d="M96 0q-12 0 -12 12v552q0 12 12 12h32q9 0 14 -8l161 -247q1 -1 3 -1t3 1l162 247q5 8 14 8h31q12 0 12 -12v-552q0 -12 -12 -12h-29q-12 0 -12 12v477q0 3 -1.5 4t-3.5 -2l-145 -224q-5 -8 -14 -8h-8q-9 0 -14 8l-147 224q-2 3 -3.5 2t-1.5 -4v-477q0 -12 -12 -12h-29z
" />
    <glyph glyph-name="n.sc" horiz-adv-x="581" 
d="M96 0q-12 0 -12 12v552q0 12 12 12h32q10 0 14 -8l297 -473q1 -3 3 -2.5t2 3.5v468q0 12 12 12h29q12 0 12 -12v-552q0 -12 -12 -12h-32q-10 0 -14 8l-297 474q-2 3 -3.5 2.5t-1.5 -3.5v-469q0 -12 -12 -12h-29z" />
    <glyph glyph-name="nacute.sc" horiz-adv-x="581" 
d="M264 659q-15 0 -8 14l59 107q5 8 15 8h27q16 0 8 -14l-64 -107q-4 -8 -14 -8h-23zM96 0q-12 0 -12 12v552q0 12 12 12h32q10 0 14 -8l297 -473q1 -3 3 -2.5t2 3.5v468q0 12 12 12h29q12 0 12 -12v-552q0 -12 -12 -12h-32q-10 0 -14 8l-297 474q-2 3 -3.5 2.5t-1.5 -3.5
v-469q0 -12 -12 -12h-29z" />
    <glyph glyph-name="ncaron.sc" horiz-adv-x="581" 
d="M271 640q-8 0 -14 7l-78 104q-5 6 -2.5 10.5t9.5 4.5h20q9 0 15 -7l65 -86q1 -1 3 -1t3 1l65 86q6 7 14 7h20q7 0 9.5 -4.5t-2.5 -10.5l-79 -104q-6 -7 -14 -7h-34zM96 0q-12 0 -12 12v552q0 12 12 12h32q10 0 14 -8l297 -473q1 -3 3 -2.5t2 3.5v468q0 12 12 12h29
q12 0 12 -12v-552q0 -12 -12 -12h-32q-10 0 -14 8l-297 474q-2 3 -3.5 2.5t-1.5 -3.5v-469q0 -12 -12 -12h-29z" />
    <glyph glyph-name="uni0146.sc" horiz-adv-x="581" 
d="M96 0q-12 0 -12 12v552q0 12 12 12h32q10 0 14 -8l297 -473q1 -3 3 -2.5t2 3.5v468q0 12 12 12h29q12 0 12 -12v-552q0 -12 -12 -12h-32q-10 0 -14 8l-297 474q-2 3 -3.5 2.5t-1.5 -3.5v-469q0 -12 -12 -12h-29zM242 -188q-15 0 -8 14l59 107q5 8 15 8h27q16 0 8 -14
l-64 -107q-4 -8 -14 -8h-23z" />
    <glyph glyph-name="eng.sc" horiz-adv-x="581" 
d="M485 576q12 0 12 -12v-556v-8q-1 -1 -1 -2q-2 -65 -30.5 -95.5t-97.5 -31.5q-12 0 -12 12v23q0 12 12 12q40 1 56.5 21t18.5 60q0 4 -1 5l-300 478q-2 3 -3.5 2.5t-1.5 -3.5v-469q0 -12 -12 -12h-29q-12 0 -12 12v552q0 12 12 12h32q10 0 14 -8l296 -471q2 -3 3.5 -2.5
t1.5 3.5v355v5q1 1 1 5v101q0 12 12 12h29z" />
    <glyph glyph-name="ntilde.sc" horiz-adv-x="581" 
d="M352 677q-25 0 -60 24q-28 21 -46 21q-29 0 -50 -26q-8 -9 -17 -3l-9 6q-10 7 -4 17q29 46 77 46q22 0 60 -23q35 -22 50 -22q30 0 49 29q8 10 17 4l9 -6q11 -7 1 -22q-30 -45 -77 -45zM96 0q-12 0 -12 12v552q0 12 12 12h32q10 0 14 -8l297 -473q1 -3 3 -2.5t2 3.5v468
q0 12 12 12h29q12 0 12 -12v-552q0 -12 -12 -12h-32q-10 0 -14 8l-297 474q-2 3 -3.5 2.5t-1.5 -3.5v-469q0 -12 -12 -12h-29z" />
    <glyph glyph-name="o.sc" horiz-adv-x="537" 
d="M268 -7q-93 0 -148 55t-55 148v184q0 93 55 148t148 55q92 0 148 -55t56 -148v-184q0 -93 -56 -148t-148 -55zM268 39q68 0 109.5 42t41.5 114v186q0 71 -41.5 113t-109.5 42q-69 0 -109.5 -41.5t-40.5 -113.5v-186q0 -72 40.5 -114t109.5 -42z" />
    <glyph glyph-name="oacute.sc" horiz-adv-x="537" 
d="M243 657q-15 0 -8 14l59 107q5 8 15 8h27q16 0 8 -14l-64 -107q-4 -8 -14 -8h-23zM268 -7q-93 0 -148 55t-55 148v184q0 93 55 148t148 55q92 0 148 -55t56 -148v-184q0 -93 -56 -148t-148 -55zM268 39q68 0 109.5 42t41.5 114v186q0 71 -41.5 113t-109.5 42
q-69 0 -109.5 -41.5t-40.5 -113.5v-186q0 -72 40.5 -114t109.5 -42z" />
    <glyph glyph-name="ocircumflex.sc" horiz-adv-x="537" 
d="M163 649q-7 0 -9.5 4.5t2.5 10.5l80 104q6 7 15 7h31q9 0 15 -7l81 -104q4 -6 2 -10.5t-10 -4.5h-21q-8 0 -14 7l-64 86q-1 2 -3 2t-3 -2l-65 -86q-6 -7 -15 -7h-22zM268 -7q-93 0 -148 55t-55 148v184q0 93 55 148t148 55q92 0 148 -55t56 -148v-184q0 -93 -56 -148
t-148 -55zM268 39q68 0 109.5 42t41.5 114v186q0 71 -41.5 113t-109.5 42q-69 0 -109.5 -41.5t-40.5 -113.5v-186q0 -72 40.5 -114t109.5 -42z" />
    <glyph glyph-name="odieresis.sc" horiz-adv-x="537" 
d="M187 686q-18 0 -30 11.5t-12 29.5q0 17 12 28.5t30 11.5t29.5 -11.5t11.5 -28.5q0 -18 -11.5 -29.5t-29.5 -11.5zM350 686q-19 0 -31 11.5t-12 29.5q0 17 12 28.5t31 11.5q17 0 28.5 -11.5t11.5 -28.5q0 -18 -11.5 -29.5t-28.5 -11.5zM268 -7q-93 0 -148 55t-55 148v184
q0 93 55 148t148 55q92 0 148 -55t56 -148v-184q0 -93 -56 -148t-148 -55zM268 39q68 0 109.5 42t41.5 114v186q0 71 -41.5 113t-109.5 42q-69 0 -109.5 -41.5t-40.5 -113.5v-186q0 -72 40.5 -114t109.5 -42z" />
    <glyph glyph-name="ograve.sc" horiz-adv-x="537" 
d="M282 671q7 -14 -8 -14h-23q-10 0 -14 8l-64 107q-8 14 8 14h27q10 0 15 -8zM268 -7q-93 0 -148 55t-55 148v184q0 93 55 148t148 55q92 0 148 -55t56 -148v-184q0 -93 -56 -148t-148 -55zM268 39q68 0 109.5 42t41.5 114v186q0 71 -41.5 113t-109.5 42
q-69 0 -109.5 -41.5t-40.5 -113.5v-186q0 -72 40.5 -114t109.5 -42z" />
    <glyph glyph-name="ohungarumlaut.sc" horiz-adv-x="537" 
d="M174 655q-15 0 -8 14l56 106q4 9 14 9h26q15 0 8 -14l-60 -107q-5 -8 -15 -8h-21zM332 655q-15 0 -8 14l58 107q5 8 15 8h24q15 0 8 -14l-60 -107q-5 -8 -15 -8h-22zM268 -7q-93 0 -148 55t-55 148v184q0 93 55 148t148 55q92 0 148 -55t56 -148v-184q0 -93 -56 -148
t-148 -55zM268 39q68 0 109.5 42t41.5 114v186q0 71 -41.5 113t-109.5 42q-69 0 -109.5 -41.5t-40.5 -113.5v-186q0 -72 40.5 -114t109.5 -42z" />
    <glyph glyph-name="omacron.sc" horiz-adv-x="537" 
d="M149 677q-12 0 -12 12v16q0 12 12 12h238q12 0 12 -12v-16q0 -12 -12 -12h-238zM268 -7q-93 0 -148 55t-55 148v184q0 93 55 148t148 55q92 0 148 -55t56 -148v-184q0 -93 -56 -148t-148 -55zM268 39q68 0 109.5 42t41.5 114v186q0 71 -41.5 113t-109.5 42
q-69 0 -109.5 -41.5t-40.5 -113.5v-186q0 -72 40.5 -114t109.5 -42z" />
    <glyph glyph-name="oslash.sc" horiz-adv-x="537" 
d="M414 534q-1 -3 1 -5q57 -55 57 -149v-184q0 -93 -56 -148t-148 -55q-51 0 -89 16q-5 2 -6 -2l-41 -90q-4 -9 -14 -9h-20q-15 0 -9 14l48 106q1 4 -1 5q-71 55 -71 163v184q0 93 55 148t148 55q61 0 108 -25q5 -2 6 2l54 118q4 9 14 9h19q15 0 9 -14zM118 195
q0 -71 40 -113q3 -4 5 1l194 424q1 4 -1 5q-38 24 -88 24q-69 0 -109.5 -41.5t-40.5 -113.5v-186zM419 195v186q0 56 -26 94q-3 5 -5 0l-191 -416q-2 -5 1 -6q29 -14 70 -14q68 0 109.5 42t41.5 114z" />
    <glyph glyph-name="otilde.sc" horiz-adv-x="537" 
d="M331 675q-25 0 -60 24q-28 21 -46 21q-29 0 -50 -26q-8 -9 -17 -3l-9 6q-10 7 -4 17q29 46 77 46q22 0 60 -23q35 -22 50 -22q30 0 49 29q8 10 17 4l9 -6q11 -7 1 -22q-30 -45 -77 -45zM268 -7q-93 0 -148 55t-55 148v184q0 93 55 148t148 55q92 0 148 -55t56 -148v-184
q0 -93 -56 -148t-148 -55zM268 39q68 0 109.5 42t41.5 114v186q0 71 -41.5 113t-109.5 42q-69 0 -109.5 -41.5t-40.5 -113.5v-186q0 -72 40.5 -114t109.5 -42z" />
    <glyph glyph-name="oe.sc" horiz-adv-x="786" 
d="M734 541q0 -12 -12 -12h-276q-4 0 -4 -4v-208q0 -4 4 -4h183q12 0 12 -12v-23q0 -12 -12 -12h-183q-4 0 -4 -4v-211q0 -4 4 -4h276q12 0 12 -12v-23q0 -12 -12 -12h-321q-12 0 -12 12v40q0 7 -5 2q-53 -61 -143 -61q-77 0 -126.5 51t-49.5 134v220q0 82 49.5 133.5
t126.5 51.5q90 0 143 -61q5 -5 5 2v40q0 12 12 12h321q12 0 12 -12v-23zM252 39q62 0 99.5 37.5t37.5 99.5v223q0 61 -37.5 99t-99.5 38q-60 0 -97 -38t-37 -99v-223q0 -61 37 -99t97 -38z" />
    <glyph glyph-name="p.sc" horiz-adv-x="505" 
d="M308 578q74 0 119.5 -44.5t45.5 -115.5t-46 -114.5t-121 -43.5h-171q-4 0 -4 -4v-244q0 -12 -12 -12h-29q-12 0 -12 12v554q0 12 12 12h218zM306 305q51 0 82.5 31t31.5 81q0 51 -31.5 82.5t-82.5 31.5h-171q-4 0 -4 -4v-218q0 -4 4 -4h171z" />
    <glyph glyph-name="thorn.sc" horiz-adv-x="483" 
d="M287 446q74 0 119 -44t45 -115t-45.5 -114t-120.5 -43h-150q-4 0 -4 -4v-114q0 -12 -12 -12h-29q-12 0 -12 12v552q0 12 12 12h29q12 0 12 -12v-114q0 -4 4 -4h152zM286 175q50 0 81 30.5t31 80.5q0 51 -31 82.5t-81 31.5h-151q-4 0 -4 -4v-217q0 -4 4 -4h151z" />
    <glyph glyph-name="q.sc" horiz-adv-x="493" 
d="M247 583q88 0 140.5 -53t52.5 -143v-201q0 -80 -44 -131t-119 -61q-4 0 -4 -4v-74q0 -12 -12 -12h-29q-12 0 -12 12v74q0 4 -4 4q-76 10 -119.5 61t-43.5 131v201q0 90 53 143t141 53zM387 186v204q0 67 -38.5 106.5t-101.5 39.5q-64 0 -102.5 -39.5t-38.5 -106.5v-204
q0 -67 38.5 -106.5t102.5 -39.5q63 0 101.5 39.5t38.5 106.5z" />
    <glyph glyph-name="r.sc" horiz-adv-x="521" 
d="M437 0q-9 0 -14 9l-128 253q-1 3 -4 3h-150q-4 0 -4 -4v-249q0 -12 -12 -12h-29q-12 0 -12 12v554q0 12 12 12h213q73 0 118 -43.5t45 -114.5q0 -59 -33 -99.5t-89 -51.5q-5 -2 -3 -5l128 -250q6 -14 -9 -14h-29zM141 531q-4 0 -4 -4v-215q0 -4 4 -4h164q51 0 82.5 30.5
t31.5 79.5q0 51 -31.5 82t-82.5 31h-164z" />
    <glyph glyph-name="racute.sc" horiz-adv-x="521" 
d="M326 779q16 0 8 -14l-64 -107q-4 -8 -14 -8h-23q-15 0 -8 14l59 107q5 8 15 8h27zM437 0q-9 0 -14 9l-128 253q-1 3 -4 3h-150q-4 0 -4 -4v-249q0 -12 -12 -12h-29q-12 0 -12 12v554q0 12 12 12h213q73 0 118 -43.5t45 -114.5q0 -59 -33 -99.5t-89 -51.5q-5 -2 -3 -5
l128 -250q6 -14 -9 -14h-29zM141 531q-4 0 -4 -4v-215q0 -4 4 -4h164q51 0 82.5 30.5t31.5 79.5q0 51 -31.5 82t-82.5 31h-164z" />
    <glyph glyph-name="rcaron.sc" horiz-adv-x="521" 
d="M288 638q-6 -7 -14 -7h-34q-8 0 -14 7l-78 104q-5 6 -2.5 10.5t9.5 4.5h20q9 0 15 -7l65 -86q1 -2 3 -2t3 2l65 86q6 7 14 7h20q7 0 9.5 -4.5t-2.5 -10.5zM437 0q-9 0 -14 9l-128 253q-1 3 -4 3h-150q-4 0 -4 -4v-249q0 -12 -12 -12h-29q-12 0 -12 12v554q0 12 12 12h213
q73 0 118 -43.5t45 -114.5q0 -59 -33 -99.5t-89 -51.5q-5 -2 -3 -5l128 -250q6 -14 -9 -14h-29zM141 531q-4 0 -4 -4v-215q0 -4 4 -4h164q51 0 82.5 30.5t31.5 79.5q0 51 -31.5 82t-82.5 31h-164z" />
    <glyph glyph-name="uni0157.sc" horiz-adv-x="521" 
d="M350 269q-5 -2 -3 -5l128 -250q6 -14 -9 -14h-29q-9 0 -14 9l-128 253q-1 3 -4 3h-150q-4 0 -4 -4v-249q0 -12 -12 -12h-29q-12 0 -12 12v554q0 12 12 12h213q73 0 118 -43.5t45 -114.5q0 -59 -33 -99.5t-89 -51.5zM141 531q-4 0 -4 -4v-215q0 -4 4 -4h164
q51 0 82.5 30.5t31.5 79.5q0 51 -31.5 82t-82.5 31h-164zM218 -188q-15 0 -8 14l59 107q5 8 15 8h27q16 0 8 -14l-64 -107q-4 -8 -14 -8h-23z" />
    <glyph glyph-name="s.sc" horiz-adv-x="502" 
d="M254 -7q-94 0 -148 40.5t-54 111.5v21q0 12 12 12h27q12 0 12 -12v-16q0 -49 41 -79.5t114 -30.5q68 0 105 27.5t37 75.5q0 42 -35 69t-124 64q-32 12 -39.5 15l-33 13.5t-32.5 15.5t-24.5 16t-22.5 19.5t-14 21.5t-11.5 27.5t-2.5 32.5q0 71 48 108.5t139 37.5
q95 0 147 -41.5t52 -113.5v-12q0 -12 -12 -12h-28q-12 0 -12 11v10q0 50 -39 80.5t-111 30.5q-64 0 -98 -25t-34 -72q0 -16 3 -28t14.5 -23l18.5 -17.5t30.5 -17l34.5 -15.5t45 -18q101 -38 147.5 -74t46.5 -100q0 -70 -52 -111.5t-147 -41.5z" />
    <glyph glyph-name="sacute.sc" horiz-adv-x="502" 
d="M221 657q-15 0 -8 14l59 107q5 8 15 8h27q16 0 8 -14l-64 -107q-4 -8 -14 -8h-23zM254 -7q-94 0 -148 40.5t-54 111.5v21q0 12 12 12h27q12 0 12 -12v-16q0 -49 41 -79.5t114 -30.5q68 0 105 27.5t37 75.5q0 42 -35 69t-124 64q-32 12 -39.5 15l-33 13.5t-32.5 15.5
t-24.5 16t-22.5 19.5t-14 21.5t-11.5 27.5t-2.5 32.5q0 71 48 108.5t139 37.5q95 0 147 -41.5t52 -113.5v-12q0 -12 -12 -12h-28q-12 0 -12 11v10q0 50 -39 80.5t-111 30.5q-64 0 -98 -25t-34 -72q0 -16 3 -28t14.5 -23l18.5 -17.5t30.5 -17l34.5 -15.5t45 -18
q101 -38 147.5 -74t46.5 -100q0 -70 -52 -111.5t-147 -41.5z" />
    <glyph glyph-name="scaron.sc" horiz-adv-x="502" 
d="M228 638q-8 0 -14 7l-78 104q-5 6 -2.5 10.5t9.5 4.5h20q9 0 15 -7l65 -86q1 -1 3 -1t3 1l65 86q6 7 14 7h20q7 0 9.5 -4.5t-2.5 -10.5l-79 -104q-6 -7 -14 -7h-34zM254 -7q-94 0 -148 40.5t-54 111.5v21q0 12 12 12h27q12 0 12 -12v-16q0 -49 41 -79.5t114 -30.5
q68 0 105 27.5t37 75.5q0 42 -35 69t-124 64q-32 12 -39.5 15l-33 13.5t-32.5 15.5t-24.5 16t-22.5 19.5t-14 21.5t-11.5 27.5t-2.5 32.5q0 71 48 108.5t139 37.5q95 0 147 -41.5t52 -113.5v-12q0 -12 -12 -12h-28q-12 0 -12 11v10q0 50 -39 80.5t-111 30.5q-64 0 -98 -25
t-34 -72q0 -16 3 -28t14.5 -23l18.5 -17.5t30.5 -17l34.5 -15.5t45 -18q101 -38 147.5 -74t46.5 -100q0 -70 -52 -111.5t-147 -41.5z" />
    <glyph glyph-name="scedilla.sc" horiz-adv-x="502" 
d="M453 146q0 -65 -45 -106t-130 -47q-6 0 -1 -5q64 -54 50 -114q-10 -41 -44.5 -52.5t-75.5 -3.5q-11 3 -9 14l2 11q3 12 15 9q62 -13 72 36q11 50 -56 104q-1 2 -5 2q-82 6 -128 46t-46 105v21q0 12 12 12h27q12 0 12 -12v-16q0 -49 41 -79.5t114 -30.5q68 0 105 27.5
t37 75.5q0 42 -35 69t-124 64q-32 12 -39.5 15l-33 13.5t-32.5 15.5t-24.5 16t-22.5 19.5t-14 21.5t-11.5 27.5t-2.5 32.5q0 71 48 108.5t139 37.5q95 0 147 -41.5t52 -113.5v-12q0 -12 -12 -12h-28q-12 0 -12 11v10q0 50 -39 80.5t-111 30.5q-64 0 -98 -25t-34 -72
q0 -16 3 -28t14.5 -23l18.5 -17.5t30.5 -17l34.5 -15.5t45 -18q101 -38 147.5 -74t46.5 -100z" />
    <glyph glyph-name="uni0219.sc" horiz-adv-x="502" 
d="M254 -7q-94 0 -148 40.5t-54 111.5v21q0 12 12 12h27q12 0 12 -12v-16q0 -49 41 -79.5t114 -30.5q68 0 105 27.5t37 75.5q0 42 -35 69t-124 64q-32 12 -39.5 15l-33 13.5t-32.5 15.5t-24.5 16t-22.5 19.5t-14 21.5t-11.5 27.5t-2.5 32.5q0 71 48 108.5t139 37.5
q95 0 147 -41.5t52 -113.5v-12q0 -12 -12 -12h-28q-12 0 -12 11v10q0 50 -39 80.5t-111 30.5q-64 0 -98 -25t-34 -72q0 -16 3 -28t14.5 -23l18.5 -17.5t30.5 -17l34.5 -15.5t45 -18q101 -38 147.5 -74t46.5 -100q0 -70 -52 -111.5t-147 -41.5zM200 -195q-15 0 -8 14l59 107
q5 8 15 8h27q16 0 8 -14l-64 -107q-4 -8 -14 -8h-23z" />
    <glyph glyph-name="t.sc" horiz-adv-x="489" 
d="M438 576q12 0 12 -12v-23q0 -12 -12 -12h-167q-4 0 -4 -4v-513q0 -12 -12 -12h-29q-12 0 -12 12v513q0 4 -4 4h-160q-12 0 -12 12v23q0 12 12 12h388z" />
    <glyph glyph-name="tbar.sc" horiz-adv-x="489" 
d="M450 541q0 -12 -12 -12h-167q-4 0 -4 -4v-158q0 -4 4 -4h116q12 0 12 -12v-14q0 -12 -12 -12h-116q-4 0 -4 -4v-309q0 -12 -12 -12h-29q-12 0 -12 12v309q0 4 -4 4h-107q-12 0 -12 12v14q0 12 12 12h107q4 0 4 4v158q0 4 -4 4h-160q-12 0 -12 12v23q0 12 12 12h388
q12 0 12 -12v-23z" />
    <glyph glyph-name="tcaron.sc" horiz-adv-x="489" 
d="M272 638q-6 -7 -14 -7h-34q-8 0 -14 7l-78 104q-5 6 -2.5 10.5t9.5 4.5h20q9 0 15 -7l65 -86q1 -2 3 -2t3 2l65 86q6 7 14 7h20q7 0 9.5 -4.5t-2.5 -10.5zM438 576q12 0 12 -12v-23q0 -12 -12 -12h-167q-4 0 -4 -4v-513q0 -12 -12 -12h-29q-12 0 -12 12v513q0 4 -4 4
h-160q-12 0 -12 12v23q0 12 12 12h388z" />
    <glyph glyph-name="uni0163.sc" horiz-adv-x="489" 
d="M271 529q-4 0 -4 -4v-513l-1 -12h-1q70 -57 55 -119q-10 -41 -44.5 -52.5t-75.5 -3.5q-11 3 -9 14l2 11q3 12 15 9q62 -13 72 36q10 51 -55 103q-1 2 -5 2q-6 4 -6 12v513q0 4 -4 4h-160q-12 0 -12 12v23q0 12 12 12h388q12 0 12 -12v-23q0 -12 -12 -12h-167z" />
    <glyph glyph-name="uni021B.sc" horiz-adv-x="489" 
d="M38 564q0 12 12 12h388q12 0 12 -12v-23q0 -12 -12 -12h-167q-4 0 -4 -4v-513q0 -12 -12 -12h-29q-12 0 -12 12v513q0 4 -4 4h-160q-12 0 -12 12v23zM197 -188q-15 0 -8 14l59 107q5 8 15 8h27q16 0 8 -14l-64 -107q-4 -8 -14 -8h-23z" />
    <glyph glyph-name="u.sc" horiz-adv-x="557" 
d="M279 -7q-92 0 -147 52.5t-55 142.5v376q0 12 12 12h29q12 0 12 -12v-377q0 -68 40.5 -107.5t108.5 -39.5q67 0 107 39.5t40 107.5v377q0 12 12 12h29q12 0 12 -12v-376q0 -89 -54.5 -142t-145.5 -53z" />
    <glyph glyph-name="uacute.sc" horiz-adv-x="557" 
d="M254 660q-15 0 -8 14l59 107q5 8 15 8h27q16 0 8 -14l-64 -107q-4 -8 -14 -8h-23zM279 -7q-92 0 -147 52.5t-55 142.5v376q0 12 12 12h29q12 0 12 -12v-377q0 -68 40.5 -107.5t108.5 -39.5q67 0 107 39.5t40 107.5v377q0 12 12 12h29q12 0 12 -12v-376q0 -89 -54.5 -142
t-145.5 -53z" />
    <glyph glyph-name="ucircumflex.sc" horiz-adv-x="557" 
d="M174 652q-7 0 -9.5 4.5t2.5 10.5l80 104q6 7 15 7h31q9 0 15 -7l81 -104q4 -6 2 -10.5t-10 -4.5h-21q-8 0 -14 7l-64 86q-1 1 -3 1t-3 -1l-65 -86q-6 -7 -15 -7h-22zM279 -7q-92 0 -147 52.5t-55 142.5v376q0 12 12 12h29q12 0 12 -12v-377q0 -68 40.5 -107.5
t108.5 -39.5q67 0 107 39.5t40 107.5v377q0 12 12 12h29q12 0 12 -12v-376q0 -89 -54.5 -142t-145.5 -53z" />
    <glyph glyph-name="udieresis.sc" horiz-adv-x="557" 
d="M198 689q-18 0 -30 11.5t-12 29.5q0 17 12 28.5t30 11.5t29.5 -11.5t11.5 -28.5q0 -18 -11.5 -29.5t-29.5 -11.5zM361 689q-19 0 -31 11.5t-12 29.5q0 17 12 28.5t31 11.5q17 0 28.5 -11.5t11.5 -28.5q0 -18 -11.5 -29.5t-28.5 -11.5zM279 -7q-92 0 -147 52.5t-55 142.5
v376q0 12 12 12h29q12 0 12 -12v-377q0 -68 40.5 -107.5t108.5 -39.5q67 0 107 39.5t40 107.5v377q0 12 12 12h29q12 0 12 -12v-376q0 -89 -54.5 -142t-145.5 -53z" />
    <glyph glyph-name="ugrave.sc" horiz-adv-x="557" 
d="M293 674q7 -14 -8 -14h-23q-10 0 -14 8l-64 107q-8 14 8 14h27q10 0 15 -8zM279 -7q-92 0 -147 52.5t-55 142.5v376q0 12 12 12h29q12 0 12 -12v-377q0 -68 40.5 -107.5t108.5 -39.5q67 0 107 39.5t40 107.5v377q0 12 12 12h29q12 0 12 -12v-376q0 -89 -54.5 -142
t-145.5 -53z" />
    <glyph glyph-name="uhungarumlaut.sc" horiz-adv-x="557" 
d="M185 658q-15 0 -8 14l56 106q5 9 14 9h26q15 0 8 -14l-60 -107q-5 -8 -15 -8h-21zM343 658q-15 0 -8 14l58 107q5 8 15 8h24q15 0 8 -14l-60 -107q-5 -8 -15 -8h-22zM279 -7q-92 0 -147 52.5t-55 142.5v376q0 12 12 12h29q12 0 12 -12v-377q0 -68 40.5 -107.5
t108.5 -39.5q67 0 107 39.5t40 107.5v377q0 12 12 12h29q12 0 12 -12v-376q0 -89 -54.5 -142t-145.5 -53z" />
    <glyph glyph-name="umacron.sc" horiz-adv-x="557" 
d="M160 680q-12 0 -12 12v16q0 12 12 12h238q12 0 12 -12v-16q0 -12 -12 -12h-238zM279 -7q-92 0 -147 52.5t-55 142.5v376q0 12 12 12h29q12 0 12 -12v-377q0 -68 40.5 -107.5t108.5 -39.5q67 0 107 39.5t40 107.5v377q0 12 12 12h29q12 0 12 -12v-376q0 -89 -54.5 -142
t-145.5 -53z" />
    <glyph glyph-name="uogonek.sc" horiz-adv-x="557" 
d="M426 564q0 12 12 12h29q12 0 12 -12v-376q0 -85 -50 -137.5t-134 -57.5q-3 0 -5 -2q-56 -48 -46 -95q10 -49 72 -36q11 3 14 -9l2 -10q3 -12 -8 -15q-41 -8 -75.5 3.5t-44.5 52.5q-13 56 42 108q5 3 -1 5q-78 10 -123 61t-45 132v376q0 12 12 12h29q12 0 12 -12v-377
q0 -68 40.5 -107.5t108.5 -39.5q67 0 107 39.5t40 107.5v377z" />
    <glyph glyph-name="uring.sc" horiz-adv-x="557" 
d="M279 653q-43 0 -72.5 29.5t-29.5 71.5t29.5 71t72.5 29t73 -29t30 -71t-30 -71.5t-73 -29.5zM279 685q29 0 49.5 20t20.5 49t-20.5 49t-49.5 20t-49 -20t-20 -49t20 -49t49 -20zM279 -7q-92 0 -147 52.5t-55 142.5v376q0 12 12 12h29q12 0 12 -12v-377q0 -68 40.5 -107.5
t108.5 -39.5q67 0 107 39.5t40 107.5v377q0 12 12 12h29q12 0 12 -12v-376q0 -89 -54.5 -142t-145.5 -53z" />
    <glyph glyph-name="v.sc" horiz-adv-x="506" 
d="M234 0q-10 0 -13 10l-184 552q-5 14 9 14h32q10 0 13 -10l159 -487q1 -2 3 -2t3 2l161 487q3 10 13 10h30q14 0 9 -14l-186 -552q-3 -10 -13 -10h-36z" />
    <glyph glyph-name="w.sc" horiz-adv-x="763" 
d="M208 0q-11 0 -14 10l-158 553q-3 13 10 13h31q11 0 14 -10l129 -467q1 -2 2.5 -2t2.5 2l125 467q3 10 14 10h32q11 0 14 -10l127 -467q1 -2 2.5 -2t2.5 2l131 467q3 10 14 10h30q13 0 10 -13l-158 -553q-3 -10 -14 -10h-30q-11 0 -14 10l-128 467q-1 2 -2.5 2t-2.5 -2
l-127 -467q-3 -10 -14 -10h-29z" />
    <glyph glyph-name="wacute.sc" horiz-adv-x="763" 
d="M355 650q-15 0 -8 14l59 107q5 8 15 8h27q16 0 8 -14l-64 -107q-4 -8 -14 -8h-23zM208 0q-11 0 -14 10l-158 553q-3 13 10 13h31q11 0 14 -10l129 -467q1 -2 2.5 -2t2.5 2l125 467q3 10 14 10h32q11 0 14 -10l127 -467q1 -2 2.5 -2t2.5 2l131 467q3 10 14 10h30
q13 0 10 -13l-158 -553q-3 -10 -14 -10h-30q-11 0 -14 10l-128 467q-1 2 -2.5 2t-2.5 -2l-127 -467q-3 -10 -14 -10h-29z" />
    <glyph glyph-name="wcircumflex.sc" horiz-adv-x="763" 
d="M275 642q-7 0 -9.5 4.5t2.5 10.5l80 104q6 7 15 7h31q9 0 15 -7l81 -104q4 -6 2 -10.5t-10 -4.5h-21q-8 0 -14 7l-64 86q-1 1 -3 1t-3 -1l-65 -86q-6 -7 -15 -7h-22zM208 0q-11 0 -14 10l-158 553q-3 13 10 13h31q11 0 14 -10l129 -467q1 -2 2.5 -2t2.5 2l125 467
q3 10 14 10h32q11 0 14 -10l127 -467q1 -2 2.5 -2t2.5 2l131 467q3 10 14 10h30q13 0 10 -13l-158 -553q-3 -10 -14 -10h-30q-11 0 -14 10l-128 467q-1 2 -2.5 2t-2.5 -2l-127 -467q-3 -10 -14 -10h-29z" />
    <glyph glyph-name="wdieresis.sc" horiz-adv-x="763" 
d="M299 679q-18 0 -30 11.5t-12 29.5q0 17 12 28.5t30 11.5t29.5 -11.5t11.5 -28.5q0 -18 -11.5 -29.5t-29.5 -11.5zM462 679q-19 0 -31 11.5t-12 29.5q0 17 12 28.5t31 11.5q17 0 28.5 -11.5t11.5 -28.5q0 -18 -11.5 -29.5t-28.5 -11.5zM208 0q-11 0 -14 10l-158 553
q-3 13 10 13h31q11 0 14 -10l129 -467q1 -2 2.5 -2t2.5 2l125 467q3 10 14 10h32q11 0 14 -10l127 -467q1 -2 2.5 -2t2.5 2l131 467q3 10 14 10h30q13 0 10 -13l-158 -553q-3 -10 -14 -10h-30q-11 0 -14 10l-128 467q-1 2 -2.5 2t-2.5 -2l-127 -467q-3 -10 -14 -10h-29z" />
    <glyph glyph-name="wgrave.sc" horiz-adv-x="763" 
d="M394 664q7 -14 -8 -14h-23q-10 0 -14 8l-64 107q-8 14 8 14h27q10 0 15 -8zM208 0q-11 0 -14 10l-158 553q-3 13 10 13h31q11 0 14 -10l129 -467q1 -2 2.5 -2t2.5 2l125 467q3 10 14 10h32q11 0 14 -10l127 -467q1 -2 2.5 -2t2.5 2l131 467q3 10 14 10h30q13 0 10 -13
l-158 -553q-3 -10 -14 -10h-30q-11 0 -14 10l-128 467q-1 2 -2.5 2t-2.5 -2l-127 -467q-3 -10 -14 -10h-29z" />
    <glyph glyph-name="x.sc" horiz-adv-x="506" 
d="M49 0q-7 0 -9 4.5t2 10.5l181 270q1 3 0 6l-181 270q-4 6 -2 10.5t9 4.5h33q9 0 14 -8l154 -236q1 -2 3 -2t3 2l155 236q5 8 14 8h32q7 0 9 -4.5t-2 -10.5l-180 -271q-2 -3 0 -6l180 -269q4 -6 2 -10.5t-9 -4.5h-32q-9 0 -14 8l-155 235q-1 1 -3 1t-3 -1l-154 -235
q-5 -8 -14 -8h-33z" />
    <glyph glyph-name="y.sc" horiz-adv-x="488" 
d="M228 0q-12 0 -12 12v242q0 4 -1 5l-175 303q-8 14 9 14h29q10 0 15 -8l147 -257q1 -1 3 -1t3 1l148 257q4 8 15 8h30q17 0 9 -14l-178 -303q-1 -1 -1 -5v-242q0 -12 -12 -12h-29z" />
    <glyph glyph-name="yacute.sc" horiz-adv-x="488" 
d="M218 650q-15 0 -8 14l59 107q5 8 15 8h27q16 0 8 -14l-64 -107q-4 -8 -14 -8h-23zM228 0q-12 0 -12 12v242q0 4 -1 5l-175 303q-8 14 9 14h29q10 0 15 -8l147 -257q1 -1 3 -1t3 1l148 257q4 8 15 8h30q17 0 9 -14l-178 -303q-1 -1 -1 -5v-242q0 -12 -12 -12h-29z" />
    <glyph glyph-name="ycircumflex.sc" horiz-adv-x="488" 
d="M138 642q-7 0 -9.5 4.5t2.5 10.5l80 104q6 7 15 7h31q9 0 15 -7l81 -104q4 -6 2 -10.5t-10 -4.5h-21q-8 0 -14 7l-64 86q-1 1 -3 1t-3 -1l-65 -86q-6 -7 -15 -7h-22zM228 0q-12 0 -12 12v242q0 4 -1 5l-175 303q-8 14 9 14h29q10 0 15 -8l147 -257q1 -1 3 -1t3 1l148 257
q4 8 15 8h30q17 0 9 -14l-178 -303q-1 -1 -1 -5v-242q0 -12 -12 -12h-29z" />
    <glyph glyph-name="ydieresis.sc" horiz-adv-x="488" 
d="M162 679q-18 0 -30 11.5t-12 29.5q0 17 12 28.5t30 11.5t29.5 -11.5t11.5 -28.5q0 -18 -11.5 -29.5t-29.5 -11.5zM325 679q-19 0 -31 11.5t-12 29.5q0 17 12 28.5t31 11.5q17 0 28.5 -11.5t11.5 -28.5q0 -18 -11.5 -29.5t-28.5 -11.5zM228 0q-12 0 -12 12v242q0 4 -1 5
l-175 303q-8 14 9 14h29q10 0 15 -8l147 -257q1 -1 3 -1t3 1l148 257q4 8 15 8h30q17 0 9 -14l-178 -303q-1 -1 -1 -5v-242q0 -12 -12 -12h-29z" />
    <glyph glyph-name="ygrave.sc" horiz-adv-x="488" 
d="M257 664q7 -14 -8 -14h-23q-10 0 -14 8l-64 107q-8 14 8 14h27q10 0 15 -8zM228 0q-12 0 -12 12v242q0 4 -1 5l-175 303q-8 14 9 14h29q10 0 15 -8l147 -257q1 -1 3 -1t3 1l148 257q4 8 15 8h30q17 0 9 -14l-178 -303q-1 -1 -1 -5v-242q0 -12 -12 -12h-29z" />
    <glyph glyph-name="z.sc" horiz-adv-x="469" 
d="M51 0q-12 0 -12 12v29q0 7 5 15l316 468q1 3 -3 5h-306q-12 0 -12 12v23q0 12 12 12h359q12 0 12 -12v-28q0 -7 -5 -15l-316 -469q-1 -3 3 -5h306q12 0 12 -12v-23q0 -12 -12 -12h-359z" />
    <glyph glyph-name="zacute.sc" horiz-adv-x="469" 
d="M202 661q-15 0 -8 14l59 107q5 8 15 8h27q16 0 8 -14l-64 -107q-4 -8 -14 -8h-23zM51 0q-12 0 -12 12v29q0 7 5 15l316 468q1 3 -3 5h-306q-12 0 -12 12v23q0 12 12 12h359q12 0 12 -12v-28q0 -7 -5 -15l-316 -469q-1 -3 3 -5h306q12 0 12 -12v-23q0 -12 -12 -12h-359z
" />
    <glyph glyph-name="zcaron.sc" horiz-adv-x="469" 
d="M209 642q-8 0 -14 7l-78 104q-5 6 -2.5 10.5t9.5 4.5h20q9 0 15 -7l65 -86q1 -1 3 -1t3 1l65 86q6 7 14 7h20q7 0 9.5 -4.5t-2.5 -10.5l-79 -104q-6 -7 -14 -7h-34zM51 0q-12 0 -12 12v29q0 7 5 15l316 468q1 3 -3 5h-306q-12 0 -12 12v23q0 12 12 12h359q12 0 12 -12
v-28q0 -7 -5 -15l-316 -469q-1 -3 3 -5h306q12 0 12 -12v-23q0 -12 -12 -12h-359z" />
    <glyph glyph-name="zdotaccent.sc" horiz-adv-x="469" 
d="M227 674q-18 0 -29.5 11t-11.5 28t11.5 27.5t29.5 10.5q17 0 27.5 -10.5t10.5 -27.5t-10.5 -28t-27.5 -11zM51 0q-12 0 -12 12v29q0 7 5 15l316 468q1 3 -3 5h-306q-12 0 -12 12v23q0 12 12 12h359q12 0 12 -12v-28q0 -7 -5 -15l-316 -469q-1 -3 3 -5h306q12 0 12 -12
v-23q0 -12 -12 -12h-359z" />
    <glyph glyph-name="zero.dnom" horiz-adv-x="315" 
d="M160 -8q-57 0 -91 33t-34 88v190q0 55 34 87.5t91 32.5t92 -32.5t35 -87.5v-190q0 -55 -35 -88t-92 -33zM160 28q39 0 63 22.5t24 59.5v196q0 37 -24 59.5t-63 22.5q-38 0 -61.5 -22.5t-23.5 -59.5v-196q0 -37 23.5 -59.5t61.5 -22.5z" />
    <glyph glyph-name="one.dnom" horiz-adv-x="182" 
d="M85 417q7 3 15 3h21q12 0 12 -12v-396q0 -12 -12 -12h-17q-12 0 -12 12v363q0 2 -1.5 3.5t-2.5 0.5l-35 -9q-13 -3 -13 10v7q0 9 9 14z" />
    <glyph glyph-name="two.dnom" horiz-adv-x="322" 
d="M49 0q-12 0 -12 12v15q0 7 5 14l134 165q57 73 57 112q0 32 -22 51.5t-57 19.5t-56.5 -19.5t-20.5 -52.5v-13q0 -12 -12 -12h-17q-12 0 -12 12v18q1 46 34 74.5t84 28.5q54 0 86.5 -30t32.5 -76q0 -51 -56 -124l-124 -155q-3 -5 2 -5h180q12 0 12 -12v-11q0 -12 -12 -12
h-226z" />
    <glyph glyph-name="three.dnom" horiz-adv-x="322" 
d="M264 205q15 -33 15 -79q0 -42 -14 -73q-29 -60 -105 -60q-42 0 -71 22t-41 59q-5 17 -7 39q0 12 12 12h17q12 0 12 -12q2 -20 4 -27q5 -26 25 -41.5t49 -15.5q46 0 66 38q13 26 13 59q0 40 -14 66q-20 38 -65 38q-5 0 -15 -2q-11 -3 -17 4l-7 8q-7 8 0 17l102 120
q2 1 1 3t-3 2h-164q-12 0 -12 12v12q0 12 12 12h208q12 0 12 -12v-16q0 -9 -5 -14l-93 -113q-5 -5 3 -5q56 -5 82 -53z" />
    <glyph glyph-name="four.dnom" horiz-adv-x="329" 
d="M280 152q12 0 12 -12v-13q0 -12 -12 -12h-17q-4 0 -4 -4v-99q0 -12 -12 -12h-17q-12 0 -12 12v99q0 4 -4 4h-172q-12 0 -12 12v12q0 7 3 15l120 257q4 9 14 9h16q15 0 9 -14l-115 -249q-3 -5 3 -5h134q4 0 4 4v91q0 12 12 12h17q12 0 12 -12v-91q0 -4 4 -4h17z" />
    <glyph glyph-name="five.dnom" horiz-adv-x="299" 
d="M260 195q13 -33 13 -69q0 -39 -13 -68q-28 -66 -107 -66q-42 0 -71 21.5t-41 58.5q-5 18 -5 31q-2 12 11 12h18q11 0 12 -9v-4l3 -16q5 -26 25 -42t48 -16q50 0 68 43q11 24 11 54q0 33 -11 58q-19 40 -66 40q-53 0 -73 -36q0 -1 -1 -2t-1 -2q-3 -8 -12 -8h-20
q-12 0 -12 12v218q0 12 12 12h195q12 0 12 -12v-11q0 -12 -12 -12h-163q-4 0 -4 -4v-142q0 -6 5 -3q31 26 79 26q72 0 100 -64z" />
    <glyph glyph-name="six.dnom" horiz-adv-x="308" 
d="M272 180q5 -19 5 -54q0 -36 -5 -54q-11 -36 -41.5 -58t-72.5 -22t-70.5 22t-40.5 58q-7 20 -7 55v184q0 52 32 81.5t86 29.5q49 0 80 -28.5t31 -74.5v-2q0 -12 -12 -12h-17q-12 0 -12 6v5q0 30 -20 50t-50 20q-35 0 -56.5 -21t-21.5 -58v-82q0 -7 5 -2q30 35 79 35
q39 0 68 -21.5t40 -56.5zM233 84q4 16 4 41t-4 40q-5 26 -25 42t-50 16q-28 0 -47.5 -16t-25.5 -41q-4 -12 -4 -41q0 -23 3 -41q5 -25 25.5 -40.5t48.5 -15.5q60 0 75 56z" />
    <glyph glyph-name="seven.dnom" horiz-adv-x="273" 
d="M91 0q-15 0 -10 14l134 366q3 5 -3 5h-161q-4 0 -4 -4v-29q0 -12 -12 -12h-10q-12 0 -12 12v56q0 12 12 12h223q12 0 12 -12v-15q0 -6 -3 -15l-134 -368q-3 -10 -14 -10h-18z" />
    <glyph glyph-name="eight.dnom" horiz-adv-x="311" 
d="M220 223q-4 -3 0 -6q37 -19 47 -55q6 -20 6 -48q0 -26 -5 -45q-11 -34 -41.5 -55.5t-72.5 -21.5q-41 0 -70.5 21t-41.5 56q-7 21 -7 46q0 21 8 46q10 36 45 56q4 3 0 6q-32 19 -45 53q-7 19 -7 38q0 22 7 39q28 70 111 70q87 0 113 -71q7 -18 7 -38q0 -17 -7 -37
q-13 -35 -47 -54zM75 312q0 -6 4 -22q14 -53 75 -53q62 0 74 46q2 6 4 14q1 5 1 15q0 15 -3 23q-6 25 -26.5 39t-49.5 14q-60 0 -74 -53q-5 -13 -5 -23zM232 118q0 21 -2 28q-5 26 -25.5 42.5t-50.5 16.5q-29 0 -48.5 -16t-25.5 -43q-4 -15 -4 -29q0 -13 3 -31
q5 -27 25 -42.5t50 -15.5t50.5 16t25.5 42q2 11 2 32z" />
    <glyph glyph-name="nine.dnom" horiz-adv-x="308" 
d="M261 342q7 -20 7 -55v-184q0 -52 -32 -81.5t-86 -29.5q-49 0 -80 28.5t-31 74.5v2q0 12 12 12h17q12 0 12 -5v-6q0 -30 20 -50t50 -20q35 0 56.5 21t21.5 58v82q0 7 -5 2q-30 -35 -79 -35q-39 0 -68 21.5t-40 56.5q-5 19 -5 54q0 36 5 54q11 36 41.5 58t72.5 22t70.5 -22
t40.5 -58zM223 248q4 12 4 41q0 23 -3 41q-5 25 -25.5 40.5t-48.5 15.5q-60 0 -75 -56q-4 -16 -4 -41t4 -40q5 -26 25 -42t50 -16q28 0 47.5 16t25.5 41z" />
    <glyph glyph-name="zero.numr" horiz-adv-x="315" 
d="M160 277q-57 0 -91 33t-34 88v190q0 55 34 87.5t91 32.5t92 -32.5t35 -87.5v-190q0 -55 -35 -88t-92 -33zM160 313q39 0 63 22.5t24 59.5v196q0 37 -24 59.5t-63 22.5q-38 0 -61.5 -22.5t-23.5 -59.5v-196q0 -37 23.5 -59.5t61.5 -22.5z" />
    <glyph glyph-name="one.numr" horiz-adv-x="182" 
d="M85 697q7 3 15 3h21q12 0 12 -12v-396q0 -12 -12 -12h-17q-12 0 -12 12v363q0 2 -1.5 3.5t-2.5 0.5l-35 -9q-13 -3 -13 10v7q0 9 9 14z" />
    </font>
</defs>
</svg>
